<svg width="17" height="22" viewBox="0 0 17 22" fill="none" xmlns="http://www.w3.org/2000/svg">
<path d="M10.9789 9.10156C12.8559 8.68972 14.6995 8.28612 16.6016 7.86604C16.4097 7.02588 16.2262 6.21044 16.026 5.3291C15.6506 5.40323 15.2918 5.47736 14.9331 5.55973C13.5233 5.87273 12.1218 6.2022 10.712 6.49873C10.2949 6.5811 9.86108 6.56462 9.42729 6.59757C7.28335 6.7376 5.1978 6.46578 3.12894 5.89744C2.30307 5.66681 1.46051 5.51855 0.584578 5.3291C0.384365 6.19397 0.200838 7.01765 0.00062561 7.87428C1.8943 8.29435 3.74626 8.69796 5.6316 9.11803C5.6316 9.58753 5.6316 10.0323 5.6316 10.4853C5.6316 11.0866 5.58989 11.6962 5.63994 12.2974C5.81512 14.5296 5.16443 16.6465 4.75567 18.788C4.63054 19.4552 4.48872 20.1306 4.33856 20.8472C5.20615 21.012 6.04871 21.1767 6.91629 21.3415C7.35843 19.1422 7.80056 16.9759 8.2427 14.8097C8.27607 14.8097 8.30944 14.8097 8.3428 14.8014C8.78494 16.9595 9.21873 19.1258 9.66921 21.3332C10.5368 21.1685 11.371 21.0037 12.2636 20.839C12.1302 20.1554 12.005 19.4964 11.8715 18.8457C11.5879 17.4454 11.2959 16.0534 11.0123 14.6532C10.9956 14.5873 10.9873 14.5214 10.9873 14.4472C10.9789 12.6846 10.9789 10.9137 10.9789 9.10156Z" fill="#484848"/>
<path d="M8.28447 4.29381e-05C6.80791 0.00827975 5.62332 1.20262 5.63166 2.66053C5.64834 4.11845 6.8663 5.28807 8.34287 5.2716C9.79441 5.25513 10.979 4.06903 10.9707 2.62758C10.9707 1.16967 9.76938 -0.00819387 8.28447 4.29381e-05Z" fill="#484848"/>
</svg>
