<svg width="9" height="15" viewBox="0 0 9 15" fill="none" xmlns="http://www.w3.org/2000/svg">
<mask id="path-1-inside-1_314_3549" fill="white">
<path d="M3.61135 14.6569L3.61133 1.78432L0.736335 4.71569L0.111335 4.07843L4.11133 -1.4749e-07L8.11133 4.07843L7.48634 4.71569L4.61133 1.78432L4.61135 14.6569L3.61135 14.6569Z"/>
</mask>
<path d="M3.61135 14.6569L3.61133 1.78432L0.736335 4.71569L0.111335 4.07843L4.11133 -1.4749e-07L8.11133 4.07843L7.48634 4.71569L4.61133 1.78432L4.61135 14.6569L3.61135 14.6569Z" fill="white"/>
<path d="M3.61133 1.78432L2.89739 1.08411L4.61133 -0.663439L4.61133 1.78432L3.61133 1.78432ZM0.736335 4.71569L1.45028 5.4159L0.736338 6.14384L0.022398 5.4159L0.736335 4.71569ZM0.111335 4.07843L-0.602603 4.77864L-1.28935 4.07843L-0.602605 3.37823L0.111335 4.07843ZM4.11133 -1.4749e-07L3.39739 -0.700208L4.11133 -1.42815L4.82526 -0.700209L4.11133 -1.4749e-07ZM8.11133 4.07843L8.82527 3.37823L9.51202 4.07843L8.82527 4.77864L8.11133 4.07843ZM7.48634 4.71569L8.20028 5.4159L7.48634 6.14384L6.7724 5.4159L7.48634 4.71569ZM4.61133 1.78432L3.61133 1.78432L3.61133 -0.663438L5.32527 1.08411L4.61133 1.78432ZM4.61135 14.6569L5.61135 14.6569L5.61135 15.6569L4.61135 15.6569L4.61135 14.6569ZM2.61135 14.6569L2.61133 1.78432L4.61133 1.78432L4.61135 14.6569L2.61135 14.6569ZM4.32527 2.48452L1.45028 5.4159L0.022396 4.01548L2.89739 1.08411L4.32527 2.48452ZM0.022398 5.4159L-0.602603 4.77864L0.825272 3.37823L1.45027 4.01548L0.022398 5.4159ZM-0.602605 3.37823L3.39739 -0.700208L4.82527 0.700208L0.825274 4.77864L-0.602605 3.37823ZM4.82526 -0.700209L8.82527 3.37823L7.3974 4.77864L3.39739 0.700208L4.82526 -0.700209ZM8.82527 4.77864L8.20028 5.4159L6.7724 4.01548L7.39739 3.37823L8.82527 4.77864ZM6.7724 5.4159L3.89739 2.48452L5.32527 1.08411L8.20027 4.01548L6.7724 5.4159ZM5.61133 1.78432L5.61135 14.6569L3.61135 14.6569L3.61133 1.78432L5.61133 1.78432ZM4.61135 15.6569L3.61135 15.6569L3.61135 13.6569L4.61135 13.6569L4.61135 15.6569Z" fill="#8E8E8E" mask="url(#path-1-inside-1_314_3549)"/>
</svg>
