<svg width="15" height="9" viewBox="0 0 15 9" fill="none" xmlns="http://www.w3.org/2000/svg">
<mask id="path-1-inside-1_163_1660" fill="white">
<path d="M14.7454 3.84602L2.34058 3.84602L5.16545 1.02852L4.55134 0.416016L0.621093 4.33602L4.55134 8.25602L5.16544 7.64352L2.34058 4.82602L14.7454 4.82602L14.7454 3.84602Z"/>
</mask>
<path d="M14.7454 3.84602L2.34058 3.84602L5.16545 1.02852L4.55134 0.416016L0.621093 4.33602L4.55134 8.25602L5.16544 7.64352L2.34058 4.82602L14.7454 4.82602L14.7454 3.84602Z" fill="#8E8E8E"/>
<path d="M2.34058 3.84602L1.6344 3.13799L-0.0780997 4.84602L2.34058 4.84602L2.34058 3.84602ZM5.16545 1.02852L5.87163 1.73655L6.58151 1.02852L5.87163 0.320487L5.16545 1.02852ZM4.55134 0.416016L5.25753 -0.292013L4.55134 -0.996354L3.84516 -0.292013L4.55134 0.416016ZM0.621093 4.33602L-0.0850897 3.62799L-0.794971 4.33602L-0.08509 5.04404L0.621093 4.33602ZM4.55134 8.25602L3.84516 8.96405L4.55134 9.66839L5.25752 8.96405L4.55134 8.25602ZM5.16544 7.64352L5.87163 8.35155L6.58151 7.64352L5.87163 6.93549L5.16544 7.64352ZM2.34058 4.82602L2.34058 3.82602L-0.0780988 3.82601L1.63439 5.53404L2.34058 4.82602ZM14.7454 4.82602L14.7454 5.82602L15.7454 5.82602L15.7454 4.82602L14.7454 4.82602ZM14.7454 2.84602L2.34058 2.84602L2.34058 4.84602L14.7454 4.84602L14.7454 2.84602ZM3.04676 4.55405L5.87163 1.73655L4.45926 0.320487L1.6344 3.13799L3.04676 4.55405ZM5.87163 0.320487L5.25753 -0.292013L3.84516 1.12405L4.45926 1.73655L5.87163 0.320487ZM3.84516 -0.292013L-0.0850897 3.62799L1.32728 5.04405L5.25753 1.12405L3.84516 -0.292013ZM-0.08509 5.04404L3.84516 8.96405L5.25753 7.54799L1.32728 3.62799L-0.08509 5.04404ZM5.25752 8.96405L5.87163 8.35155L4.45926 6.93549L3.84516 7.54799L5.25752 8.96405ZM5.87163 6.93549L3.04676 4.11799L1.63439 5.53404L4.45926 8.35155L5.87163 6.93549ZM2.34058 5.82602L14.7454 5.82602L14.7454 3.82602L2.34058 3.82602L2.34058 5.82602ZM15.7454 4.82602L15.7454 3.84602L13.7454 3.84602L13.7454 4.82602L15.7454 4.82602Z" fill="#8E8E8E" mask="url(#path-1-inside-1_163_1660)"/>
</svg>
