<svg width="15" height="9" viewBox="0 0 15 9" fill="none" xmlns="http://www.w3.org/2000/svg">
<mask id="path-1-inside-1_163_1662" fill="white">
<path d="M0.698903 5.15399L13.1038 5.15398L10.2789 7.97148L10.893 8.58398L14.8232 4.66398L10.893 0.743984L10.2789 1.35648L13.1038 4.17399L0.698903 4.17399L0.698903 5.15399Z"/>
</mask>
<path d="M0.698903 5.15399L13.1038 5.15398L10.2789 7.97148L10.893 8.58398L14.8232 4.66398L10.893 0.743984L10.2789 1.35648L13.1038 4.17399L0.698903 4.17399L0.698903 5.15399Z" fill="#8E8E8E"/>
<path d="M13.1038 5.15398L13.8099 5.86201L15.5224 4.15398L13.1038 4.15398L13.1038 5.15398ZM10.2789 7.97148L9.57271 7.26346L8.86283 7.97148L9.57271 8.67951L10.2789 7.97148ZM10.893 8.58398L10.1868 9.29201L10.893 9.99636L11.5992 9.29201L10.893 8.58398ZM14.8232 4.66398L15.5294 5.37201L16.2393 4.66398L15.5294 3.95595L14.8232 4.66398ZM10.893 0.743984L11.5992 0.0359547L10.893 -0.668387L10.1868 0.0359548L10.893 0.743984ZM10.2789 1.35648L9.57271 0.648455L8.86283 1.35648L9.57271 2.06451L10.2789 1.35648ZM13.1038 4.17399L13.1038 5.17399L15.5224 5.17398L13.8099 3.46596L13.1038 4.17399ZM0.698903 4.17399L0.698903 3.17399L-0.301097 3.17399L-0.301097 4.17399L0.698903 4.17399ZM0.698904 6.15399L13.1038 6.15398L13.1038 4.15398L0.698903 4.15399L0.698904 6.15399ZM12.3976 4.44595L9.57271 7.26346L10.9851 8.67951L13.8099 5.86201L12.3976 4.44595ZM9.57271 8.67951L10.1868 9.29201L11.5992 7.87596L10.9851 7.26346L9.57271 8.67951ZM11.5992 9.29201L15.5294 5.37201L14.1171 3.95596L10.1868 7.87596L11.5992 9.29201ZM15.5294 3.95595L11.5992 0.0359547L10.1868 1.45201L14.1171 5.37201L15.5294 3.95595ZM10.1868 0.0359548L9.57271 0.648455L10.9851 2.06451L11.5992 1.45201L10.1868 0.0359548ZM9.57271 2.06451L12.3976 4.88201L13.8099 3.46596L10.9851 0.648454L9.57271 2.06451ZM13.1038 3.17399L0.698903 3.17399L0.698903 5.17399L13.1038 5.17399L13.1038 3.17399ZM-0.301097 4.17399L-0.301097 5.15399L1.6989 5.15399L1.6989 4.17399L-0.301097 4.17399Z" fill="#8E8E8E" mask="url(#path-1-inside-1_163_1662)"/>
</svg>
