<svg width="21" height="24" viewBox="0 0 21 24" fill="none" xmlns="http://www.w3.org/2000/svg">
<g clip-path="url(#clip0_413_3296)">
<path d="M8.92594 21.2571C4.68115 21.2571 1.23035 17.7522 1.23035 13.4408V10.2461C1.23035 9.9049 1.50519 9.59473 1.87165 9.59473H15.9802C16.3162 9.59473 16.6215 9.87388 16.6215 10.2461V11.5488H17.0796C18.7592 11.5488 20.164 12.9446 20.164 14.6815C20.164 16.3874 18.7897 17.8142 17.0796 17.8142H15.3389L15.2473 17.9693C13.7815 20.0164 11.4301 21.2571 8.92594 21.2571ZM2.48241 13.4408C2.48241 17.0388 5.38353 19.9854 8.92594 19.9854C10.7582 19.9854 12.4989 19.21 13.7204 17.8142C14.7893 16.6045 15.3695 15.0537 15.3695 13.4408V10.8664H2.48241V13.4408ZM16.6215 13.4408C16.6215 14.3093 16.4689 15.1778 16.194 16.0152L16.0413 16.4805H17.0796C18.0568 16.4805 18.8814 15.674 18.8814 14.6505C18.8814 13.6579 18.0874 12.8205 17.0796 12.8205H16.6215V13.4408Z" fill="white"/>
<path d="M11.6133 1.96484C11.9797 2.02688 12.1935 2.36806 12.0713 2.67823C12.0408 2.74027 12.0103 2.8023 11.9797 2.86433C11.6438 3.42264 11.6744 3.91891 12.0713 4.47721C12.3157 4.84942 12.5905 5.22162 12.7126 5.62484C13.018 6.55535 12.8043 7.3928 12.224 8.16822C12.1019 8.32331 11.9492 8.47839 11.766 8.57144C11.5827 8.66449 11.43 8.57144 11.3079 8.41636C11.1857 8.26127 11.1552 8.07517 11.2468 7.88907C11.3079 7.765 11.3995 7.67195 11.4911 7.54789C12.0713 6.80348 12.0713 5.99704 11.4911 5.28365C11.2163 4.94247 11.0025 4.60128 10.8804 4.16704C10.7277 3.45366 10.8498 2.83332 11.2774 2.27501C11.3079 2.11993 11.4911 2.05789 11.6133 1.96484Z" fill="white"/>
<path d="M9.41462 1.49973C9.38408 1.56176 9.35354 1.65481 9.29247 1.77888C8.95655 2.33718 8.98709 2.86447 9.38408 3.39176C9.68946 3.79498 9.96431 4.1982 10.0865 4.69447C10.2697 5.56294 10.0865 6.30735 9.56731 7.02074C9.4757 7.1448 9.38408 7.26887 9.26193 7.39294C9.10924 7.54802 8.8344 7.57904 8.65117 7.45497C8.46794 7.29989 8.37632 7.05175 8.49848 6.83463C8.55955 6.74158 8.62063 6.61752 8.71224 6.52447C9.32301 5.71803 9.32301 4.9426 8.71224 4.16718C8.28471 3.60888 8.00987 3.01955 8.10148 2.30617C8.13202 1.87193 8.31525 1.46871 8.55955 1.12752C8.68171 0.941421 8.89547 0.879387 9.10924 0.972438C9.32301 1.03447 9.41462 1.18956 9.41462 1.49973Z" fill="white"/>
<path d="M7.46013 6.15215C7.46013 7.20672 7.12421 7.85808 6.57453 8.4474C6.42184 8.6335 6.14699 8.6335 5.96376 8.47842C5.78054 8.32333 5.71946 8.0752 5.84161 7.85808C5.90269 7.73401 5.9943 7.64096 6.08592 7.51689C6.6356 6.77249 6.66614 5.99706 6.08592 5.25266C5.71946 4.78741 5.44462 4.32215 5.41408 3.73283C5.38354 3.17453 5.53623 2.64724 5.90269 2.18199C6.05538 1.96487 6.36076 1.93385 6.54399 2.05792C6.75775 2.213 6.81883 2.46114 6.66614 2.70927C6.45237 3.05046 6.26914 3.39164 6.3913 3.76385C6.45237 4.01198 6.60506 4.29113 6.75775 4.50825C7.15475 5.09757 7.46013 5.68689 7.46013 6.15215Z" fill="white"/>
<path d="M16.988 23.8002H1.23033C0.955486 23.8002 0.711182 23.5211 0.711182 23.1799C0.711182 22.8387 0.955486 22.5596 1.23033 22.5596H16.988C17.2628 22.5596 17.5071 22.8387 17.5071 23.1799C17.5071 23.5211 17.2934 23.8002 16.988 23.8002Z" fill="white"/>
</g>
<defs>
<clipPath id="clip0_413_3296">
<rect width="19.4222" height="22.8905" fill="white" transform="translate(0.711182 0.910156)"/>
</clipPath>
</defs>
</svg>
