<svg width="55" height="55" viewBox="0 0 55 55" fill="none" xmlns="http://www.w3.org/2000/svg">
<g clip-path="url(#clip0_163_1426)">
<path d="M28.6075 55.0007C27.5524 55.0007 26.4973 55.0007 25.4422 55.0007C25.3066 54.9701 25.1709 54.924 25.0353 54.9087C21.2671 54.6479 17.6799 53.666 14.394 51.779C5.51631 46.7162 0.693096 38.984 0.0600489 28.6437C-0.241402 23.6883 0.813677 18.9324 3.19514 14.5907C8.13894 5.58513 15.7506 0.691124 25.8793 0.046773C30.7478 -0.260061 35.4052 0.8292 39.6858 3.23785C47.3125 7.50284 51.9548 14.0077 53.5978 22.7218C53.7937 23.765 53.8841 24.839 54.0198 25.8975C54.0198 26.9715 54.0198 28.0454 54.0198 29.1193C53.9896 29.2727 53.9444 29.4261 53.9293 29.5795C53.6731 33.415 52.6633 37.051 50.8395 40.4108C46.6342 48.1583 40.2585 52.8989 31.7124 54.5712C30.7025 54.7706 29.6475 54.8627 28.6075 55.0007ZM37.5304 11.0928C31.0191 6.52097 20.6642 6.30619 13.4294 13.5935C6.63168 20.4512 6.08907 30.945 10.8972 38.2016C19.7599 29.1653 28.6527 20.1137 37.5304 11.0928ZM43.1374 16.7846C34.2446 25.8362 25.3669 34.8724 16.5042 43.8934C22.6237 48.2811 33.0388 48.8947 40.4846 41.5307C47.2221 34.8878 48.0963 24.3327 43.1374 16.7846Z" fill="white"/>
</g>
<defs>
<clipPath id="clip0_163_1426">
<rect width="54.0351" height="55" fill="white"/>
</clipPath>
</defs>
</svg>
