<svg width="55" height="55" viewBox="0 0 55 55" fill="none" xmlns="http://www.w3.org/2000/svg">
<g clip-path="url(#clip0_163_1428)">
<path d="M27.5071 0C12.3303 0 0 12.3303 0 27.5071C0 42.6698 12.3303 55.0141 27.5071 55.0141C42.6698 55.0141 55.0141 42.6839 55.0141 27.5071C55 12.3303 42.6698 0 27.5071 0ZM27.5071 4.22752C27.8734 4.22752 28.2398 4.24161 28.5921 4.2557C28.7612 4.32616 28.9867 4.48117 28.9867 4.608C29.0008 4.74891 28.7894 4.9462 28.6344 5.04484C28.2539 5.27031 27.8312 5.41122 27.4507 5.63669C27.1266 5.81989 26.8025 6.03126 26.5488 6.299C26.1965 6.66539 26.3093 7.11632 26.8025 7.24315C27.1689 7.34179 27.5775 7.3277 27.958 7.27133C28.6485 7.18678 29.3108 7.03177 30.0013 6.90495C30.1986 6.87677 30.41 6.86267 30.6072 6.87676C31.5937 6.91904 32.0023 7.41225 31.8614 8.37049C31.7909 8.83552 31.65 9.28645 31.5514 9.75148C31.3964 10.4842 31.4246 11.2029 31.7769 11.9075C32.3264 12.9926 32.1292 13.7253 31.0864 14.4017C30.269 14.9231 29.4235 15.4164 28.5498 15.8391C26.3234 16.9242 25.2665 18.7702 25.0269 21.1376C24.9001 22.3777 25.3651 23.505 25.9288 24.5901C25.9429 24.6183 25.957 24.6464 25.9852 24.6746C27.0279 26.4643 27.3239 26.2106 28.7894 25.9992C31.1005 25.661 33.1156 26.267 34.6798 28.0989C35.1871 28.6908 35.6803 29.2685 36.2298 29.804C37.3854 30.9595 38.8227 31.6359 40.401 31.946C41.9652 32.2419 42.2329 33.1297 41.9934 34.4966C41.7397 35.9903 40.9928 37.2867 39.9923 38.3859C39.2877 39.1609 38.5127 39.9078 37.639 40.4574C36.0466 41.472 34.722 42.7261 33.6933 44.3044C32.2982 46.4463 30.2549 47.6441 27.8312 48.2783C27.5212 48.3628 27.183 48.3769 26.8588 48.3487C26.4361 48.3205 26.2247 48.0105 26.3797 47.616C26.5488 47.1791 26.7884 46.7705 27.0279 46.3759C27.9721 44.8258 28.5358 43.163 28.2962 41.317C28.1271 40.0628 27.5775 39.02 26.5065 38.3013C25.8583 37.8645 25.1819 37.4558 24.5337 37.019C22.8709 35.9198 22.5609 34.8066 23.4909 33.0592C23.8855 32.3123 24.4492 31.6641 24.9001 30.9454C25.2242 30.41 25.5342 29.8604 25.7456 29.2826C25.9852 28.6344 25.8583 27.9439 25.661 27.2957C24.9987 25.1396 23.9559 23.2091 22.2086 21.7295C21.1799 20.8699 20.0103 20.433 18.6715 20.8135C17.2624 21.2081 16.0223 20.7994 14.8809 20.0384C12.9785 18.7843 11.7384 17.1215 11.7807 14.7259C11.8089 13.204 12.3444 11.8511 13.204 10.597C13.6408 9.96285 14.0917 9.34282 14.5004 8.6946C14.6413 8.46913 14.754 8.24366 14.8104 8.0041C18.4461 5.6226 22.8145 4.22752 27.5071 4.22752Z" fill="white"/>
</g>
<defs>
<clipPath id="clip0_163_1428">
<rect width="55" height="55" fill="white"/>
</clipPath>
</defs>
</svg>
