<svg width="55" height="55" viewBox="0 0 55 55" fill="none" xmlns="http://www.w3.org/2000/svg">
<g clip-path="url(#clip0_163_1418)">
<path d="M55 25.8867C54.9552 25.5731 54.9104 25.2743 54.8805 24.9606C54.7909 24.3034 54.7012 23.6312 54.5817 22.9739C53.3569 16.267 49.981 10.6056 44.5437 6.1692C40.406 2.79332 35.5961 0.761814 30.2186 0.134438C29.9647 0.104563 29.7108 0.0746877 29.4568 0.0448126L29.1133 0H25.8867C25.5731 0.0448126 25.2594 0.0896252 24.9457 0.1195C24.2735 0.209125 23.5864 0.298751 22.9291 0.418251C15.8039 1.74769 9.90358 5.4522 5.42232 11.4123C2.49457 15.311 0.717002 19.7922 0.134438 24.7664C0.104563 25.0204 0.0746877 25.2743 0.0448126 25.5133L0 25.8867V29.0087C0.0597501 29.3971 0.104563 29.7854 0.149375 30.1738C0.253938 31.0103 0.358501 31.8767 0.507876 32.7132C1.06056 35.9098 2.12113 38.8675 3.61488 41.5114C3.82401 41.8848 3.85388 42.1836 3.71945 42.5869C2.88294 45.0516 2.04644 47.5611 1.23982 49.981C0.896252 51.0117 0.552689 52.0573 0.209125 53.088C0.17925 53.1926 0.1195 53.3121 0.0746877 53.4166C0.0448126 53.4614 0.0298751 53.5212 0 53.5809V55H1.434C1.89707 54.8357 2.36013 54.6863 2.82319 54.522C3.83895 54.1635 4.88457 53.805 5.91526 53.4614C7.90196 52.7892 10.2471 52.0125 12.5625 51.2507C12.6521 51.2208 12.7567 51.2059 12.8612 51.2059C13.0255 51.2059 13.1749 51.2357 13.2795 51.2955C16.9392 53.3569 21.0769 54.5817 25.5581 54.9253C25.6477 54.9253 25.7523 54.9552 25.8419 54.9701C25.8867 54.9851 25.9316 54.9851 25.9764 55H29.0834C29.3821 54.9552 29.6958 54.9104 29.9946 54.8805C30.6518 54.7909 31.324 54.7012 31.9813 54.5817C38.7629 53.3419 44.469 49.9063 48.9204 44.3794C52.2216 40.2865 54.2083 35.5215 54.8207 30.2186C54.8506 29.9647 54.8805 29.7257 54.9104 29.4718L54.9552 29.1133L55 25.8867ZM33.3704 41.8251C33.3406 41.9297 33.2211 42.0492 33.1165 42.079C31.5929 42.6018 30.0842 43.2442 28.5158 43.6027C27.022 43.9462 25.4685 43.8267 24.0196 43.2143C22.3465 42.4973 21.3457 40.9587 21.3905 39.1214C21.4204 37.299 21.9134 35.5663 22.4063 33.8335C22.9441 31.9514 23.4967 30.0543 23.9299 28.1573C24.1241 27.3207 24.1391 26.4245 24.1092 25.5731C24.0644 24.7515 23.6312 24.4079 22.8395 24.2287C21.7042 23.9897 20.6437 24.2137 19.5831 24.5872C19.4487 24.632 19.3142 24.6619 19.1051 24.7067C19.2545 24.0942 19.374 23.5565 19.5234 23.0187C19.5532 22.8843 19.7026 22.7499 19.8221 22.6901C21.4951 22.0329 23.1532 21.3159 24.9606 21.1067C26.5589 20.9275 28.1274 21.032 29.5315 21.9582C30.9655 22.8992 31.4435 24.3034 31.3987 25.9614C31.324 28.3664 30.4278 30.5771 29.8452 32.8626C29.4269 34.5206 28.9639 36.1638 28.6651 37.8368C28.2768 39.8982 29.2477 40.884 31.3389 40.645C32.1456 40.5554 32.9223 40.3313 33.7588 40.1521C33.6393 40.7048 33.5198 41.2575 33.3704 41.8251ZM30.8311 17.3425C28.8593 17.6562 27.0519 16.8645 26.1706 15.1915C25.8718 14.6388 25.7822 13.9666 25.6029 13.3542C25.8419 11.0687 27.8286 9.32102 30.1439 9.45546C32.2501 9.57496 33.9381 10.9791 34.192 12.8164C34.5057 14.9674 33.0119 16.984 30.8311 17.3425Z" fill="white"/>
</g>
<defs>
<clipPath id="clip0_163_1418">
<rect width="55" height="55" fill="white"/>
</clipPath>
</defs>
</svg>
