<svg width="55" height="55" viewBox="0 0 55 55" fill="none" xmlns="http://www.w3.org/2000/svg">
<path d="M27.5 0C12.3048 0 0 12.3048 0 27.5C0 42.6952 12.3048 55 27.5 55C42.6952 55 55 42.6787 55 27.5C55 12.3213 42.6787 0 27.5 0ZM43.0916 31.0676C43.0916 31.3979 42.8108 31.6787 42.4805 31.6787H31.6787V42.4805C31.6787 42.8108 31.3979 43.0916 31.0676 43.0916H23.9159C23.5856 43.0916 23.3048 42.8108 23.3048 42.4805V31.6787H12.5195C12.1892 31.6787 11.9084 31.3979 11.9084 31.0676V23.9159C11.9084 23.5856 12.1892 23.3048 12.5195 23.3048H23.3213V12.5195C23.3213 12.1892 23.6021 11.9084 23.9324 11.9084H31.0841C31.4144 11.9084 31.6952 12.1892 31.6952 12.5195V23.3213H42.497C42.8273 23.3213 43.1081 23.6021 43.1081 23.9324V31.0676H43.0916Z" fill="white"/>
</svg>
