<svg width="21" height="19" viewBox="0 0 21 19" fill="none" xmlns="http://www.w3.org/2000/svg">
<g clip-path="url(#clip0_413_3270)">
<path d="M0.444458 6.57835C0.506499 6.33763 0.547859 6.08645 0.640921 5.84573C1.18895 4.35956 2.79167 3.80486 4.13589 4.62121C5.51112 5.46895 6.04881 7.36329 5.30432 8.76573C4.66323 9.96932 3.18459 10.3775 2.01616 9.66581C1.13725 9.14251 0.640921 8.35756 0.475478 7.34236C0.475478 7.31096 0.454798 7.27957 0.444458 7.24817C0.444458 7.02838 0.444458 6.79813 0.444458 6.57835ZM4.44609 7.25863C4.41507 6.64114 4.12555 6.03412 3.47412 5.63641C2.83303 5.24917 2.0782 5.50035 1.77834 6.19111C1.41643 7.03885 1.78868 8.16917 2.58487 8.62968C3.10187 8.92272 3.66024 8.87039 4.04282 8.48315C4.33235 8.17964 4.44609 7.80286 4.44609 7.25863Z" fill="white"/>
<path d="M20.7111 9.93765C20.5663 10.3458 20.4836 10.7959 20.2768 11.1622C19.7495 12.1041 18.9326 12.6797 17.8469 12.7425C16.6578 12.8158 15.7168 12.0727 15.4376 10.9005C15.0033 9.05851 16.5544 7.10137 18.4156 7.14324C19.5633 7.16417 20.5043 8.00145 20.6801 9.1527C20.6904 9.20503 20.7008 9.25736 20.7214 9.30969C20.7111 9.50855 20.7111 9.72833 20.7111 9.93765ZM16.544 10.2516C16.513 11.1726 17.2575 11.7587 18.1157 11.4971C18.9222 11.2564 19.522 10.4191 19.5116 9.57134C19.5013 8.73407 18.8499 8.2003 18.0433 8.36776C17.2368 8.54568 16.575 9.37249 16.544 10.2516Z" fill="white"/>
<path d="M9.8642 17.4309C8.95427 17.4205 8.11672 17.6402 7.31019 17.9647C5.51101 18.7078 3.53604 17.6821 3.08108 15.7878C2.89495 15.0238 2.95699 14.2493 3.36026 13.5794C4.20815 12.1979 5.01468 10.7746 5.98665 9.48726C7.18611 7.9069 8.84053 7.3208 10.7845 7.67664C12.1701 7.92783 13.2351 8.70231 14.0003 9.88496C14.7344 11.0258 15.4582 12.1665 16.182 13.3178C17.3608 15.2121 16.3888 17.6298 14.2691 18.1217C13.6694 18.2577 13.0593 18.2368 12.4803 17.9961C11.622 17.6612 10.7535 17.41 9.8642 17.4309ZM15.4892 15.0447C15.4996 14.6888 15.4065 14.3435 15.2101 14.04C14.4139 12.784 13.6487 11.4967 12.8008 10.2827C11.3945 8.2732 8.28216 8.28367 6.87591 10.2827C6.01767 11.4967 5.26284 12.784 4.46665 14.04C4.16679 14.5109 4.10475 15.0447 4.25985 15.5784C4.59074 16.7402 5.74883 17.2739 6.89659 16.8448C7.46529 16.6355 8.04434 16.4576 8.63373 16.332C9.61604 16.1227 10.6087 16.175 11.5703 16.4367C12.0356 16.5622 12.4803 16.7402 12.9352 16.8972C14.1864 17.3367 15.4996 16.3843 15.4892 15.0447Z" fill="white"/>
<path d="M11.3222 3.7838C11.2912 4.80946 10.95 5.74093 10.1228 6.46308C9.01637 7.41549 7.52739 7.38409 6.46236 6.37936C5.06644 5.06064 5.0044 2.59068 6.32794 1.1987C7.6308 -0.161873 9.6161 0.0160487 10.6708 1.57548C11.1154 2.23483 11.3119 2.94652 11.3222 3.7838ZM8.2512 5.95025C8.90263 5.95025 9.33692 5.66767 9.65746 5.2281C10.2986 4.32803 10.2882 3.1663 9.67814 2.2453C9.00603 1.25103 7.6825 1.25103 7.02073 2.2453C6.45202 3.10351 6.41066 4.02451 6.86563 4.93505C7.15515 5.53161 7.64114 5.91885 8.2512 5.95025Z" fill="white"/>
<path d="M17.2576 4.61063C17.1956 5.9712 16.7509 6.96547 15.7479 7.64576C14.2797 8.64003 12.4908 8.033 11.8807 6.34798C11.312 4.75715 12.1082 2.81048 13.6075 2.15112C14.9931 1.53363 16.5131 2.18252 17.0198 3.62683C17.1542 3.98267 17.2059 4.36991 17.2576 4.61063ZM16.0582 4.70482C16.0271 4.54783 15.9961 4.29665 15.9134 4.05593C15.6445 3.23958 14.807 2.88374 14.0418 3.26052C13.1112 3.71055 12.6149 4.99787 12.9975 5.98167C13.3387 6.85035 14.1659 7.17479 14.9621 6.71429C15.6962 6.29565 15.9961 5.61536 16.0582 4.70482Z" fill="white"/>
</g>
<defs>
<clipPath id="clip0_413_3270">
<rect width="20.2667" height="17.9282" fill="white" transform="translate(0.444458 0.288086)"/>
</clipPath>
</defs>
</svg>
