<svg width="55" height="55" viewBox="0 0 55 55" fill="none" xmlns="http://www.w3.org/2000/svg">
<path d="M27.5 0C12.3366 0 0 12.3366 0 27.5C0 42.6634 12.3366 55 27.5 55C42.6634 55 55 42.6634 55 27.5C55 12.3366 42.6634 0 27.5 0ZM39.5908 39.8059C39.2221 40.1899 38.838 40.574 38.4539 40.9581C38.0545 41.3575 37.6704 41.757 37.271 42.1564C36.5796 42.8631 35.7346 43.2165 34.6592 43.2165C34.5056 43.2165 34.352 43.2165 34.183 43.2011C31.986 43.0168 30.0196 42.1564 28.5447 41.4344C22.9064 38.6536 18.2821 34.3827 14.7947 28.7444C13.3966 26.486 12.4902 24.3198 11.9986 22.1075L11.9832 22.0461C11.9525 21.8925 11.9218 21.7388 11.9064 21.6006C11.8757 21.324 11.845 21.0475 11.8296 20.7709L11.7989 20.433C11.7682 19.2807 12.1522 18.3282 12.9818 17.5293C13.4427 17.0992 13.8883 16.6383 14.3184 16.2081C14.6257 15.9008 14.933 15.5782 15.2556 15.271C15.6089 14.9176 15.9469 14.7486 16.2696 14.7486C16.4385 14.7486 16.6075 14.7947 16.7765 14.8869C16.9302 14.9637 17.0838 15.0866 17.2221 15.2095C18.3897 16.3771 19.5573 17.5447 20.7249 18.7123L21.2626 19.25C21.324 19.3115 21.3855 19.3729 21.4623 19.4651C21.9385 20.0489 21.9385 20.5559 21.4469 21.0782C20.6941 21.8771 19.8953 22.6453 19.1425 23.3827C18.0824 24.3966 17.9902 24.8729 18.6047 26.1941C19.25 27.5922 20.1564 28.9134 21.5545 30.5265C23.352 32.5852 25.1802 34.1983 27.162 35.4581C27.8687 35.9036 28.5908 36.2723 29.1439 36.5489C29.405 36.6718 29.6662 36.7486 29.912 36.7486C30.3575 36.7486 30.7723 36.5489 31.1564 36.1648C31.6788 35.6578 32.1858 35.1355 32.7081 34.6285C32.9693 34.3673 33.2304 34.1061 33.4916 33.845L33.507 33.8296C33.6145 33.7374 33.7067 33.6299 33.7989 33.5531C34.0754 33.3073 34.3673 33.1844 34.6439 33.1844C34.9358 33.1844 35.2123 33.3226 35.4888 33.5838C36.0573 34.1369 36.6257 34.7053 37.1788 35.2584C37.4092 35.4888 37.6397 35.7193 37.8701 35.9497C38.0391 36.1187 38.2081 36.2877 38.3617 36.4413C38.7612 36.8408 39.176 37.2402 39.5754 37.655C40.3436 38.4078 40.3436 39.0223 39.5908 39.8059ZM26.0405 19.2961C26.0405 18.9735 26.1634 18.6816 26.3785 18.4511C26.5936 18.236 26.8855 18.1131 27.2081 18.1131C27.2849 18.1131 27.3617 18.1131 27.4539 18.1285C30.5419 18.6969 33.0461 20.2947 34.905 22.845C35.8729 24.1816 36.5335 25.7486 36.8715 27.4846C37.0098 28.176 36.6564 28.7751 36.0265 28.9441C35.9344 28.9749 35.8268 28.9749 35.7346 28.9749C35.2123 28.9749 34.7514 28.6061 34.5824 28.0531C34.5056 27.8226 34.4441 27.5922 34.3827 27.3617C34.2444 26.8547 34.1061 26.3324 33.8911 25.8561C32.5545 22.9372 30.2654 21.1243 27.0852 20.4791C26.4092 20.3254 26.0405 19.8953 26.0405 19.2961ZM42.3101 28.6215C42.2025 28.6522 42.1103 28.6676 42.0028 28.6676C41.4804 28.6676 41.0503 28.345 40.912 27.8534C40.8198 27.5154 40.7277 27.162 40.6508 26.8087C40.5587 26.4246 40.4665 26.0251 40.3589 25.6411C39.4064 22.4763 37.5936 19.7877 34.9665 17.6215C32.8156 15.8547 30.3115 14.6872 27.5615 14.1802C26.7165 14.0265 26.3017 13.5964 26.3324 12.9204C26.3631 12.2598 26.8394 11.9679 27.1927 11.8142L27.2235 11.7989H27.7612H27.7765C28.0223 11.8603 28.2682 11.9218 28.514 11.9832C29.0517 12.1215 29.6047 12.2444 30.1425 12.4134C32.6466 13.1816 34.9511 14.4721 36.9637 16.2542C39.0992 18.1285 40.7584 20.3869 41.8645 22.9525C42.4637 24.3352 42.9092 25.7947 43.155 27.3156C43.2779 27.9302 42.9246 28.4679 42.3101 28.6215Z" fill="white"/>
</svg>
