<svg width="55" height="55" viewBox="0 0 55 55" fill="none" xmlns="http://www.w3.org/2000/svg">
<path d="M27.5 0C12.316 0 0 12.316 0 27.5C0 42.684 12.316 55 27.5 55C42.684 55 55 42.684 55 27.5C55 12.316 42.684 0 27.5 0ZM42.5613 15.3834C42.408 15.8742 42.2853 16.3804 42.0859 16.8558C41.8251 17.5153 41.3957 18.0828 40.9202 18.6043C39.7546 19.862 38.589 21.1503 37.408 22.408C37.1166 22.7147 37.0092 23.0368 37.0859 23.4663C37.7914 27.4386 38.4663 31.411 39.1718 35.3834C39.3251 36.273 39.1104 37.0092 38.4663 37.638C38.1902 37.9141 37.9141 38.1902 37.638 38.4663C37.0552 39.0337 36.6258 38.9724 36.2577 38.2515C34.8466 35.5368 33.4356 32.8221 32.0245 30.1227C31.8252 29.7546 31.6411 29.3712 31.4417 29.0031C31.273 28.681 31.1043 28.6503 30.8129 28.8957C30.7362 28.9571 30.6748 29.0184 30.6135 29.0798C28.7883 30.8896 26.9785 32.7147 25.138 34.5092C24.8006 34.8466 24.6626 35.1994 24.7239 35.6595C24.8466 36.5951 24.954 37.5153 25.0613 38.4509C25.1074 38.8497 25.1687 39.2331 25.1994 39.6319C25.2607 40.3681 25.0153 41.0276 24.5092 41.5491C23.8957 42.1779 23.2669 42.7914 22.6534 43.4049C22.5767 43.4816 22.4847 43.5583 22.3926 43.6043C21.9479 43.8497 21.411 43.6196 21.3037 43.1135C20.7975 40.8742 20.3067 38.635 19.7699 36.411C19.6319 35.8129 19.2178 35.3988 18.6196 35.2607C16.3497 34.6932 14.0798 34.1718 11.8098 33.6196C11.227 33.4816 10.9663 32.8528 11.365 32.4233C12.1166 31.6258 12.8834 30.8436 13.6963 30.138C14.2945 29.6166 15.0613 29.6472 15.8282 29.7546C17.0399 29.9233 18.2515 30.0767 19.4632 30.1994C19.8773 30.2454 20.2607 30.1074 20.5521 29.8159C22.4233 27.9601 24.2945 26.1196 26.1656 24.2638C26.4264 24.0184 26.411 23.8344 26.1196 23.6043C25.9816 23.4969 25.8129 23.4049 25.6595 23.3129C22.684 21.7638 19.6933 20.2147 16.7178 18.6656C16.5798 18.589 16.4417 18.5276 16.319 18.4356C16.0429 18.2209 15.9509 17.8528 16.1503 17.592C16.6718 16.9632 17.2086 16.3344 17.9141 15.9202C18.5429 15.5521 19.2331 15.6748 19.908 15.7975C23.8957 16.5031 27.8681 17.2086 31.8558 17.9141C32.1779 17.9755 32.408 17.8528 32.6227 17.638C33.8804 16.4724 35.1534 15.3221 36.3957 14.1411C37.2853 13.3129 38.2822 12.7147 39.4785 12.5153C41.135 12.2393 42.3159 13.2362 42.4693 14.4785C42.4693 14.5092 42.5 14.5399 42.5153 14.5552C42.5613 14.8466 42.5613 15.1227 42.5613 15.3834Z" fill="white"/>
</svg>
