<svg width="20" height="21" viewBox="0 0 20 21" fill="none" xmlns="http://www.w3.org/2000/svg">
<g clip-path="url(#clip0_413_3279)">
<path d="M10.045 18.7686H8.82617V20.8661H10.045V18.7686Z" fill="white"/>
<path d="M10.045 15.6787H8.82617V17.7762H10.045V15.6787Z" fill="white"/>
<path d="M10.045 12.5615H8.82617V14.6591H10.045V12.5615Z" fill="white"/>
<path d="M6.50192 18.7686H5.28308V20.8661H6.50192V18.7686Z" fill="white"/>
<path d="M6.50192 15.6787H5.28308V17.7762H6.50192V15.6787Z" fill="white"/>
<path d="M6.50192 12.5615H5.28308V14.6591H6.50192V12.5615Z" fill="white"/>
<path d="M13.5881 15.6787H12.3693V17.7762H13.5881V15.6787Z" fill="white"/>
<path d="M17.1312 12.5615H15.9124V14.6591H17.1312V12.5615Z" fill="white"/>
<path d="M12.6244 5.07812C12.511 4.59625 12.2276 4.3128 11.774 4.19942C11.774 4.14273 11.774 4.0577 11.774 3.97266C11.774 3.68921 11.774 3.66087 11.774 3.63252C11.5473 1.81844 10.13 1.81844 8.99622 1.81844H1.79659V0.599609H0.577759V4.22777H1.79659V3.00893H8.99622C10.13 3.00893 10.4702 3.00893 10.5835 3.66087C10.5835 3.68921 10.5835 3.83094 10.5835 4.00101C10.5835 4.08604 10.5835 4.17108 10.5835 4.22777C10.1584 4.34115 9.90326 4.65294 9.78988 5.07812C5.08461 5.36157 3.07212 7.11896 3.07212 10.9455V11.5408H19.3421V10.9455C19.3421 8.50786 18.18 5.53164 12.6244 5.07812ZM4.29095 10.3503C4.46102 7.88427 5.7082 6.24026 11.2071 6.24026C15.5723 6.24026 17.8399 7.57248 18.1233 10.3503H4.29095Z" fill="white"/>
<path d="M17.1312 15.6787H15.9124V17.7762H17.1312V15.6787Z" fill="white"/>
<path d="M13.5881 12.5615H12.3693V14.6591H13.5881V12.5615Z" fill="white"/>
<path d="M17.1312 18.7686H15.9124V20.8661H17.1312V18.7686Z" fill="white"/>
<path d="M13.5881 18.7686H12.3693V20.8661H13.5881V18.7686Z" fill="white"/>
</g>
<defs>
<clipPath id="clip0_413_3279">
<rect width="18.7644" height="20.2667" fill="white" transform="translate(0.577759 0.599609)"/>
</clipPath>
</defs>
</svg>
