<svg width="20" height="22" viewBox="0 0 20 22" fill="none" xmlns="http://www.w3.org/2000/svg">
<g clip-path="url(#clip0_413_3306)">
<path d="M12.9198 14.8995C12.9094 14.5818 12.6542 14.3475 12.3209 14.3475C12.0189 14.3475 11.795 14.5141 11.7221 14.7901C11.6908 14.8995 11.696 15.0036 11.696 15.1026C11.696 15.1286 11.696 15.1547 11.696 15.1859C11.6908 15.2796 11.6908 15.3682 11.6908 15.4515C11.6908 15.6285 11.6908 15.7952 11.67 15.9618C11.5086 17.3314 10.9045 18.4718 9.88384 19.3363C8.884 20.1799 7.7696 20.6121 6.56147 20.6121C6.18653 20.6121 5.80117 20.5704 5.41061 20.4871C3.69215 20.1278 2.45797 19.1384 1.74455 17.5553C0.93739 15.7743 1.09361 14.0246 2.21322 12.3687C2.72876 11.6032 3.46302 11.0095 4.38995 10.6085L4.42119 10.5981C4.45244 10.5877 4.47847 10.5721 4.50972 10.5617C4.85862 10.3846 5.00443 10.0513 4.85862 9.72845C4.75447 9.48891 4.55138 9.35352 4.29621 9.35352C4.19727 9.35352 4.08791 9.37434 3.98376 9.42121C2.94748 9.84823 2.08303 10.494 1.41648 11.3376C0.333322 12.6967 -0.130143 14.2746 0.0312886 16.0295C0.151061 17.3106 0.630149 18.477 1.46335 19.4873C2.35903 20.5757 3.48385 21.2995 4.79613 21.638C5.08254 21.7109 5.37416 21.7578 5.66057 21.8046H5.66578C5.79076 21.8254 5.91574 21.8463 6.04072 21.8671L6.06675 21.8723H6.90516H6.91037C6.91037 21.8723 7.31655 21.8098 7.41549 21.7994C8.83193 21.5911 10.0609 20.9766 11.0763 19.9612C12.1178 18.9197 12.7375 17.6595 12.9094 16.217C12.9615 15.79 12.9458 15.3577 12.9302 14.9359L12.9198 14.8995Z" fill="white"/>
<path d="M19.4031 18.2632C19.3198 18.0028 19.0959 17.8466 18.8147 17.8466C18.7418 17.8466 18.6637 17.857 18.5856 17.8831C18.4658 17.9195 18.3512 17.9612 18.2315 17.9976L18.2158 18.0028C18.1638 18.0184 18.1169 18.0393 18.0648 18.0549L16.6275 18.534L16.6067 18.4819L15.7839 16.2948C15.2996 15.0033 14.8153 13.7171 14.3311 12.4256C14.1592 11.9726 14.003 11.8632 13.5239 11.8632H7.43635L7.23846 9.6969H8.74863C9.48809 9.6969 10.2276 9.6969 10.967 9.6969C11.0503 9.6969 11.1805 9.69169 11.3055 9.66045C11.5815 9.58754 11.7429 9.37404 11.7533 9.08242C11.7638 8.79601 11.5659 8.55126 11.2795 8.48877C11.1857 8.46794 11.0764 8.45752 10.9514 8.45752C10.2171 8.45752 9.47768 8.45752 8.74342 8.45752H7.13431L7.09786 8.03572C7.00933 7.08795 6.92601 6.19227 6.85311 5.28096C6.86352 5.27055 6.87915 5.26013 6.87915 5.25492C7.77483 4.86436 8.26434 4.1926 8.33203 3.26567C8.40494 2.30229 7.97792 1.54199 7.10827 1.06291C6.74375 0.865022 6.37402 0.760872 6.00429 0.760872C5.54603 0.755665 5.10339 0.906682 4.6868 1.20872C3.86922 1.79716 3.54636 2.61473 3.75466 3.57812C3.95775 4.51025 4.57223 5.12474 5.5252 5.34345C5.61373 5.36428 5.61373 5.36428 5.61894 5.45802C5.67622 6.17665 5.74392 6.9109 5.8064 7.61391L5.84286 7.98885C5.88972 8.49397 5.93659 8.99389 5.98346 9.49902C6.06678 10.4259 6.15531 11.3789 6.24383 12.3423C6.29591 12.9099 6.499 13.1026 7.0562 13.1026H12.8469C13.05 13.1026 13.2114 13.1026 13.2531 13.1338C13.3 13.1651 13.352 13.3109 13.4249 13.4984C14.1644 15.4668 14.8987 17.43 15.6381 19.3984C15.685 19.5286 15.836 19.9244 16.2526 19.9244C16.3307 19.9244 16.414 19.9088 16.5078 19.8827C17.2681 19.6328 18.0752 19.3672 18.9761 19.0599C19.3354 18.9298 19.5125 18.6121 19.4031 18.2632ZM6.01991 2.01067C6.30632 2.01067 6.58753 2.13044 6.79583 2.33874C7.00413 2.54704 7.11348 2.81783 7.10827 3.09903C7.09786 3.68227 6.60315 4.17698 6.01991 4.17698C5.7335 4.17698 5.4523 4.0572 5.244 3.8437C5.0357 3.6354 4.92634 3.36461 4.93155 3.08341C4.94196 2.49496 5.43147 2.01587 6.01991 2.01067Z" fill="white"/>
</g>
<defs>
<clipPath id="clip0_413_3306">
<rect width="19.4343" height="21.1111" fill="white" transform="translate(0 0.755859)"/>
</clipPath>
</defs>
</svg>
