<svg width="1600" height="996" viewBox="0 0 1600 996" fill="none" xmlns="http://www.w3.org/2000/svg">
<g opacity="0.05">
<path d="M235.064 0.385742L235.064 133.84L107.914 133.84L235.064 0.385742Z" fill="#00A0DC"/>
<path d="M610.968 133.913V0.385742H738.049L610.968 133.913Z" fill="#A3937B"/>
<path d="M608.685 268.276H481.205V135.166L608.685 268.276Z" fill="#49C0B6"/>
<path d="M438.47 346.008H565.95V479.118L438.47 346.008Z" fill="#E2E2E2"/>
<path d="M151.161 479.535V346.008H278.243L151.161 479.535Z" fill="#E2E2E2"/>
<path d="M249.405 293.569V160.041H376.487L249.405 293.569Z" fill="#C9D24F"/>
<path d="M108.424 479.118H-19.0557V346.008L108.424 479.118Z" fill="#A3937B"/>
<path d="M1365.46 479.538L1365.46 346.083L1492.61 346.083L1365.46 479.538Z" fill="#E2E2E2"/>
<path d="M989.557 346.011L989.557 479.538L862.475 479.538L989.557 346.011Z" fill="#E2E2E2"/>
<path d="M991.84 211.651L1119.32 211.651L1119.32 344.761L991.84 211.651Z" fill="#C9D24F"/>
<path d="M1162.05 133.915L1034.57 133.915L1034.57 0.805691L1162.05 133.915Z" fill="#00A0DC"/>
<path d="M1449.36 0.387711L1449.36 133.915L1322.28 133.915L1449.36 0.387711Z" fill="#49C0B6"/>
<path d="M1351.12 186.356L1351.12 319.883L1224.04 319.883L1351.12 186.356Z" fill="#A3937B"/>
<path d="M1492.1 0.806423L1619.58 0.806412L1619.58 133.916L1492.1 0.806423Z" fill="#005282"/>
<path d="M235.064 516.505L235.064 649.96L107.914 649.96L235.064 516.505Z" fill="#E2E2E2"/>
<path d="M610.968 650.032V516.505H738.049L610.968 650.032Z" fill="#E2E2E2"/>
<path d="M608.685 784.396H481.205V651.286L608.685 784.396Z" fill="#8A9A39"/>
<path d="M438.47 862.127H565.95V995.238L438.47 862.127Z" fill="#005282"/>
<path d="M151.161 995.654V862.127H278.243L151.161 995.654Z" fill="#49C0B6"/>
<path d="M249.405 809.687V676.16H376.487L249.405 809.687Z" fill="#E2E2E2"/>
<path d="M108.424 995.238H-19.0557V862.127L108.424 995.238Z" fill="#C9D24F"/>
<path d="M1365.46 995.652L1365.46 862.197L1492.61 862.197L1365.46 995.652Z" fill="#00A0DC"/>
<path d="M989.557 862.125L989.557 995.652L862.475 995.652L989.557 862.125Z" fill="#A3937B"/>
<path d="M991.84 727.764L1119.32 727.764L1119.32 860.874L991.84 727.764Z" fill="#E2E2E2"/>
<path d="M1162.05 650.029L1034.57 650.029L1034.57 516.92L1162.05 650.029Z" fill="#E2E2E2"/>
<path d="M1449.36 516.502L1449.36 650.029L1322.28 650.029L1449.36 516.502Z" fill="#8A9A39"/>
<path d="M1351.12 702.469L1351.12 835.996L1224.04 835.996L1351.12 702.469Z" fill="#49C0B6"/>
<path d="M1492.1 516.92L1619.58 516.92L1619.58 650.029L1492.1 516.92Z" fill="#E2E2E2"/>
</g>
</svg>
