<svg width="26" height="32" viewBox="0 0 26 32" fill="none" xmlns="http://www.w3.org/2000/svg">
<g clip-path="url(#clip0_497_3657)">
<path d="M25.2846 6.3876C23.1141 4.22591 21.1384 2.25028 19.2514 0.354374C19.0033 0.106312 18.7464 0 18.392 0C15.0786 0.00885936 11.7829 0.00885936 8.71761 0.00885936H2.95017C1.134 0.00885936 0 1.134 0 2.95017V19.7475C0 22.8749 0 25.9934 0 29.1207C0 30.8394 1.16058 32 2.87929 32C6.18383 32 9.48837 32 12.7929 32C16.0975 32 19.402 32 22.7065 32C24.4695 32 25.6124 30.866 25.6124 29.1118V23.6279C25.6124 18.2414 25.6124 12.6689 25.6213 7.18494C25.6213 6.866 25.5149 6.61794 25.2846 6.3876ZM1.16944 2.95017C1.16944 1.77187 1.76301 1.16944 2.93245 1.16944H9.701H18.0731V2.48948C18.0731 3.24252 18.0731 3.99557 18.0731 4.73976C18.0819 6.3876 19.2337 7.53931 20.8904 7.54817C21.3068 7.54817 21.7143 7.54817 22.1307 7.54817H24.4518V29.0764C24.4518 30.2193 23.8405 30.8306 22.6977 30.8306H12.0842H2.93245C1.76301 30.8306 1.16944 30.2281 1.16944 29.0498V2.95017ZM22.7331 6.37874C22.4496 6.37874 22.1573 6.37874 21.8649 6.37874C21.4308 6.37874 21.0676 6.37874 20.7309 6.36988C19.9247 6.35216 19.278 5.71429 19.2514 4.91694C19.2337 4.23477 19.2337 3.5526 19.2425 2.89701C19.2425 2.65781 19.2425 2.42746 19.2425 2.19712L23.433 6.37874C23.2027 6.36988 22.9723 6.37874 22.7331 6.37874Z" fill="#8E8E8E"/>
<path d="M9.71872 20.6422C10.5692 21.6699 11.4286 22.6976 12.2879 23.7164C12.4563 23.9202 12.6335 24.0265 12.8195 24.0265C12.9967 24.0265 13.1739 23.9291 13.3333 23.7253C14.4408 22.3964 15.5482 21.0675 16.6556 19.7386C17.2758 18.9944 17.8959 18.2502 18.5161 17.506C18.6401 17.3554 18.7996 17.1162 18.649 16.815C18.5338 16.5847 18.3389 16.4783 18.0288 16.4783C17.7099 16.4783 17.3909 16.4783 17.0631 16.4783H15.5216V14.6622C15.5216 13.3864 15.5216 12.1107 15.5216 10.8349C15.5216 10.3122 15.3178 10.0996 14.7951 10.0996C14.1661 10.0996 13.5371 10.0996 12.9081 10.0996C12.2259 10.0996 11.5526 10.0996 10.8704 10.0996C10.2857 10.0996 10.0997 10.2945 10.0997 10.8881C10.0997 12.1461 10.0997 13.4042 10.0997 14.6622V16.4783H8.6999C8.3278 16.4783 7.96457 16.4783 7.60134 16.4783H7.59248C7.38871 16.4783 7.10521 16.5138 6.96346 16.8327C6.83057 17.1251 6.97232 17.3466 7.11407 17.5238C7.98229 18.5603 8.85051 19.6057 9.71872 20.6422ZM11.2868 16.939V15.9556C11.2868 14.5381 11.2868 13.0675 11.278 11.6323C11.278 11.4728 11.2957 11.3931 11.34 11.3488C11.3843 11.3045 11.4552 11.2868 11.5703 11.2868C11.5792 11.2868 11.5969 11.2868 11.6058 11.2868C11.9779 11.2956 12.3588 11.3045 12.7663 11.3045C13.1562 11.3045 13.5548 11.2956 13.9978 11.2868H14.0332C14.1573 11.2868 14.2281 11.3045 14.2636 11.3488C14.3079 11.3931 14.3256 11.4728 14.3256 11.6057C14.3167 12.9523 14.3167 14.3255 14.3167 15.6544C14.3167 16.062 14.3167 16.4783 14.3167 16.8859C14.3167 17.4972 14.4939 17.6744 15.1229 17.6744H16.7973L12.8018 22.4673L8.80621 17.6744H9.84275C10.082 17.6744 10.3212 17.6744 10.5515 17.6744C11.0919 17.6655 11.2868 17.4706 11.2868 16.939Z" fill="#8E8E8E"/>
</g>
<defs>
<clipPath id="clip0_497_3657">
<rect width="25.6213" height="32" fill="white"/>
</clipPath>
</defs>
</svg>
