<svg width="26" height="32" viewBox="0 0 26 32" fill="none" xmlns="http://www.w3.org/2000/svg">
<g clip-path="url(#clip0_497_3660)">
<path d="M14.3255 16.8774C14.3255 16.4699 14.3255 16.0535 14.3255 15.646C14.3255 14.3171 14.3255 12.9439 14.3343 11.5973C14.3343 11.4644 14.3166 11.3846 14.2723 11.3403C14.228 11.296 14.1571 11.2783 14.042 11.2783H14.0065C13.5636 11.2872 13.156 11.296 12.7751 11.296C12.3675 11.296 11.9866 11.2872 11.6145 11.2783C11.6056 11.2783 11.5879 11.2783 11.5791 11.2783C11.4639 11.2783 11.393 11.296 11.3487 11.3403C11.3044 11.3846 11.2867 11.4732 11.2867 11.6238C11.2956 13.0679 11.2956 14.5297 11.2956 15.9472V16.9306C11.2956 17.4622 11.1007 17.6571 10.5602 17.6571C10.3299 17.6571 10.0907 17.6571 9.85149 17.6571H8.81494L12.8105 22.45L16.8061 17.6571H15.1317C14.5026 17.6659 14.3255 17.4887 14.3255 16.8774Z" fill="#49C0B6"/>
<path d="M25.2846 6.3876C23.1141 4.22591 21.1384 2.25028 19.2514 0.354374C19.0033 0.106312 18.7464 0 18.392 0C15.0786 0.00885936 11.7829 0.00885936 8.71761 0.00885936H2.95017C1.134 0.00885936 0 1.134 0 2.95017V19.7475C0 22.8749 0 25.9934 0 29.1207C0 30.8394 1.16058 32 2.87929 32C6.18383 32 9.48837 32 12.7929 32C16.0975 32 19.402 32 22.7065 32C24.4695 32 25.6124 30.866 25.6124 29.1118V23.6279C25.6124 18.2414 25.6124 12.6689 25.6213 7.18494C25.6213 6.866 25.5149 6.61794 25.2846 6.3876ZM19.2425 2.88815C19.2425 2.64895 19.2425 2.4186 19.2425 2.18826L23.433 6.36988C23.2027 6.36988 22.9723 6.36988 22.7331 6.36988C22.4496 6.36988 22.1573 6.36988 21.8649 6.36988C21.4308 6.36988 21.0676 6.36988 20.7309 6.36102C19.9247 6.3433 19.278 5.70543 19.2514 4.90808C19.2337 4.23477 19.2425 3.5526 19.2425 2.88815ZM7.11406 17.5238C6.96346 17.3466 6.83056 17.1251 6.96345 16.8328C7.1052 16.5138 7.39756 16.4784 7.59247 16.4784H7.60133C7.96456 16.4784 8.3278 16.4784 8.69989 16.4784H10.0997V14.6622C10.0997 13.4042 10.0997 12.1462 10.0997 10.8882C10.0997 10.2946 10.2857 10.0997 10.8704 10.0997C11.5526 10.0997 12.2259 10.0997 12.9081 10.0997C13.5371 10.0997 14.1661 10.0997 14.7951 10.0997C15.3178 10.0997 15.5216 10.3034 15.5216 10.835C15.5216 12.1107 15.5216 13.3865 15.5216 14.6622V16.4784H17.0631C17.3821 16.4784 17.701 16.4784 18.0288 16.4784C18.3389 16.4784 18.5338 16.5847 18.6489 16.8151C18.7996 17.1163 18.6489 17.3555 18.5161 17.5061C17.8959 18.2503 17.2757 18.9945 16.6556 19.7386C15.5482 21.0676 14.4408 22.3965 13.3333 23.7254C13.165 23.9291 12.9967 24.0266 12.8195 24.0266C12.6423 24.0266 12.4651 23.9203 12.2879 23.7165C11.4286 22.6888 10.5781 21.6611 9.71871 20.6423C8.8505 19.6058 7.98228 18.5604 7.11406 17.5238Z" fill="#49C0B6"/>
</g>
<defs>
<clipPath id="clip0_497_3660">
<rect width="25.6213" height="32" fill="white"/>
</clipPath>
</defs>
</svg>
