<svg width="16" height="16" viewBox="0 0 16 16" fill="none" xmlns="http://www.w3.org/2000/svg">
<path d="M7.99301 1.33301C4.31301 1.33301 1.33301 4.31967 1.33301 7.99967C1.33301 11.6797 4.31301 14.6663 7.99301 14.6663C11.6797 14.6663 14.6663 11.6797 14.6663 7.99967C14.6663 4.31967 11.6797 1.33301 7.99301 1.33301ZM12.613 5.33301H10.6463C10.433 4.49967 10.1263 3.69967 9.72634 2.95967C10.953 3.37967 11.973 4.23301 12.613 5.33301ZM7.99967 2.69301C8.55301 3.49301 8.98634 4.37967 9.27301 5.33301H6.72634C7.01301 4.37967 7.44634 3.49301 7.99967 2.69301ZM2.83967 9.33301C2.73301 8.90634 2.66634 8.45967 2.66634 7.99967C2.66634 7.53967 2.73301 7.09301 2.83967 6.66634H5.09301C5.03967 7.10634 4.99967 7.54634 4.99967 7.99967C4.99967 8.45301 5.03967 8.89301 5.09301 9.33301H2.83967ZM3.38634 10.6663H5.35301C5.56634 11.4997 5.87301 12.2997 6.27301 13.0397C5.04634 12.6197 4.02634 11.773 3.38634 10.6663ZM5.35301 5.33301H3.38634C4.02634 4.22634 5.04634 3.37967 6.27301 2.95967C5.87301 3.69967 5.56634 4.49967 5.35301 5.33301ZM7.99967 13.3063C7.44634 12.5063 7.01301 11.6197 6.72634 10.6663H9.27301C8.98634 11.6197 8.55301 12.5063 7.99967 13.3063ZM9.55968 9.33301H6.43967C6.37967 8.89301 6.33301 8.45301 6.33301 7.99967C6.33301 7.54634 6.37967 7.09967 6.43967 6.66634H9.55968C9.61967 7.09967 9.66634 7.54634 9.66634 7.99967C9.66634 8.45301 9.61967 8.89301 9.55968 9.33301ZM9.72634 13.0397C10.1263 12.2997 10.433 11.4997 10.6463 10.6663H12.613C11.973 11.7663 10.953 12.6197 9.72634 13.0397ZM10.9063 9.33301C10.9597 8.89301 10.9997 8.45301 10.9997 7.99967C10.9997 7.54634 10.9597 7.10634 10.9063 6.66634H13.1597C13.2663 7.09301 13.333 7.53967 13.333 7.99967C13.333 8.45967 13.2663 8.90634 13.1597 9.33301H10.9063Z" fill="white"/>
</svg>
