<svg width="25" height="25" viewBox="0 0 25 25" fill="none" xmlns="http://www.w3.org/2000/svg">
<path d="M14.6719 7.42188C13.2266 7.42188 11.7734 7.42188 10.3281 7.42188C9.35937 7.42188 8.72656 8.0625 8.72656 9.03125C8.72656 9.96875 8.72656 10.5156 8.72656 11.4531C8.72656 12.4219 9.35937 13.0625 10.3281 13.0625C11.0547 13.0625 11.7734 13.0625 12.5 13.0625C13.2187 13.0625 13.9375 13.0625 14.6562 13.0625C15.6406 13.0625 16.2734 12.4297 16.2734 11.4531C16.2734 10.5156 16.2734 9.96875 16.2734 9.03125C16.2734 8.0625 15.6406 7.42188 14.6719 7.42188Z" fill="#8E8E8E"/>
<path d="M9.49232 14.5703C9.07826 14.5703 8.73451 14.8984 8.72669 15.3125C8.71888 15.7187 9.06263 16.0703 9.47669 16.0781C9.88294 16.0859 10.2345 15.7422 10.2345 15.3281C10.2423 14.9219 9.90638 14.5781 9.49232 14.5703Z" fill="#8E8E8E"/>
<path d="M15.5234 14.5703C15.1094 14.5703 14.7656 14.9063 14.7656 15.3203C14.7656 15.7344 15.1016 16.0781 15.5156 16.0781C15.9219 16.0859 16.2734 15.7344 16.2734 15.3281C16.2734 14.9219 15.9375 14.5781 15.5234 14.5703Z" fill="#8E8E8E"/>
<path d="M12.5 0C5.59375 0 0 5.59375 0 12.5C0 19.4062 5.59375 25 12.5 25C19.4062 25 25 19.4062 25 12.5C25 5.59375 19.4062 0 12.5 0ZM18.5391 15.8516C18.5391 16.9688 18.1641 17.6172 17.1328 18.1875C17.2734 18.3047 17.3984 18.4062 17.5156 18.5156C17.8516 18.8516 17.8594 19.3125 17.5547 19.6172C17.25 19.9219 16.7891 19.9141 16.4531 19.5781C16.0703 19.2031 15.6953 18.8203 15.3125 18.4453C15.25 18.3906 15.1484 18.3438 15.0703 18.3438C13.3594 18.3359 11.6562 18.3359 9.94531 18.3438C9.86719 18.3438 9.76562 18.3906 9.70312 18.4453C9.30469 18.8281 8.92188 19.2266 8.52344 19.6172C8.28125 19.8594 7.94531 19.9062 7.65625 19.7656C7.38281 19.6328 7.19531 19.3438 7.25 19.0312C7.28125 18.8594 7.375 18.6875 7.47656 18.5469C7.57812 18.4062 7.73438 18.3047 7.88281 18.1797C7.1875 17.8438 6.74219 17.3594 6.5625 16.6641C6.50781 16.4531 6.47656 16.2188 6.47656 16C6.46875 13.5312 6.46875 11.4531 6.47656 8.98438C6.47656 7.10156 7.71875 5.59375 9.55469 5.22656C9.77344 5.17969 10 5.16406 10.2188 5.16406C11.7422 5.15625 13.2734 5.14844 14.7969 5.16406C16.6094 5.17969 18.0938 6.40625 18.4609 8.17188C18.5234 8.46094 18.5391 8.75781 18.5391 9.04688C18.5391 11.4453 18.5391 13.4531 18.5391 15.8516Z" fill="#8E8E8E"/>
</svg>
