<svg width="25" height="25" viewBox="0 0 25 25" fill="none" xmlns="http://www.w3.org/2000/svg">
<path d="M9.30484 12.7969C9.02359 12.7969 8.74234 12.7969 8.46109 12.7969C8.17203 12.7969 7.88297 12.7969 7.60172 12.7969C7.18765 12.8047 6.88297 13.0859 6.87515 13.4688C6.86734 13.8672 7.1564 14.1719 7.57828 14.1797C8.1564 14.1875 8.74234 14.1875 9.32047 14.1797C9.74234 14.1719 10.0392 13.875 10.0314 13.4766C10.0314 13.0859 9.72672 12.7969 9.30484 12.7969Z" fill="#8E8E8E"/>
<path d="M17.4064 12.7969C17.1252 12.7969 16.8439 12.7969 16.5627 12.7969C16.2736 12.7969 15.9845 12.7969 15.7033 12.7969C15.2892 12.8047 14.9845 13.0859 14.9767 13.4688C14.9689 13.8672 15.2502 14.1719 15.6798 14.1875C16.2658 14.2031 16.8517 14.2031 17.4455 14.1875C17.8674 14.1797 18.1564 13.8672 18.1486 13.4766C18.1252 13.0781 17.8205 12.7969 17.4064 12.7969Z" fill="#8E8E8E"/>
<path d="M17.1953 11.4454C16.7813 10.297 16.3594 9.14852 15.9531 7.99227C15.9063 7.85164 15.8203 7.85945 15.7109 7.85945C13.0156 7.85945 11.9922 7.85945 9.29688 7.85945C9.14844 7.85945 9.08594 7.90633 9.03906 8.04695C8.70312 8.99227 8.35937 9.92977 8.01562 10.8751C7.9375 11.0938 7.85938 11.3204 7.77344 11.5626C11.4922 11.5626 13.5156 11.5626 17.2188 11.5626C17.2109 11.5079 17.2031 11.4766 17.1953 11.4454Z" fill="#8E8E8E"/>
<path d="M12.5 0C5.59375 0 0 5.59375 0 12.5C0 19.4062 5.59375 25 12.5 25C19.4062 25 25 19.4062 25 12.5C25 5.59375 19.4062 0 12.5 0ZM20.9766 11.1953C20.8906 11.4531 20.7891 11.5391 20.5078 11.5391C20.0312 11.5391 19.5547 11.5391 19.0781 11.5391C19.0234 11.5391 18.9609 11.5469 18.8672 11.5547C18.9219 11.6016 18.9375 11.625 18.9609 11.6328C19.3672 11.8125 19.5156 12.1406 19.5078 12.5625C19.5 13.8359 19.5078 15.1094 19.5078 16.3828C19.5078 16.9609 19.5078 17.5469 19.5078 18.125C19.5078 18.5391 19.3594 18.6875 18.9453 18.6953C18.3281 18.6953 17.7109 18.6953 17.0938 18.6953C16.6797 18.6953 16.5312 18.5391 16.5312 18.1328C16.5312 17.5625 16.5312 16.9922 16.5312 16.4219C16.5312 16.3594 16.5312 16.2891 16.5312 16.2188C13.2813 16.2188 11.7188 16.2188 8.46875 16.2188C8.46875 16.4531 8.46875 16.6797 8.46875 16.8984C8.46875 17.3203 8.46875 17.7422 8.46875 18.1641C8.46875 18.5312 8.30469 18.6875 7.94531 18.6953C7.30469 18.6953 6.65625 18.6953 6.01562 18.6953C5.64844 18.6953 5.49219 18.5312 5.49219 18.1641C5.49219 16.2812 5.49219 14.4062 5.49219 12.5234C5.49219 12.1094 5.65625 11.8047 6.03906 11.6328C6.05469 11.625 6.07031 11.6172 6.08594 11.6016C6.09375 11.5938 6.09375 11.5781 6.10156 11.5469C6.03906 11.5469 5.98438 11.5391 5.92969 11.5391C5.47656 11.5391 5.02344 11.5391 4.57031 11.5391C4.19531 11.5391 4.10938 11.4766 4.00781 11.1172C3.98438 11.0234 3.95312 10.9297 3.92969 10.8359C3.92969 10.7109 3.92969 10.5938 3.92969 10.4688C3.96875 10.3281 4 10.1875 4.04688 10.0469C4.10156 9.86719 4.22656 9.77344 4.41406 9.76562C4.97656 9.76562 5.53906 9.76562 6.10156 9.76562C6.28906 9.76562 6.40625 9.86719 6.46094 10.0469C6.48438 10.125 6.50781 10.2109 6.54688 10.3281C6.71875 9.84375 6.88281 9.39844 7.04688 8.95312C7.25781 8.375 7.46094 7.80469 7.67188 7.22656C7.89844 6.60938 8.35156 6.28125 9.00781 6.28125C11.8906 6.28125 13.1094 6.28125 15.9922 6.28125C16.6484 6.28125 17.1016 6.60938 17.3281 7.23438C17.6953 8.25 18.0625 9.26562 18.4453 10.3203C18.4844 10.2031 18.5078 10.1172 18.5312 10.0391C18.5859 9.85938 18.7109 9.76562 18.8984 9.76562C19.4609 9.76562 20.0234 9.76562 20.5859 9.76562C20.7734 9.76562 20.8906 9.875 20.9531 10.0469C21.0938 10.4375 21.1094 10.8125 20.9766 11.1953Z" fill="#8E8E8E"/>
</svg>
