<svg width="25" height="25" viewBox="0 0 25 25" fill="none" xmlns="http://www.w3.org/2000/svg">
<path d="M12.5 0C5.59816 0 0 5.59816 0 12.5C0 19.4018 5.59816 25 12.5 25C19.4018 25 25 19.4018 25 12.5C25 5.59816 19.4018 0 12.5 0ZM19.3461 6.99247C19.2764 7.21556 19.2206 7.44562 19.1299 7.66174C19.0114 7.96152 18.8162 8.21946 18.6001 8.4565C18.0703 9.02816 17.5404 9.61378 17.0036 10.1854C16.8712 10.3249 16.8224 10.4713 16.8572 10.6665C17.1779 12.4721 17.4847 14.2777 17.8054 16.0834C17.8751 16.4877 17.7775 16.8224 17.4847 17.1082C17.3592 17.2337 17.2337 17.3592 17.1082 17.4847C16.8433 17.7426 16.6481 17.7147 16.4808 17.3871C15.8394 16.1531 15.198 14.9191 14.5566 13.6921C14.466 13.5248 14.3823 13.3505 14.2917 13.1832C14.215 13.0368 14.1383 13.0229 14.0059 13.1344C13.971 13.1623 13.9431 13.1902 13.9152 13.2181C13.0856 14.0407 12.263 14.8703 11.4264 15.686C11.273 15.8394 11.2103 15.9997 11.2381 16.2089C11.2939 16.6341 11.3427 17.0524 11.3915 17.4777C11.4124 17.659 11.4403 17.8332 11.4543 18.0145C11.4822 18.3491 11.3706 18.6489 11.1405 18.8859C10.8617 19.1718 10.5759 19.4506 10.297 19.7295C10.2621 19.7644 10.2203 19.7992 10.1785 19.8201C9.9763 19.9317 9.73229 19.8271 9.68349 19.597C9.45343 18.5792 9.23034 17.5613 8.98633 16.5505C8.92359 16.2786 8.73536 16.0904 8.46347 16.0276C7.43168 15.7697 6.39989 15.5326 5.3681 15.2817C5.10318 15.2189 4.98466 14.9331 5.16592 14.7379C5.50753 14.3753 5.85611 14.0198 6.2256 13.6991C6.49749 13.4621 6.84607 13.476 7.19465 13.5248C7.7454 13.6015 8.29615 13.6712 8.8469 13.727C9.03514 13.7479 9.20942 13.6852 9.34188 13.5527C10.1924 12.7091 11.0429 11.8726 11.8935 11.029C12.012 10.9175 12.005 10.8338 11.8726 10.7292C11.8098 10.6804 11.7331 10.6386 11.6634 10.5968C10.3109 9.89264 8.95148 9.18851 7.599 8.48438C7.53625 8.44953 7.47351 8.42164 7.41774 8.37981C7.29225 8.28221 7.25042 8.11489 7.34105 7.99637C7.57808 7.71054 7.82209 7.42471 8.14278 7.23648C8.42861 7.06916 8.74233 7.12493 9.04908 7.1807C10.8617 7.50139 12.6673 7.82209 14.4799 8.14278C14.6263 8.17066 14.7309 8.11489 14.8285 8.01729C15.4002 7.48745 15.9788 6.96458 16.5435 6.42777C16.9479 6.05131 17.401 5.77942 17.9448 5.68879C18.6977 5.5633 19.2345 6.01645 19.3042 6.58115C19.3042 6.59509 19.3182 6.60904 19.3252 6.61601C19.3461 6.74847 19.3461 6.87395 19.3461 6.99247Z" fill="#8E8E8E"/>
</svg>
