<svg width="25" height="25" viewBox="0 0 25 25" fill="none" xmlns="http://www.w3.org/2000/svg">
<path d="M12.5 0C5.59375 0 0 5.59375 0 12.5C0 19.4062 5.59375 25 12.5 25C19.4062 25 25 19.4062 25 12.5C25 5.59375 19.4062 0 12.5 0ZM11.0938 6.05469C11.1016 5.58594 11.4219 5.24219 11.8906 5.23438C12.2969 5.22656 12.7109 5.21875 13.1172 5.23438C13.5781 5.25 13.8984 5.59375 13.8984 6.04688C13.9062 6.4375 13.8984 6.82812 13.8984 7.23438C12.9531 7.23438 12.0312 7.23438 11.0938 7.23438C11.0938 6.98438 11.0938 6.74219 11.0938 6.50781C11.0938 6.35156 11.0938 6.20312 11.0938 6.05469ZM8.11719 8.17188C11.0391 8.17188 13.9609 8.17188 16.8828 8.17188C17.1797 8.17188 17.2812 8.27344 17.2812 8.57031C17.2812 9.48438 17.2812 10.4062 17.2812 11.3203C17.2812 11.3672 17.2812 11.4141 17.2812 11.4844C16.7578 11.3516 16.2656 11.2188 15.7734 11.0938C14.7656 10.8281 13.7578 10.5625 12.7422 10.3047C12.5859 10.2656 12.4141 10.2656 12.2578 10.3047C10.7891 10.6797 9.3125 11.0703 7.84375 11.4531C7.8125 11.4609 7.77344 11.4687 7.72656 11.4766C7.72656 11.4219 7.71875 11.3672 7.71875 11.3203C7.71875 10.4062 7.71875 9.48438 7.71875 8.57031C7.71875 8.27344 7.82031 8.17188 8.11719 8.17188ZM20.1016 19.1172C20.0391 19.1328 19.9688 19.1328 19.8984 19.1328C19.3672 19.1328 18.8828 18.9609 18.4219 18.7188C17.9375 18.4688 17.4297 18.4531 16.9062 18.5859C16.7344 18.6328 16.5703 18.7188 16.4062 18.7969C15.4688 19.25 14.5312 19.2656 13.6016 18.7969C13.0547 18.5234 12.5078 18.4375 11.9219 18.5859C11.7422 18.6328 11.5625 18.7266 11.3906 18.8047C10.4688 19.2422 9.53906 19.2656 8.625 18.8047C8.07812 18.5312 7.52344 18.4297 6.92969 18.5859C6.75 18.6328 6.57031 18.7188 6.39844 18.8047C6.00781 19 5.60156 19.1094 5.16406 19.1328C4.8125 19.1484 4.6875 19.0781 4.53906 18.7734C4.53906 18.7031 4.53906 18.625 4.53906 18.5547C4.64844 18.3047 4.83594 18.1953 5.10938 18.2031C5.40625 18.2109 5.6875 18.1328 5.94531 17.9922C6.40625 17.75 6.88281 17.5781 7.4375 17.5859C7.41406 17.5234 7.39844 17.4688 7.375 17.4219C6.84375 16.0703 6.30469 14.7188 5.77344 13.3672C5.66406 13.0938 5.73438 12.9688 6.02344 12.8906C8.14062 12.3359 10.2578 11.7812 12.3672 11.2344C12.4453 11.2109 12.5469 11.2109 12.625 11.2344C14.7422 11.7812 16.8594 12.3359 18.9688 12.8906C19.2656 12.9688 19.3281 13.1016 19.2109 13.3828C18.6797 14.7266 18.1484 16.0625 17.6172 17.4062C17.5938 17.4609 17.5781 17.5078 17.5547 17.5781C17.6875 17.5938 17.8125 17.5859 17.9297 17.6172C18.2344 17.7031 18.5547 17.7734 18.8438 17.9062C19.2188 18.0781 19.5938 18.2188 20.0156 18.2188C20.25 18.2188 20.4375 18.4141 20.4531 18.6406C20.4766 18.8594 20.3281 19.0703 20.1016 19.1172Z" fill="#8E8E8E"/>
</svg>
