<svg width="16" height="16" viewBox="0 0 16 16" fill="none" xmlns="http://www.w3.org/2000/svg">
<path d="M15.4147 3.47915C15.4147 2.45587 14.8785 1.64953 13.978 1.31389C13.7242 1.21975 13.4459 1.1911 13.2085 1.17063C13.1103 1.16244 13.0079 1.15835 12.8769 1.15835C12.7951 1.15835 12.7091 1.15835 12.6273 1.16244C12.5863 1.16244 12.5454 1.16245 12.5045 1.16654V1.16244C12.5045 1.0683 12.5004 0.978255 12.5086 0.892299C12.5372 0.458429 12.3489 0.151443 11.9642 0.00818424L11.9396 0H11.604L11.5753 0.016371C11.3748 0.118699 11.1742 0.2374 11.1046 0.495266C11.076 0.60578 11.0719 0.720387 11.0678 0.826808V0.843181C11.0637 0.949602 11.0637 1.04784 11.0637 1.15835H4.35098C4.35098 1.07649 4.34689 0.99872 4.35508 0.925044C4.39601 0.482987 4.2241 0.176004 3.83525 0.0122789L3.81069 0H3.47915L3.45459 0.00818424C3.06165 0.155536 2.87746 0.450242 2.91021 0.892299C2.9143 0.974162 2.9143 1.06421 2.9143 1.15835V1.16654C2.88974 1.16654 2.86928 1.16654 2.84472 1.16654C2.7342 1.17063 2.62369 1.17063 2.51727 1.17063C2.26759 1.17063 2.00563 1.17063 1.75185 1.22384C0.777692 1.42031 0.0777697 2.23484 0.00818674 3.25403C4.99526e-07 3.35226 0 3.4505 0 3.55692C0 6.93374 0 10.3106 0 13.6874C0 14.637 0.421591 15.341 1.25249 15.7749C1.53901 15.9222 1.85418 16 2.18982 16H4.18317C5.56664 16 6.95421 16 8.33768 16C10.2328 16 11.7841 16 13.2208 15.9959C14.3587 15.9959 15.3164 15.0913 15.4024 13.9412C15.4106 13.847 15.4106 13.7652 15.4106 13.6874V13.1839C15.4147 9.94628 15.4147 6.71271 15.4147 3.47915ZM12.3899 14.551H11.2684H2.33717C1.74367 14.551 1.44487 14.2481 1.44487 13.6546C1.44487 10.2614 1.44487 6.87234 1.44487 3.47915C1.44487 3.00844 1.69864 2.67281 2.09158 2.62369C2.19391 2.61141 2.30443 2.60731 2.4395 2.60731C2.53364 2.60731 2.63188 2.61141 2.73011 2.61141H2.7342C2.79151 2.61141 2.8529 2.6155 2.91021 2.6155V2.65643C2.91021 2.79151 2.90611 2.91839 2.9143 3.05347C2.93067 3.46278 3.23766 3.77385 3.63469 3.77385H3.64287C4.03991 3.76976 4.34689 3.45459 4.35508 3.04119C4.35508 2.95114 4.35508 2.857 4.35508 2.76285V2.6196H11.0678V2.65643C11.0678 2.77923 11.0678 2.90202 11.0678 3.02481C11.0719 3.45459 11.3707 3.76976 11.78 3.77385H11.7882C12.1852 3.77385 12.4963 3.45868 12.5086 3.03709C12.5127 2.9102 12.5127 2.78741 12.5086 2.65234V2.6155C12.5659 2.6155 12.6232 2.61141 12.6764 2.61141H12.6887C12.7787 2.60732 12.881 2.60731 12.9793 2.60731C13.1184 2.60731 13.229 2.61141 13.3354 2.62369C13.6628 2.66053 13.9248 2.93477 13.9698 3.29496C13.978 3.35636 13.9821 3.42184 13.9821 3.5078C13.9821 4.58838 13.9821 6.84779 13.9821 6.84779C13.9821 9.11537 13.9821 11.383 13.9821 13.6505C13.9821 13.9534 13.9043 14.1704 13.7365 14.33C13.5851 14.4733 13.3968 14.5469 13.1798 14.5469C12.9138 14.551 12.6518 14.551 12.3899 14.551Z" fill="#8E8E8E"/>
<path d="M4.30175 8.18231H4.30585C4.55553 8.18231 4.78883 8.07998 4.96484 7.89988C5.14084 7.71979 5.23499 7.48648 5.2268 7.24089C5.21452 6.73744 4.80111 6.32812 4.30175 6.32812H4.29766C3.79421 6.33222 3.3808 6.74562 3.37671 7.24908C3.37671 7.49466 3.47085 7.72797 3.64686 7.90398C3.82695 8.08407 4.05617 8.18231 4.30175 8.18231Z" fill="#8E8E8E"/>
<path d="M4.30585 10.0605C4.06026 10.0605 3.82695 10.1588 3.64686 10.3389C3.47085 10.519 3.37671 10.7523 3.37671 10.9979C3.3808 11.5013 3.7983 11.9106 4.30175 11.9106C4.80521 11.9106 5.22271 11.5013 5.2268 10.9979C5.23089 10.7523 5.13675 10.519 4.96075 10.3389C4.78884 10.1588 4.55143 10.0605 4.30585 10.0605Z" fill="#8E8E8E"/>
<path d="M7.70722 8.18212C7.7154 8.18212 7.72359 8.18212 7.73178 8.18212C7.98146 8.17394 8.21067 8.07161 8.38258 7.89151C8.55449 7.71141 8.64454 7.47401 8.63636 7.22843C8.62408 6.73316 8.21067 6.33203 7.7154 6.33203C7.70722 6.33203 7.69903 6.33203 7.69085 6.33203C7.44117 6.34022 7.21195 6.44255 7.04004 6.62264C6.87222 6.80274 6.78217 7.04014 6.78627 7.28982C6.80264 7.781 7.21604 8.18212 7.70722 8.18212Z" fill="#8E8E8E"/>
<path d="M11.117 10.0605C10.6135 10.0605 10.2001 10.474 10.196 10.9774C10.196 11.2271 10.2902 11.4645 10.4662 11.6364C10.6381 11.8124 10.8714 11.9065 11.117 11.9065C11.6327 11.9065 12.0379 11.5013 12.0379 10.9897C12.0379 10.74 11.9438 10.5026 11.7678 10.3266C11.5959 10.1588 11.3626 10.0605 11.117 10.0605Z" fill="#8E8E8E"/>
<path d="M11.1211 6.33203H11.1088C10.6054 6.34022 10.196 6.75362 10.196 7.25708C10.196 7.50266 10.2902 7.73597 10.4662 7.91198C10.6422 8.08798 10.8714 8.18622 11.117 8.18622H11.1293C11.6409 8.17803 12.042 7.77281 12.042 7.26117C12.042 7.01558 11.9479 6.78227 11.7719 6.60627C11.5959 6.42617 11.3667 6.33203 11.1211 6.33203Z" fill="#8E8E8E"/>
<path d="M7.71148 10.0605H7.70739C7.20393 10.0646 6.79462 10.478 6.79053 10.9815C6.79053 11.2312 6.88467 11.4645 7.06067 11.6405C7.23258 11.8165 7.46589 11.9106 7.71557 11.9106H7.72376C8.22721 11.9065 8.64062 11.4931 8.64062 10.9897C8.64062 10.7441 8.54648 10.5108 8.37047 10.3348C8.19037 10.1588 7.95707 10.0605 7.71148 10.0605Z" fill="#8E8E8E"/>
</svg>
