<svg width="18" height="15" viewBox="0 0 18 15" fill="none" xmlns="http://www.w3.org/2000/svg">
<g clip-path="url(#clip0_497_4048)">
<path d="M0.6048 14.2992C0.2736 14.2992 0 14.0256 0 13.6944V0.5904V0.576C0 0.5472 0 0.5184 0.0144 0.4896C0.0144 0.4752 0.0144 0.4752 0.0288 0.4608L0.0432 0.4176C0.0432 0.4032 0.0576 0.3888 0.0576 0.3744C0.0576 0.36 0.072 0.3456 0.072 0.3312L0.0864 0.288C0.0864 0.2736 0.1008 0.2736 0.1008 0.2592C0.1152 0.2304 0.1296 0.216 0.1584 0.2016C0.1584 0.1872 0.1728 0.1872 0.1728 0.1872C0.2016 0.144 0.2304 0.1296 0.2592 0.1008C0.2592 0.1008 0.2736 0.0864 0.288 0.0864L0.3168 0.072L0.3312 0.0576C0.3456 0.0432 0.36 0.0432 0.3744 0.0432C0.3888 0.0288 0.4176 0.0288 0.432 0.0288L0.4752 0.0144H0.4896C0.5184 0 0.5616 0 0.6048 0H17.3952C17.4384 0 17.4672 0 17.5104 0.0144H17.5248L17.568 0.0288C17.5824 0.0288 17.5968 0.0432 17.6112 0.0432C17.6256 0.0432 17.64 0.0576 17.6544 0.0576L17.6688 0.072L17.6976 0.0864C17.712 0.0864 17.712 0.1008 17.7264 0.1008C17.7552 0.1296 17.784 0.144 17.8128 0.1728C17.8128 0.1728 17.8272 0.1872 17.8416 0.2016C17.856 0.216 17.8848 0.2448 17.8992 0.2592C17.8992 0.2736 17.9136 0.2736 17.9136 0.288L17.928 0.3312C17.928 0.3456 17.9424 0.36 17.9424 0.3744C17.9424 0.3888 17.9568 0.4032 17.9568 0.4176L17.9712 0.4608C17.9712 0.4752 17.9712 0.4752 17.9856 0.4896C17.9856 0.5184 17.9856 0.5472 18 0.576C18 0.5904 18 0.5904 18 0.6048V13.7088C18 14.04 17.7264 14.3136 17.3952 14.3136H0.6048V14.2992ZM1.872 13.104H16.128L10.8576 7.9056L10.4256 8.3376C10.4112 8.352 10.3968 8.352 10.3968 8.36639C10.368 8.3952 10.3536 8.3952 10.3392 8.4096C10.3248 8.4096 10.3248 8.424 10.3104 8.424L10.2672 8.4384C10.2528 8.4384 10.2384 8.4528 10.2384 8.4528C10.224 8.4528 10.2096 8.4672 10.1952 8.4672L10.152 8.4816C10.1376 8.4816 10.1376 8.4816 10.1232 8.496C10.08 8.496 10.0368 8.496 9.9936 8.496H7.992C7.9488 8.496 7.92 8.496 7.8768 8.4816C7.8624 8.4816 7.8624 8.4816 7.848 8.4672L7.8048 8.4528C7.7904 8.4528 7.776 8.4384 7.7616 8.4384C7.7472 8.4384 7.7328 8.424 7.7328 8.424L7.6896 8.4096C7.6752 8.4096 7.6752 8.3952 7.6608 8.3952C7.632 8.3808 7.6176 8.3664 7.5888 8.3376L7.5744 8.3232L7.1424 7.8912L1.872 13.104ZM11.7072 7.056L16.7904 12.0672V2.0448L11.7072 7.056ZM1.2096 12.0672L6.2928 7.056L1.2096 2.0448V12.0672ZM8.2512 7.3008H9.7632L15.9408 1.2096H2.0736L8.2512 7.3008Z" fill="white"/>
</g>
<defs>
<clipPath id="clip0_497_4048">
<rect width="18" height="14.2992" fill="white"/>
</clipPath>
</defs>
</svg>
