<svg width="16" height="13" viewBox="0 0 16 13" fill="none" xmlns="http://www.w3.org/2000/svg">
<g clip-path="url(#clip0_314_3397)">
<path d="M0.507553 12.4453C0.229607 12.4453 0 12.2157 0 11.9378V0.94078V0.928696C0 0.904527 0 0.880358 0.0120846 0.856188C0.0120846 0.844104 0.0120846 0.844104 0.0241692 0.832019L0.0362538 0.795765C0.0362538 0.783681 0.0483384 0.771596 0.0483384 0.759512C0.0483384 0.747427 0.060423 0.735343 0.060423 0.723258L0.0725075 0.687004C0.0725075 0.67492 0.0845921 0.67492 0.0845921 0.662835C0.0966767 0.638666 0.108761 0.626581 0.132931 0.614497C0.132931 0.602412 0.145015 0.602412 0.145015 0.602412C0.169184 0.566158 0.193353 0.554074 0.217523 0.529905C0.217523 0.529905 0.229607 0.51782 0.241692 0.51782L0.265861 0.505735L0.277946 0.493651C0.29003 0.481566 0.302115 0.481566 0.314199 0.481566C0.326284 0.469482 0.350453 0.469482 0.362538 0.469482L0.398791 0.457397H0.410876C0.435045 0.445312 0.471299 0.445312 0.507553 0.445312H14.5982C14.6344 0.445312 14.6586 0.445312 14.6949 0.457397H14.7069L14.7432 0.469482C14.7553 0.469482 14.7674 0.481566 14.7795 0.481566C14.7915 0.481566 14.8036 0.493651 14.8157 0.493651L14.8278 0.505735L14.852 0.51782C14.864 0.51782 14.864 0.529905 14.8761 0.529905C14.9003 0.554074 14.9245 0.566158 14.9486 0.590328C14.9486 0.590328 14.9607 0.602412 14.9728 0.614497C14.9849 0.626581 15.0091 0.65075 15.0211 0.662835C15.0211 0.67492 15.0332 0.67492 15.0332 0.687004L15.0453 0.723258C15.0453 0.735343 15.0574 0.747427 15.0574 0.759512C15.0574 0.771596 15.0695 0.783681 15.0695 0.795765L15.0816 0.832019C15.0816 0.844104 15.0816 0.844104 15.0937 0.856188C15.0937 0.880358 15.0937 0.904527 15.1057 0.928696C15.1057 0.94078 15.1057 0.94078 15.1057 0.952865V11.9498C15.1057 12.2278 14.8761 12.4574 14.5982 12.4574H0.507553V12.4453ZM1.571 11.4423H13.5347L9.11178 7.07975L8.74924 7.44229C8.73716 7.45437 8.72507 7.45437 8.72507 7.46646C8.7009 7.49063 8.68882 7.49063 8.67674 7.50271C8.66465 7.50271 8.66465 7.51479 8.65257 7.51479L8.61631 7.52688C8.60423 7.52688 8.59214 7.53896 8.59214 7.53896C8.58006 7.53896 8.56798 7.55105 8.55589 7.55105L8.51964 7.56313C8.50755 7.56313 8.50755 7.56313 8.49547 7.57522C8.45921 7.57522 8.42296 7.57522 8.38671 7.57522H6.70695C6.67069 7.57522 6.64652 7.57522 6.61027 7.56313C6.59819 7.56313 6.59819 7.56313 6.5861 7.55105L6.54985 7.53896C6.53776 7.53896 6.52568 7.52688 6.51359 7.52688C6.50151 7.52688 6.48943 7.51479 6.48943 7.51479L6.45317 7.50271C6.44109 7.50271 6.44109 7.49063 6.429 7.49063C6.40483 7.47854 6.39275 7.46646 6.36858 7.44229L6.35649 7.4302L5.99396 7.06766L1.571 11.4423ZM9.82477 6.36676L14.0906 10.5722V2.16132L9.82477 6.36676ZM1.01511 10.5722L5.28097 6.36676L1.01511 2.16132V10.5722ZM6.92447 6.5722H8.19335L13.3776 1.46042H1.74018L6.92447 6.5722Z" fill="#484848"/>
</g>
<defs>
<clipPath id="clip0_314_3397">
<rect width="15.1057" height="12" fill="white" transform="translate(0 0.445312)"/>
</clipPath>
</defs>
</svg>
