<svg width="96" height="96" viewBox="0 0 96 96" fill="none" xmlns="http://www.w3.org/2000/svg">
<circle cx="48" cy="48" r="48" fill="white"/>
<g clip-path="url(#clip0_382_1138)">
<path d="M61.9859 35.2356C61.9859 30.8917 60.4424 27.2109 57.0961 24.3962C53.1215 21.0807 48.5459 20.1741 43.6015 21.7709C39.2034 23.1918 36.2805 26.2095 34.7371 30.5263C34.0678 32.4073 33.9039 34.3695 34.0405 36.3452C34.1498 37.9014 35.3517 39.1735 36.8132 39.4306C38.4385 39.7148 39.941 38.957 40.6649 37.509C41.0883 36.6429 40.9927 35.7092 41.0063 34.8025C41.0746 31.5142 43.3966 28.74 46.6063 28.0905C49.8161 27.4409 53.0805 29.0919 54.3917 32.1231C55.4571 34.586 55.2112 36.67 53.1624 38.4563C51.6737 39.7554 49.9527 40.6485 48.0951 41.2575C45.6639 42.0694 43.1917 42.7054 40.7332 43.4497C39.1078 43.9369 37.5098 44.4781 36.0893 45.4254C34.86 46.2373 34.0132 47.3064 34.0132 48.8762C34.0132 56.4949 34.0132 61.9349 34.0132 69.5536C34.0132 70.8662 34.4639 72.03 35.42 72.9637C36.1849 73.7215 37.141 74.0734 38.1654 74.2899C44.7215 74.2899 51.2776 74.2899 57.8337 74.2899C57.861 74.2763 57.902 74.2493 57.9293 74.2357C60.3332 73.911 62.0132 71.8947 61.9995 69.2153C61.9585 57.1715 61.9859 47.2929 61.9859 35.2356ZM48.1088 66.2111H40.4737V65.1826L44.6942 59.7426C44.9946 59.3772 45.2815 59.0389 45.582 58.6871C45.6776 58.5653 45.7868 58.457 45.8824 58.3353H40.8561V56.9008H48.0268L48.0132 57.9969L43.8473 63.3558C43.5059 63.8159 43.1507 64.2489 42.6727 64.7766H48.1088V66.2111ZM56.8502 58.9713H51.5781V58.1323L54.378 54.5191C54.5829 54.2756 54.7605 54.059 54.9654 53.8155L54.9927 53.7749H51.8239V52.5975H56.8093L56.7956 53.4907L54.0229 57.0632C53.8454 57.3068 53.6541 57.5368 53.422 57.8075H56.8502V58.9713Z" fill="#005282"/>
</g>
<defs>
<clipPath id="clip0_382_1138">
<rect width="28" height="53.2903" fill="white" transform="translate(34 21)"/>
</clipPath>
</defs>
</svg>
