<svg width="96" height="96" viewBox="0 0 96 96" fill="none" xmlns="http://www.w3.org/2000/svg">
<circle cx="48" cy="48" r="48" fill="white"/>
<path d="M35.9947 50.7725C33.8831 50.7725 32.1426 52.4646 32.1426 54.5609C32.1426 56.632 33.8447 58.3368 35.9435 58.3494C38.0679 58.362 39.8084 56.6825 39.8212 54.5862C39.8339 52.5025 38.1191 50.7851 35.9947 50.7725Z" fill="#49C0B6"/>
<path d="M69 62.0491C69 58.1091 69 40.2653 69 36.3253C69 31.8549 65.647 28.5589 61.1167 28.5589C55.2298 28.5589 49.3429 28.5589 43.456 28.5589C43.2896 28.5589 43.1104 28.5589 42.8929 28.5589C42.8929 32.1201 42.8929 35.6308 42.8929 39.1288C38.2601 39.1288 33.6786 39.1288 29.0842 39.1288C29.0842 38.9015 29.0842 38.7121 29.0842 38.5226C29.0842 34.3048 29.0842 30.0996 29.0842 25.8818C29.0842 25.7302 29.097 25.566 29.0714 25.4145C29.0074 24.6947 28.4315 24.1138 27.7149 24.0254C26.9854 23.9244 26.3071 24.3537 26.0896 25.0609C26.0256 25.263 26 25.4903 26 25.705C26 33.1556 26 40.6063 26 48.057C26 48.1454 26 48.2338 26 48.3095C26 55.6339 26 62.9583 26 70.2827C26 70.3711 26 70.4721 26 70.5605C26.064 71.2046 26.4095 71.6466 27.011 71.8865C28.022 72.278 29.0586 71.5203 29.0714 70.3964C29.0842 68.4263 29.0714 66.4563 29.0714 64.4484C41.3827 64.4484 53.6429 64.4484 65.9286 64.4484C65.9286 64.6505 65.9286 64.8273 65.9286 65.0041C65.9286 66.7973 65.9286 68.6031 65.9286 70.3964C65.9286 70.9773 66.1589 71.4445 66.658 71.7476C67.1571 72.0633 67.6946 72.0759 68.2065 71.7855C68.7568 71.4824 69 70.9899 69 70.3711C69 67.6055 69 64.8273 69 62.0617V62.0491ZM43.456 50.772C43.2896 50.772 43.1104 50.772 42.8929 50.772C42.8929 54.3332 42.8929 57.8439 42.8929 61.3419C38.2601 61.3419 33.6786 61.3419 29.0842 61.3419C29.0842 61.1146 29.0842 60.9252 29.0842 60.7357C29.0842 56.5179 29.0842 52.3127 29.0842 48.0949C29.0842 47.9686 29.0842 47.8423 29.0842 47.716C29.097 45.8975 29.0842 44.0664 29.0842 42.2227C41.3955 42.2227 53.6557 42.2227 65.9414 42.2227C65.9414 42.4248 65.9414 42.6016 65.9414 42.7784C65.9414 43.675 65.9414 47.9686 65.9414 52.2874C64.636 51.3277 62.9723 50.7847 61.1167 50.772C55.2298 50.772 49.3429 50.772 43.456 50.772Z" fill="#49C0B6"/>
<path d="M35.9435 36.1229C38.0679 36.1355 39.8084 34.4559 39.8212 32.3596C39.8339 30.2633 38.1191 28.5459 36.0075 28.5459C33.8831 28.5459 32.1426 30.2381 32.1426 32.3344C32.1426 34.4054 33.8447 36.1102 35.9435 36.1229Z" fill="#49C0B6"/>
</svg>
