<svg width="96" height="96" viewBox="0 0 96 96" fill="none" xmlns="http://www.w3.org/2000/svg">
<circle cx="48" cy="48" r="48" fill="white"/>
<g clip-path="url(#clip0_382_1140)">
<path d="M33.1651 49.1132C33.1651 48.1424 33.1651 47.2109 33.1651 46.2795C33.1651 44.9544 33.1651 43.6294 33.1651 42.2912C33.1651 42.0026 33.1519 41.8058 32.8075 41.7008C32.3174 41.5434 32.0923 41.1629 32.0923 40.6382C32.0923 36.3612 32.079 32.0843 32.1055 27.7943C32.1188 25.892 33.9863 24.567 35.8539 25.1311C37.9863 25.7871 40.1452 26.3249 42.3572 26.6529C47.0194 27.322 51.6684 27.1908 56.2645 26.1675C57.483 25.892 58.7015 25.5509 59.8936 25.1836C62.0393 24.5276 63.8804 25.8133 63.8804 28.0436C63.8804 32.1893 63.8804 36.335 63.8936 40.4938C63.8936 41.1104 63.6684 41.5303 63.0856 41.7664C62.9797 41.8058 62.834 41.9501 62.834 42.0419C62.8207 44.3903 62.8207 46.7255 62.8207 49.087C63.1386 49.1395 63.43 49.1657 63.7214 49.2444C64.9267 49.5593 65.8671 50.6351 65.9863 51.7765C66.1188 53.154 65.5095 54.3216 64.3042 54.8989C63.9863 55.0563 63.8936 55.2269 63.8936 55.5548C63.9068 60.2122 63.9068 64.8696 63.9068 69.5269C63.9068 69.645 63.9068 69.75 63.9068 69.868C63.8936 70.9832 63.1651 71.4424 62.1585 70.9438C59.0459 69.4089 55.9466 67.8739 52.8472 66.3389C51.377 65.6174 49.9201 64.8958 48.4631 64.1611C48.1452 64.0037 47.9068 64.0168 47.589 64.1611C43.0856 66.4045 38.5691 68.6348 34.0658 70.8651C33.9068 70.9438 33.7479 71.0357 33.5757 71.0881C32.9002 71.3243 32.2512 70.9176 32.1452 70.2092C32.1188 70.0517 32.132 69.8812 32.132 69.7237C32.132 65.0008 32.132 60.2778 32.132 55.5548C32.132 55.2925 32.1452 55.0825 31.8141 54.9382C30.4896 54.3479 29.8274 53.049 30.079 51.6846C30.3704 50.1759 31.4035 49.2576 32.9267 49.1395C32.9664 49.1395 33.0327 49.1264 33.1651 49.1132ZM60.6883 42.4093C52.1982 45.0856 43.7479 45.0856 35.2976 42.4093C35.2976 44.8757 35.2976 47.2503 35.2976 49.6511C43.7744 51.9601 52.238 51.9733 60.6883 49.6511C60.6883 47.2241 60.6883 44.8626 60.6883 42.4093ZM34.2512 57.1423C34.2512 60.9338 34.2512 64.6334 34.2512 68.4118C38.0525 66.5226 41.8009 64.6728 45.6287 62.7705C41.8141 60.8813 38.0658 59.0183 34.2512 57.1423ZM50.3704 62.7705C54.2115 64.6728 57.9466 66.5226 61.7347 68.3987C61.7347 64.6072 61.7347 60.9075 61.7347 57.1423C57.9333 59.0183 54.1982 60.8682 50.3704 62.7705ZM38.3572 56.8143C38.5029 56.893 38.6353 56.9717 38.781 57.0373C41.7082 58.4805 44.6353 59.9367 47.5492 61.393C47.8671 61.5504 48.1055 61.5504 48.4234 61.393C51.3638 59.9236 54.3042 58.4805 57.2446 57.0242C57.377 56.9586 57.4962 56.8799 57.6287 56.8143C51.2049 58.0082 44.7943 58.0082 38.3572 56.8143Z" fill="#C9D24F"/>
</g>
<defs>
<clipPath id="clip0_382_1140">
<rect width="36" height="46.1538" fill="white" transform="translate(30 25)"/>
</clipPath>
</defs>
</svg>
