<svg width="17" height="18" viewBox="0 0 17 18" fill="none" xmlns="http://www.w3.org/2000/svg">
<g clip-path="url(#clip0_314_3399)">
<path d="M13.3524 10.9859C13.0698 10.6797 12.6812 10.5031 12.2691 10.5031C11.9158 10.5031 11.5744 10.6326 11.3271 10.8681L10.8561 11.292C10.703 11.4333 10.4911 11.5157 10.2791 11.5157C10.2556 11.5157 10.2438 11.5157 10.2203 11.5157C9.973 11.504 9.7375 11.3862 9.57265 11.1978L5.59277 6.84115C5.42793 6.65276 5.33373 6.41726 5.33373 6.16999C5.33373 5.92272 5.4397 5.699 5.61632 5.54593L6.08731 5.12203C6.36991 4.86299 6.53476 4.50975 6.54653 4.12118C6.55831 3.74438 6.41701 3.37937 6.15796 3.09677L3.73236 0.435667C3.47331 0.164847 3.10829 0 2.7315 0C2.4018 0 2.09566 0.117748 1.86016 0.341469L1.24787 0.894884C0.447188 1.62492 -0.388822 2.9908 0.199918 5.32221C0.682684 7.2415 2.04856 9.44338 4.25045 11.8572L4.46239 12.0809C6.6525 14.5065 8.71309 16.0608 10.5971 16.7084C11.2564 16.9439 11.8923 17.0617 12.4928 17.0617C13.4937 17.0617 14.4003 16.7202 15.1068 16.0608L15.7191 15.5074C16.249 15.0246 16.2843 14.1768 15.7897 13.6352L13.3524 10.9859ZM5.2984 4.27425L4.82741 4.69814C4.42707 5.06316 4.19157 5.56948 4.1798 6.12289C4.15625 6.67631 4.35642 7.20617 4.73321 7.61829L8.71309 11.975C9.08989 12.3871 9.5962 12.6344 10.1496 12.6697C10.1967 12.6697 10.232 12.6697 10.2791 12.6697C10.7855 12.6697 11.2682 12.4813 11.645 12.1398L12.116 11.7159C12.1631 11.6806 12.222 11.657 12.2809 11.657C12.3633 11.657 12.4457 11.6924 12.5046 11.763L14.9302 14.4123C15.0008 14.483 15.0008 14.589 14.942 14.6478L14.3297 15.2013C13.8234 15.6605 13.1993 15.896 12.481 15.896C10.5617 15.896 8.01838 14.2593 5.31018 11.3038L5.09823 11.0801C3.06119 8.84287 1.75419 6.75873 1.31852 5.03961C0.965279 3.62664 1.21255 2.49626 2.02501 1.74267L2.6373 1.18925C2.66085 1.1657 2.69617 1.15393 2.7315 1.15393C2.7786 1.15393 2.83747 1.17748 2.8728 1.22458L5.2984 3.87391C5.35728 3.93278 5.38083 4.0152 5.38083 4.08585C5.38083 4.1565 5.3455 4.22715 5.2984 4.27425Z" fill="#484848"/>
<path d="M8.06519 3.16797C7.74727 3.16797 7.5 3.42701 7.5 3.73316C7.5 4.0393 7.75905 4.29835 8.06519 4.29835C10.585 4.29835 12.6456 6.34716 12.6456 8.87874C12.6456 9.19666 12.9046 9.44393 13.2108 9.44393C13.5169 9.44393 13.776 9.18489 13.776 8.87874C13.7877 5.73487 11.2208 3.16797 8.06519 3.16797Z" fill="#484848"/>
<path d="M7.98316 1.39015C11.9277 1.39015 15.1305 4.59289 15.1305 8.53745C15.1305 8.85536 15.3895 9.10264 15.6956 9.10264C16.0018 9.10264 16.2608 8.84359 16.2608 8.53745C16.2608 3.96883 12.5518 0.259766 7.98316 0.259766C7.66524 0.259766 7.41797 0.518811 7.41797 0.824956C7.41797 1.1311 7.66524 1.39015 7.98316 1.39015Z" fill="#484848"/>
</g>
<defs>
<clipPath id="clip0_314_3399">
<rect width="16.261" height="17.0617" fill="white"/>
</clipPath>
</defs>
</svg>
