<svg width="18" height="18" viewBox="0 0 18 18" fill="none" xmlns="http://www.w3.org/2000/svg">
<g clip-path="url(#clip0_497_4050)">
<path d="M14.0866 11.5901C13.7884 11.2671 13.3785 11.0807 12.9437 11.0807C12.5711 11.0807 12.2108 11.2174 11.9499 11.4658L11.453 11.913C11.2916 12.0621 11.068 12.1491 10.8443 12.1491C10.8195 12.1491 10.8071 12.1491 10.7822 12.1491C10.5214 12.1366 10.2729 12.0124 10.099 11.8137L5.90025 7.21739C5.72633 7.01863 5.62696 6.77019 5.62696 6.50932C5.62696 6.24845 5.73876 6.01242 5.92509 5.85093L6.42199 5.40373C6.72012 5.13043 6.89404 4.75776 6.90646 4.34783C6.91888 3.95031 6.76981 3.56522 6.49652 3.26708L3.93751 0.459627C3.66422 0.173913 3.27913 0 2.88161 0C2.53379 0 2.21081 0.124224 1.96236 0.360248L1.3164 0.944099C0.471675 1.71429 -0.410313 3.15528 0.210805 5.61491C0.720122 7.63975 2.16112 9.96273 4.4841 12.5093L4.7077 12.7453C7.01826 15.3043 9.19217 16.9441 11.1798 17.6273C11.8754 17.8758 12.5462 18 13.1798 18C14.2357 18 15.1922 17.6398 15.9375 16.9441L16.5835 16.3602C17.1425 15.8509 17.1798 14.9565 16.658 14.3851L14.0866 11.5901ZM5.58969 4.50932L5.09279 4.95652C4.67043 5.34162 4.42199 5.87578 4.40956 6.45963C4.38472 7.04348 4.5959 7.60248 4.99341 8.03727L9.19217 12.6335C9.58969 13.0683 10.1239 13.3292 10.7077 13.3665C10.7574 13.3665 10.7947 13.3665 10.8443 13.3665C11.3785 13.3665 11.8878 13.1677 12.2853 12.8075L12.7822 12.3602C12.8319 12.323 12.894 12.2981 12.9562 12.2981C13.0431 12.2981 13.1301 12.3354 13.1922 12.4099L15.7512 15.205C15.8257 15.2795 15.8257 15.3913 15.7636 15.4534L15.1176 16.0373C14.5835 16.5217 13.9251 16.7702 13.1673 16.7702C11.1425 16.7702 8.45925 15.0435 5.60211 11.9255L5.37851 11.6894C3.22944 9.32919 1.85056 7.13043 1.39093 5.31677C1.01826 3.82609 1.27913 2.63354 2.13627 1.83851L2.78223 1.25466C2.80708 1.22981 2.84435 1.21739 2.88161 1.21739C2.9313 1.21739 2.99341 1.24224 3.03068 1.29193L5.58969 4.08696C5.6518 4.14907 5.67664 4.23602 5.67664 4.31056C5.67664 4.38509 5.63938 4.45963 5.58969 4.50932Z" fill="white"/>
<path d="M8.50936 3.3418C8.17396 3.3418 7.91309 3.61509 7.91309 3.93807C7.91309 4.26105 8.18638 4.53434 8.50936 4.53434C11.1677 4.53434 13.3417 6.69583 13.3417 9.36664C13.3417 9.70204 13.6149 9.96291 13.9379 9.96291C14.2609 9.96291 14.5342 9.68962 14.5342 9.36664C14.5466 6.04987 11.8386 3.3418 8.50936 3.3418Z" fill="white"/>
<path d="M8.42245 1.46598C12.5839 1.46598 15.9628 4.84487 15.9628 9.00636C15.9628 9.34176 16.2361 9.60263 16.5591 9.60263C16.8821 9.60263 17.1554 9.32934 17.1554 9.00636C17.1554 4.18648 13.2423 0.273438 8.42245 0.273438C8.08704 0.273438 7.82617 0.54673 7.82617 0.869711C7.82617 1.19269 8.08704 1.46598 8.42245 1.46598Z" fill="white"/>
</g>
<defs>
<clipPath id="clip0_497_4050">
<rect width="17.1553" height="18" fill="white"/>
</clipPath>
</defs>
</svg>
