<svg width="96" height="96" viewBox="0 0 96 96" fill="none" xmlns="http://www.w3.org/2000/svg">
<circle cx="48" cy="48" r="48" fill="white"/>
<g clip-path="url(#clip0_382_1139)">
<path d="M35.6229 71.8257C35.3444 71.53 34.9834 71.2751 34.7875 70.9284C34.1067 69.6639 33.4673 68.3892 32.8381 67.0941C32.6937 66.7984 32.6112 66.4415 32.6112 66.1152C32.6009 62.0566 32.6009 57.9878 32.6112 53.9292C32.6112 53.6131 32.5287 53.4499 32.2193 53.2969C27.9389 51.2677 25.412 46.6074 26.1133 42.0797C26.8559 37.2665 30.4762 33.6057 35.2207 32.8612C35.3135 32.851 35.4063 32.8001 35.4992 32.8102C36.6028 32.9632 37.005 32.3208 37.4485 31.4336C40.0271 26.2941 45.6689 23.3776 51.3932 24.1016C57.0969 24.8256 62.0477 29.4349 63.0997 35.0435C63.2751 36.0021 63.3266 36.9912 63.3885 37.96C63.4401 38.7146 63.8423 39.2143 64.4921 39.2041C65.1522 39.2041 65.5957 38.7044 65.5751 37.9396C65.5442 36.93 65.4617 35.9307 65.4101 34.9211C67.9577 34.4418 69.9483 36.2162 69.9895 38.5004C70.0102 39.4386 69.9895 40.3666 69.9895 41.3047C69.9895 46.5666 69.9895 51.8285 69.9895 57.0802C69.9895 58.9565 68.9169 60.3842 67.1841 60.8125C66.8334 60.8941 66.4724 60.9348 66.1114 60.9348C63.5639 60.945 61.0163 60.9552 58.4584 60.9348C56.4677 60.9246 54.9928 59.7417 54.6525 57.9164C54.6009 57.6105 54.6009 57.2944 54.6009 56.9884C54.6009 55.1223 54.6009 53.2562 54.6009 51.39C53.7242 51.6042 52.8784 51.8489 52.0224 52.0121C49.6501 52.4506 47.3191 52.2364 45.0603 51.4206C44.7509 51.3084 44.5756 51.3696 44.3177 51.5634C43.5338 52.1548 42.719 52.7259 41.8733 53.2154C41.502 53.4295 41.3782 53.6335 41.3885 54.0414C41.4091 55.1937 41.3885 56.346 41.3988 57.4983C41.4091 57.9368 41.2647 58.2835 40.945 58.5792C40.5118 58.9769 40.0889 59.395 39.6042 59.8641C40.0889 60.323 40.5428 60.7309 40.9759 61.1592C41.5432 61.7302 41.5535 62.3013 40.9863 62.8724C40.5634 63.3109 40.1096 63.7188 39.6042 64.198C40.0889 64.6467 40.5428 65.0546 40.9656 65.4829C41.5535 66.0744 41.5535 66.6454 40.9656 67.2369C39.5835 68.6135 38.1911 69.9902 36.7884 71.3567C36.6131 71.53 36.3862 71.6524 36.1902 71.7951C36.0045 71.8257 35.8189 71.8257 35.6229 71.8257ZM46.2052 49.5545C48.9281 50.3499 51.5582 50.2071 54.1471 49.167C54.4874 49.0344 54.6215 48.8713 54.6112 48.4939C54.5906 45.241 54.5906 41.988 54.6112 38.735C54.6112 38.3067 54.6525 37.858 54.7762 37.4501C55.2404 35.8899 56.6431 34.9007 58.3655 34.8803C59.1597 34.8701 59.9642 34.8803 60.7997 34.8803C60.7584 34.6866 60.7275 34.5438 60.6862 34.4113C58.4687 26.6714 48.9488 23.6223 42.5953 28.6497C39.501 31.0971 38.0674 34.3297 38.0983 38.2353C38.0983 38.8777 38.0055 39.4794 38.8306 39.8057C39.3566 40.0097 39.3463 40.5093 38.8616 40.8255C38.4902 41.0702 38.0467 41.2537 37.6135 41.3353C36.7368 41.4985 35.8808 41.3965 35.1485 40.8357C34.705 40.4991 34.705 40.1422 35.1485 39.8057C35.3754 39.6425 35.6332 39.5202 35.8911 39.3672C35.8911 38.6534 35.8911 37.9294 35.8911 37.1748C35.0453 37.3175 34.3027 37.6336 33.6736 38.1741C32.2502 39.3876 32.2502 41.2843 33.7045 42.4672C34.9731 43.4972 36.4584 43.7113 38.0261 43.4768C39.0266 43.3238 39.9239 42.9261 40.6356 42.1817C41.5948 41.162 41.7083 39.7037 40.7903 38.6636C40.3777 38.1945 40.2746 37.7458 40.3365 37.1952C40.3571 37.0218 40.3468 36.8484 40.3674 36.6853C40.4706 35.6044 40.6975 34.5438 41.1307 33.5343C46.9788 35.7165 50.3102 43.3748 46.2052 49.5545Z" fill="#00A0DC"/>
</g>
<defs>
<clipPath id="clip0_382_1139">
<rect width="44" height="47.8261" fill="white" transform="translate(26 24)"/>
</clipPath>
</defs>
</svg>
