<svg width="59" height="57" viewBox="0 0 59 57" fill="none" xmlns="http://www.w3.org/2000/svg">
<g clip-path="url(#clip0_314_3459)">
<path d="M29.5 56.9385C45.7924 56.9385 59 44.1924 59 28.4692C59 12.7461 45.7924 0 29.5 0C13.2076 0 0 12.7461 0 28.4692C0 44.1924 13.2076 56.9385 29.5 56.9385Z" fill="#99C32F"/>
<path d="M14.6758 19.8502C15.6846 20.4139 16.6403 20.793 17.7235 20.7316C17.989 20.7111 18.2544 20.6803 18.4881 20.5471C19.104 20.2089 19.1464 19.471 18.573 19.0611C18.2332 18.8254 17.8297 18.7537 17.4474 18.6307C16.3324 18.2823 15.3236 17.7596 14.9731 16.6016C14.3997 14.7057 15.4297 12.9225 17.9252 12.738C18.7748 12.6765 19.6137 12.8303 20.4207 13.1172C20.6968 13.2197 20.8455 13.3427 20.6968 13.6399C20.665 13.7014 20.6756 13.7731 20.665 13.8448C20.5588 14.2548 20.5907 14.8184 20.3252 15.0439C20.0278 15.3001 19.5606 14.8491 19.1358 14.7979C18.6792 14.7364 18.2226 14.6749 17.7766 14.8286C17.4686 14.9311 17.2669 15.1361 17.2138 15.4538C17.1713 15.7817 17.3412 16.0277 17.6279 16.1712C17.8934 16.3044 18.1695 16.4069 18.4562 16.4991C18.8916 16.6323 19.327 16.7758 19.7305 16.9808C21.0898 17.6879 21.6632 18.8562 21.3977 20.3626C21.1853 21.5924 20.219 22.4225 18.7535 22.6582C17.5536 22.8529 16.3961 22.6992 15.2811 22.2585C15.0475 22.1663 14.8882 22.0536 14.8563 21.7974C14.8032 21.1825 14.7395 20.5676 14.6758 19.8502Z" fill="#13133B"/>
<path d="M31.0825 20.0869C31.0825 19.4003 31.0613 18.7239 31.0931 18.0373C31.1144 17.6683 31.0082 17.4839 30.594 17.5556C30.1268 17.6376 29.9356 17.4531 30.0206 17.0022C30.0418 16.869 30.0206 16.7255 30.0206 16.5923C30.0312 16.3258 29.9569 15.9979 30.0843 15.7929C30.2223 15.5675 30.5728 15.7109 30.8276 15.7007C31.1037 15.6904 31.0825 15.5265 31.0825 15.3523C31.0825 14.9628 31.0931 14.5734 31.1674 14.184C31.4117 12.8722 32.3462 11.9704 33.716 11.8167C34.3426 11.7449 34.9797 11.7654 35.6169 11.8884C35.9567 11.9499 36.0204 12.1138 35.9354 12.3905C35.9036 12.493 35.8717 12.5853 35.8505 12.6877C35.7655 13.0157 35.7762 13.4256 35.5744 13.6613C35.3514 13.938 34.9585 13.5998 34.6293 13.6203C33.939 13.6613 33.493 13.9893 33.3975 14.6554C33.3656 14.8706 33.3869 15.096 33.3656 15.3215C33.3338 15.6085 33.4399 15.7212 33.7479 15.7109C34.1727 15.6904 34.5974 15.7212 35.0222 15.7007C35.362 15.6802 35.4257 15.8032 35.3089 16.0799C35.2877 16.1414 35.2877 16.2131 35.2664 16.2848C35.1602 16.6845 35.1709 17.1662 34.9266 17.4429C34.6611 17.7503 34.1302 17.5453 33.716 17.5556C33.3656 17.5658 33.3656 17.7401 33.3656 17.986C33.3656 19.3695 33.355 20.753 33.3762 22.1262C33.3868 22.5362 33.2382 22.6694 32.8347 22.6387C32.3993 22.6079 31.9533 22.6182 31.5073 22.6387C31.1568 22.6592 31.0506 22.5259 31.0613 22.1877C31.0931 21.4806 31.0825 20.7837 31.0825 20.0869Z" fill="#13133B"/>
<path d="M8.55946 30.7853C8.55946 30.3241 8.53822 29.8629 8.57008 29.4018C8.59132 29.0533 8.45327 28.9714 8.11346 28.9816C7.37012 28.9919 7.37012 28.9714 7.37012 28.2437C7.37012 28.1618 7.37012 28.0695 7.37012 27.9875C7.37012 27.1882 7.37012 27.1779 8.21965 27.1369C8.50637 27.1267 8.55946 27.014 8.57008 26.768C8.61256 25.6202 8.62318 25.6202 9.74881 25.2308C10.8957 24.8311 10.8957 24.8311 10.8957 25.9994C10.8957 27.1369 10.8957 27.1369 12.085 27.1369C13.1682 27.1369 13.1682 27.1369 12.9346 28.1618C12.9027 28.3155 12.8496 28.459 12.8284 28.6127C12.8071 28.9099 12.6478 29.0328 12.3399 28.9919C12.308 28.9919 12.2655 28.9919 12.2337 28.9919C11.7983 29.0328 11.2461 28.8074 10.97 29.0943C10.7152 29.3505 10.9063 29.8732 10.8957 30.2831C10.8851 30.6213 10.8957 30.9697 10.8957 31.3079C10.8957 32.097 11.1399 32.3532 11.9257 32.2917C12.3824 32.2508 12.4355 32.4147 12.3717 32.7632C12.3399 32.9476 12.308 33.1321 12.2868 33.3166C12.2018 34.0442 12.1487 34.0954 11.3842 34.1159C10.8638 34.1364 10.3647 34.1159 9.87624 33.9212C9.03733 33.583 8.60194 32.9886 8.55946 32.1175C8.54884 31.6769 8.55946 31.2362 8.55946 30.7853Z" fill="#13133B"/>
<path d="M47.085 31.697C47.7646 32.0454 48.3699 32.3733 49.0814 32.3938C49.2619 32.4041 49.4424 32.4041 49.6123 32.3733C49.8141 32.3323 49.9628 32.2196 49.984 31.9942C49.9946 31.7892 49.8778 31.6662 49.7079 31.5945C49.4637 31.492 49.2088 31.4203 48.9646 31.3383C47.6265 30.8771 47.0531 30.0573 47.223 28.8275C47.3611 27.8129 48.2955 27.0751 49.5698 26.9726C50.2813 26.9213 50.9716 27.0443 51.6618 27.239C51.9273 27.321 52.0441 27.4235 51.9379 27.7207C51.8211 28.0589 51.7468 28.4176 51.6831 28.766C51.6406 29.0017 51.5344 29.0427 51.322 28.9402C50.9291 28.7763 50.5256 28.6635 50.0902 28.684C49.8247 28.6943 49.5805 28.7455 49.5486 29.053C49.5167 29.3297 49.7185 29.4424 49.9521 29.5141C50.2707 29.6166 50.5999 29.6986 50.9079 29.8318C51.9485 30.252 52.5007 31.0821 52.4158 32.0659C52.3202 33.0805 51.6831 33.7978 50.5893 34.0643C49.6017 34.3 48.6247 34.1975 47.6796 33.8491C47.4885 33.7773 47.308 33.7056 47.2867 33.4801C47.2018 32.9165 47.1487 32.3426 47.085 31.697Z" fill="#13133B"/>
<path d="M30.9228 30.9295C31.3157 29.8945 31.6555 28.9414 32.0378 27.9986C32.4519 26.943 32.144 27.1582 33.3121 27.1377C34.5545 27.1275 34.5545 27.1377 34.1085 28.265C33.397 30.0584 32.6749 31.8518 31.9741 33.6555C31.836 34.004 31.6555 34.1167 31.2838 34.1064C30.0414 34.0962 30.0414 34.1064 29.5954 32.9894C28.8945 31.2062 28.1936 29.423 27.4715 27.6501C27.3016 27.2402 27.3653 27.107 27.8326 27.1377C28.3954 27.1787 29.0644 26.9942 29.4892 27.2299C29.9246 27.4759 29.9458 28.183 30.1476 28.6852C30.4343 29.3923 30.721 30.0994 30.9228 30.9295Z" fill="#13133B"/>
<path d="M42.9647 27.8443C42.9647 26.4505 42.9753 25.0465 42.9541 23.6528C42.9541 23.3043 43.0391 23.1609 43.4213 23.1814C43.878 23.2121 44.3452 23.2121 44.8018 23.1814C45.216 23.1506 45.3009 23.3146 45.3009 23.6835C45.2903 26.2046 45.3009 28.7359 45.2903 31.2569C45.2903 31.8103 45.354 32.2919 46.0336 32.4252C46.2354 32.4662 46.2142 32.5891 46.1505 32.7326C45.9487 33.1835 45.7363 33.6345 45.5452 34.0956C45.4602 34.3006 45.3115 34.3108 45.1204 34.2903C43.8036 34.1469 43.0072 33.3373 42.986 32.046C42.9541 30.642 42.9753 29.238 42.9647 27.8443Z" fill="#13133B"/>
<path d="M17.2875 28.3873C17.7017 27.5572 18.2432 27.096 19.0715 27.0038C19.1777 26.9935 19.2839 26.973 19.3901 26.9833C19.9742 27.014 20.0166 27.0755 19.8892 27.6186C19.7618 28.1311 19.6237 28.6435 19.5175 29.1559C19.4644 29.3916 19.4432 29.4941 19.1246 29.4326C17.9671 29.2071 17.3618 29.7093 17.3512 30.8366C17.3406 31.7589 17.3406 32.6812 17.3618 33.6035C17.3725 33.9417 17.245 34.0442 16.9052 34.0237C16.3955 34.0032 15.8752 34.0032 15.3654 34.0237C15.0787 34.034 14.9619 33.9622 14.9619 33.6548C14.9725 31.6052 14.9725 29.5658 14.9619 27.5162C14.9619 27.178 15.1 27.1165 15.4079 27.1267C15.8858 27.1472 16.3636 27.1575 16.8415 27.1267C17.2238 27.1062 17.3512 27.2395 17.3087 27.5981C17.2663 27.8031 17.2875 28.0183 17.2875 28.3873Z" fill="#13133B"/>
<path d="M41.1275 19.7796C41.7116 19.7796 42.6142 18.9495 42.6461 18.3859C42.7204 17.0844 41.8496 15.9263 40.4798 15.5984C39.025 15.25 37.6763 15.5164 36.6569 16.6232C35.595 17.771 35.4569 19.1647 36.0091 20.5585C36.9648 22.977 39.8532 23.223 41.7541 22.4646C41.8921 22.4134 41.9452 22.3212 41.9558 22.1982C42.0196 21.6448 42.0833 21.0914 42.147 20.5175C39.7364 21.1529 38.6533 20.9684 38.1223 19.7899C39.1524 19.7796 40.14 19.7796 41.1275 19.7796ZM39.2373 18.2527C38.94 18.2527 38.6427 18.2527 38.3347 18.2527C38.1648 18.2527 38.1011 18.1912 38.1754 18.0374C38.3772 17.5865 38.717 17.2893 39.2267 17.2074C39.7152 17.1356 40.0975 17.2996 40.3311 17.7198C40.5435 18.0989 40.4585 18.2424 40.0232 18.2527C39.7683 18.2527 39.5028 18.2527 39.2373 18.2527Z" fill="#13133B"/>
<path d="M37.2942 31.2882C37.326 31.2677 37.3473 31.2369 37.3791 31.2369C38.303 31.2267 39.2162 31.2267 40.1401 31.2267C40.9896 31.2267 41.8816 30.2838 41.7861 29.464C41.6692 28.4802 41.1702 27.7321 40.2569 27.2709C38.7915 26.533 36.8057 26.8815 35.7438 28.0702C34.6181 29.3205 34.5332 31.3701 35.542 32.7331C36.8269 34.4856 39.2587 34.4856 40.8197 33.9014C40.9365 33.8604 41.0533 33.8092 41.064 33.6657C41.1383 33.0816 41.202 32.5077 41.287 31.8928C39.2162 32.6512 37.7296 32.4052 37.2942 31.2882ZM37.411 29.2488C37.6765 28.8286 38.0906 28.5929 38.5897 28.6032C38.9932 28.6134 39.3224 28.8286 39.4923 29.2078C39.641 29.5255 39.6198 29.7304 39.1738 29.6997C38.9083 29.6792 38.6428 29.6997 38.3879 29.6997C38.1437 29.6997 37.8995 29.7099 37.6552 29.6997C37.5278 29.6895 37.3473 29.7714 37.2835 29.6177C37.2198 29.4845 37.3366 29.3615 37.411 29.2488Z" fill="#13133B"/>
<path d="M28.7145 20.0866C28.7463 19.3897 28.7251 18.6826 28.7145 17.9858C28.6932 16.8175 28.0773 16.0181 26.9198 15.6697C25.911 15.3622 24.8916 15.4135 23.8934 15.6799C22.927 15.9464 22.9058 15.9771 23.1288 16.8995C23.3306 17.7296 23.3306 17.7296 24.1376 17.4734C24.2863 17.4221 24.4456 17.3709 24.5942 17.3504C25.0721 17.2889 25.55 17.2274 26.0066 17.3811C26.2827 17.4734 26.4526 17.6681 26.4101 17.9653C26.3676 18.2522 26.1022 18.1395 25.9429 18.1702C25.2526 18.2932 24.5305 18.2522 23.8827 18.5801C23.0651 19.0003 22.5872 19.6459 22.5978 20.5478C22.5978 21.4701 23.0332 22.2182 23.9252 22.5974C24.8172 22.9766 25.7305 22.9663 26.5269 22.3617C26.8136 22.1465 26.8986 22.167 27.111 22.4129C27.5676 22.9561 27.8755 22.9561 28.4384 22.5257C28.7994 22.249 29.1498 21.9723 29.5746 21.6443C28.8631 21.3061 28.6932 20.7527 28.7145 20.0866ZM25.5393 21.1422C25.1039 21.1627 24.8172 20.9987 24.7854 20.5478C24.7429 19.9944 25.1252 19.7074 26.0384 19.6562C26.219 19.6255 26.4313 19.564 26.4313 19.9329C26.4526 20.6708 26.1552 21.1114 25.5393 21.1422Z" fill="#13133B"/>
<path d="M26.7178 31.5647C26.7072 30.8678 26.7178 30.1607 26.7178 29.4638C26.7178 28.1828 26.0807 27.3834 24.7958 27.0555C23.7976 26.7993 22.7994 26.8505 21.8224 27.1477C20.9304 27.4142 20.9304 27.4244 21.1534 28.2648C21.2065 28.4595 21.2808 28.6542 21.3021 28.8592C21.3339 29.1769 21.4507 29.2179 21.7374 29.0744C22.3003 28.7977 22.8949 28.6747 23.5321 28.7055C23.8188 28.7157 24.0949 28.7772 24.3073 28.9821C24.4347 29.1051 24.5197 29.2691 24.4772 29.4433C24.4241 29.6483 24.2329 29.597 24.0843 29.6175C23.6595 29.6688 23.2347 29.6893 22.8206 29.7405C21.5994 29.9045 20.718 30.7346 20.6543 31.7799C20.58 32.9687 21.2171 33.9115 22.3534 34.1677C23.2878 34.3829 24.1798 34.2907 24.8701 33.5323C25.0612 33.7783 25.2311 34.0242 25.5179 34.1574C25.7302 34.2599 25.9214 34.4239 26.1869 34.1984C26.6223 33.8295 27.0895 33.4913 27.6205 33.0711C26.8877 32.7535 26.7284 32.1898 26.7178 31.5647ZM23.9462 32.4768C23.5108 32.7022 23.0436 32.5792 22.8631 32.2001C22.6825 31.8311 22.8843 31.3495 23.3197 31.1855C23.617 31.0728 23.9356 31.0523 24.2542 31.0523C24.6365 31.042 24.4347 31.3392 24.4984 31.4929C24.4772 31.9131 24.3498 32.2718 23.9462 32.4768Z" fill="#13133B"/>
<path d="M49.1344 38.4199H29.8818V56.9998H49.1344V38.4199Z" fill="#13123A"/>
<path d="M32.6748 44.3525C32.7916 44.3525 32.9297 44.3628 33.0571 44.3628C33.1845 44.3628 33.312 44.3628 33.4394 44.3525V44.4345H33.3863C33.312 44.4345 33.2482 44.455 33.2482 44.537C33.2482 44.5677 33.2695 44.6087 33.2907 44.6702L33.7261 45.8487H33.7367L34.2358 44.332H34.3314L34.8623 45.8385H34.873L35.2446 44.7829C35.2659 44.7317 35.2977 44.619 35.2977 44.5575C35.2977 44.4755 35.2553 44.4448 35.1597 44.4448H35.0853V44.3628C35.1703 44.3628 35.2977 44.373 35.4039 44.373C35.5101 44.373 35.6163 44.373 35.7225 44.3628V44.4448H35.68C35.5632 44.4448 35.4995 44.4755 35.4464 44.619L34.8623 46.2484H34.7668L34.2358 44.742H34.2252L33.7261 46.2484H33.6305L33.004 44.6292C32.9509 44.4755 32.8553 44.4448 32.7491 44.4448H32.696L32.6748 44.3525Z" fill="white"/>
<path d="M36.6786 44.3223C37.2627 44.3223 37.7724 44.7424 37.7724 45.2856C37.7724 45.7467 37.3689 46.2489 36.668 46.2489C36.0308 46.2489 35.5742 45.8287 35.5742 45.3061C35.5848 44.7219 36.1052 44.3223 36.6786 44.3223ZM36.6786 44.435C36.2645 44.435 35.8822 44.6605 35.8822 45.2651C35.8822 45.6853 36.1901 46.1464 36.6999 46.1464C37.2414 46.1464 37.4963 45.798 37.4963 45.3163C37.4857 44.8962 37.1883 44.435 36.6786 44.435Z" fill="white"/>
<path d="M37.8359 46.1367H37.889C38.0271 46.1367 38.0802 46.0957 38.0802 45.9215V44.6507C38.0802 44.4765 38.0271 44.4355 37.889 44.4355H37.8359V44.3535C37.9421 44.3535 38.0802 44.3638 38.2182 44.3638C38.4094 44.3638 38.558 44.3535 38.6855 44.3535C39.2058 44.3535 39.3014 44.7122 39.3014 44.8352C39.3014 45.1734 39.0359 45.2861 38.8766 45.3168L39.2695 45.8907C39.4288 46.1264 39.4819 46.1367 39.7155 46.1572V46.2084C39.6624 46.2084 39.6093 46.2084 39.5456 46.2084C39.2908 46.2084 39.1633 46.1777 39.0147 45.9522L38.6749 45.4501C38.6005 45.3578 38.5687 45.3476 38.3457 45.3373V45.8292C38.3457 46.0752 38.3988 46.1059 38.5156 46.1059H38.6005V46.1879C38.4731 46.1879 38.3457 46.1777 38.2182 46.1777C38.0908 46.1777 37.9421 46.1777 37.8359 46.1879V46.1367ZM38.3457 45.2451C38.3988 45.2553 38.4731 45.2656 38.5474 45.2656C38.8129 45.2656 39.0253 45.1529 39.0253 44.8864C39.0253 44.7737 38.9403 44.456 38.5262 44.456C38.4518 44.456 38.3988 44.456 38.3457 44.4662V45.2451Z" fill="white"/>
<path d="M39.8105 46.1367H39.8636C40.0017 46.1367 40.0548 46.0957 40.0548 45.9215V44.6507C40.0548 44.4765 40.0017 44.4355 39.8636 44.4355H39.8105V44.3535C39.9167 44.3535 40.0548 44.3638 40.1928 44.3638C40.3203 44.3638 40.4477 44.3638 40.5857 44.3535V44.4355H40.5114C40.3734 44.4355 40.3203 44.4765 40.3203 44.6507V45.86C40.3203 46.0547 40.3627 46.1264 40.7238 46.1264C41.2016 46.1264 41.2654 46.0547 41.3185 45.7575H41.414L41.3928 46.2187C41.1379 46.2187 40.7981 46.2084 40.5433 46.2084C40.2035 46.2084 39.9167 46.2084 39.8105 46.2187V46.1367Z" fill="white"/>
<path d="M41.5312 46.1367H41.5843C41.7224 46.1367 41.7755 46.0957 41.7755 45.9215V44.6507C41.7755 44.4765 41.7224 44.4355 41.5843 44.4355H41.5312V44.3535C41.6374 44.3535 41.7755 44.3638 41.9135 44.3638C42.1472 44.3638 42.3914 44.3535 42.625 44.3535C43.4215 44.3535 43.6975 44.9274 43.6975 45.2554C43.6975 45.6345 43.4215 46.1982 42.5188 46.1982C42.3383 46.1982 42.1259 46.1879 41.9135 46.1879C41.7861 46.1879 41.6374 46.1879 41.5312 46.1982V46.1367ZM42.0303 45.8702C42.0303 46.0752 42.1259 46.1059 42.4551 46.1059C42.9754 46.1059 43.4002 45.9112 43.4002 45.3271C43.4002 44.9479 43.1347 44.4355 42.402 44.4355C42.2746 44.4355 42.1578 44.4457 42.0303 44.456V45.8702Z" fill="white"/>
<path d="M33.2799 48.5034H33.3542C33.5135 48.5034 33.5453 48.4727 33.5453 48.2574V46.833H33.2055C32.887 46.833 32.8551 46.9969 32.8339 47.2019H32.7383V46.7305C32.8232 46.7305 33.2905 46.7407 33.6728 46.7407C34.0232 46.7407 34.5117 46.7407 34.6073 46.7305V47.2019H34.5117C34.4904 46.9969 34.4586 46.833 34.14 46.833H33.8002V48.2574C33.8002 48.4727 33.8321 48.5034 33.9913 48.5034H34.0657V48.5854C33.9489 48.5854 33.8321 48.5751 33.6834 48.5751C33.5347 48.5751 33.4073 48.5751 33.3011 48.5854L33.2799 48.5034Z" fill="white"/>
<path d="M34.7559 48.5034H34.809C34.947 48.5034 35.0001 48.4624 35.0001 48.2882V47.0174C35.0001 46.8432 34.947 46.8022 34.809 46.8022H34.7559V46.7305C34.8621 46.7305 35.0001 46.7407 35.1382 46.7407C35.3293 46.7407 35.478 46.7305 35.6054 46.7305C36.1257 46.7305 36.2213 47.0892 36.2213 47.2121C36.2213 47.5503 35.9558 47.663 35.7965 47.6938L36.1894 48.2677C36.3487 48.5034 36.4018 48.4829 36.6355 48.5034V48.5546C36.593 48.5649 36.4974 48.5751 36.4443 48.5751C36.2319 48.5854 36.0939 48.5546 35.9452 48.3292L35.6054 47.827C35.5311 47.7348 35.4992 47.7245 35.2762 47.7143V48.2062C35.2762 48.4522 35.3293 48.4829 35.4461 48.4829H35.5311V48.5649C35.4036 48.5649 35.2762 48.5546 35.1488 48.5546C35.0213 48.5546 34.8727 48.5546 34.7665 48.5649V48.5034H34.7559ZM35.2656 47.6221C35.3187 47.6323 35.393 47.6426 35.4673 47.6426C35.7328 47.6426 35.9452 47.5298 35.9452 47.2634C35.9452 47.1506 35.8603 46.833 35.4461 46.833C35.3718 46.833 35.3187 46.833 35.2656 46.8432V47.6221Z" fill="white"/>
<path d="M36.4449 48.5033H36.4768C36.6361 48.5033 36.6998 48.4418 36.7954 48.2164L37.4644 46.6484H37.5175L38.2714 48.2471C38.3458 48.4009 38.4307 48.5033 38.5688 48.5033H38.6325V48.5853C38.5157 48.5853 38.3883 48.5751 38.229 48.5751C38.0697 48.5751 37.9316 48.5751 37.8254 48.5853V48.5033H37.8998C37.9953 48.5033 38.0484 48.4726 38.0484 48.4214C38.0484 48.3804 38.0166 48.3086 38.006 48.2881L37.7936 47.8167H37.1033L36.944 48.2266C36.9228 48.2779 36.8909 48.3599 36.8909 48.4111C36.8909 48.4623 36.9228 48.4931 37.0078 48.4931H37.0715V48.5751C36.9653 48.5751 36.8485 48.5648 36.7104 48.5648C36.5936 48.5648 36.4874 48.5648 36.4131 48.5751L36.4449 48.5033ZM37.4325 47.0071L37.1564 47.7245H37.7617L37.4325 47.0071Z" fill="white"/>
<path d="M38.0378 46.7305C38.1547 46.7305 38.3033 46.7407 38.4414 46.7407C38.5794 46.7407 38.7175 46.7407 38.8449 46.7305V46.8125H38.8024C38.6644 46.8125 38.6219 46.8637 38.6219 46.9252C38.6219 46.9764 38.6431 47.0174 38.6856 47.1199L39.2272 48.3087L39.8006 47.0994C39.8325 47.0277 39.8643 46.9457 39.8643 46.8944C39.8643 46.8432 39.8112 46.8227 39.7475 46.8227H39.6944V46.7305C39.79 46.7305 39.8962 46.7407 40.0024 46.7407C40.1086 46.7407 40.2148 46.7407 40.3103 46.7305V46.8125H40.2572C40.1511 46.8125 40.0767 46.8432 39.9705 47.0584L39.2059 48.6264H39.0891L38.3352 47.0277C38.2608 46.8637 38.2077 46.8125 38.0697 46.8125H38.0166L38.0378 46.7305Z" fill="white"/>
<path d="M40.4053 48.5034H40.4584C40.5964 48.5034 40.6495 48.4624 40.6495 48.2882V47.0174C40.6495 46.8432 40.5964 46.8022 40.4584 46.8022H40.4053V46.7305C40.5008 46.7305 40.8407 46.7407 41.1274 46.7407C41.4778 46.7407 41.6159 46.7407 41.8176 46.7305C41.8282 46.8944 41.8282 47.0277 41.8495 47.1711H41.7645C41.7327 46.9867 41.7114 46.833 41.1911 46.833H40.915V47.5708H41.1699C41.5309 47.5708 41.5415 47.5196 41.5521 47.3659H41.6371C41.6371 47.4273 41.6265 47.5093 41.6265 47.6221C41.6265 47.7245 41.6265 47.8065 41.6371 47.8578H41.5521C41.5415 47.7245 41.5309 47.6733 41.2017 47.6733H40.9256V48.2984C40.9256 48.4522 40.9893 48.4932 41.1805 48.4932H41.2654C41.7539 48.4932 41.892 48.4112 41.9344 48.1242H42.0194C41.9982 48.2882 41.9769 48.4317 41.9663 48.5956C41.7858 48.5956 41.4778 48.5854 41.1592 48.5854C40.7982 48.5854 40.5327 48.5854 40.4371 48.5956V48.5136H40.4053V48.5034Z" fill="white"/>
<path d="M42.126 48.5034H42.1791C42.3171 48.5034 42.3702 48.4624 42.3702 48.2882V47.0174C42.3702 46.8432 42.3171 46.8022 42.1791 46.8022H42.126V46.7305C42.2322 46.7305 42.3702 46.7407 42.5083 46.7407C42.6357 46.7407 42.7631 46.7407 42.9012 46.7305V46.8125H42.8268C42.6888 46.8125 42.6357 46.8534 42.6357 47.0277V48.2369C42.6357 48.4317 42.6782 48.5034 43.0392 48.5034C43.5171 48.5034 43.5808 48.4317 43.6339 48.1345H43.7295L43.7188 48.5956C43.464 48.5956 43.1242 48.5854 42.8693 48.5854C42.5295 48.5854 42.2428 48.5854 42.1366 48.5956L42.126 48.5034Z" fill="white"/>
<path d="M45.407 47.5908C45.492 47.5908 45.5557 47.6011 45.6725 47.6011C45.853 47.6011 45.9486 47.6011 46.0335 47.5908V47.6728C45.8318 47.6728 45.7999 47.6933 45.7787 47.888C45.7681 47.9495 45.7256 48.1237 45.6725 48.2364C45.9061 48.4926 45.9804 48.5131 46.2353 48.5131V48.5951C46.1716 48.5951 46.0973 48.5849 46.0229 48.5849C45.8955 48.5849 45.7999 48.5849 45.715 48.5951L45.5344 48.4209C45.4495 48.5131 45.2477 48.6259 44.9185 48.6259C44.5362 48.6259 44.292 48.4004 44.292 48.1442C44.292 47.9392 44.4513 47.7855 44.7274 47.6318C44.5893 47.4986 44.4513 47.3756 44.4513 47.1809C44.4513 46.8939 44.7168 46.6992 44.9822 46.6992C45.2052 46.6992 45.4601 46.8324 45.4601 47.0681C45.4601 47.2731 45.3008 47.3858 44.9822 47.5601L45.6088 48.1647C45.6513 48.093 45.6725 47.9597 45.6725 47.8573C45.6725 47.6933 45.5769 47.683 45.4176 47.683L45.407 47.5908ZM44.7805 47.6728C44.5893 47.7855 44.5256 47.9187 44.5256 48.0622C44.5256 48.2569 44.7274 48.5131 45.0672 48.5131C45.2371 48.5131 45.407 48.4312 45.4707 48.3492L44.7805 47.6728ZM44.8973 46.7915C44.7592 46.7915 44.5893 46.9144 44.6106 47.0886C44.6212 47.2219 44.8867 47.4678 44.9185 47.4986C45.0991 47.3858 45.2265 47.2936 45.2265 47.1296C45.2371 46.9964 45.1415 46.7915 44.8973 46.7915Z" fill="white"/>
<path d="M33.2799 50.8803H33.3542C33.5135 50.8803 33.5453 50.8496 33.5453 50.6344V49.2099H33.2055C32.887 49.2099 32.8551 49.3739 32.8339 49.5788H32.7383V49.1074C32.8232 49.1074 33.2905 49.1177 33.6728 49.1177C34.0232 49.1177 34.5117 49.1177 34.6073 49.1074V49.5788H34.5117C34.4904 49.3739 34.4586 49.2099 34.14 49.2099H33.8002V50.6344C33.8002 50.8496 33.8321 50.8803 33.9913 50.8803H34.0657V50.9623C33.9489 50.9623 33.8321 50.9521 33.6834 50.9521C33.5347 50.9521 33.4073 50.9521 33.3011 50.9623L33.2799 50.8803Z" fill="white"/>
<path d="M35.7333 49.0664C36.3174 49.0664 36.8271 49.4866 36.8271 50.0297C36.8271 50.4909 36.4235 50.9931 35.7227 50.9931C35.0855 50.9931 34.6289 50.5729 34.6289 50.0502C34.6289 49.4661 35.1599 49.0664 35.7333 49.0664ZM35.7227 49.1791C35.3085 49.1791 34.9262 49.4046 34.9262 49.999C34.9262 50.4192 35.2342 50.8803 35.7439 50.8803C36.2855 50.8803 36.5404 50.5319 36.5404 50.0502C36.5404 49.6403 36.243 49.1791 35.7227 49.1791Z" fill="white"/>
<path d="M37.591 49.1801H37.5379C37.4211 49.1801 37.3574 49.2211 37.3574 49.4363C37.3574 49.713 37.3468 49.9897 37.3468 50.2562C37.3468 50.4816 37.3892 50.5841 37.4636 50.6763C37.5591 50.7993 37.7078 50.8813 37.952 50.8813C38.2175 50.8813 38.4299 50.7481 38.5042 50.6558C38.5998 50.5329 38.6423 50.3791 38.6423 50.1947V49.918C38.6423 49.5696 38.6104 49.2929 38.5892 49.2416C38.5573 49.1801 38.5255 49.1699 38.4511 49.1699H38.3874V49.0879C38.4724 49.0879 38.5892 49.0981 38.6954 49.0981C38.8016 49.0981 38.9078 49.0981 39.014 49.0879V49.1699H38.9715C38.8653 49.1699 38.791 49.2109 38.791 49.4568V50.1332C38.791 50.4099 38.7166 50.6251 38.5573 50.7788C38.4299 50.9018 38.175 50.994 37.9414 50.994C37.729 50.994 37.5591 50.9428 37.368 50.8198C37.1662 50.6866 37.0919 50.4714 37.0919 50.2049V49.3851C37.0919 49.2211 37.0069 49.1801 36.9008 49.1801H36.8477V49.0981C36.9645 49.0981 37.0919 49.1084 37.2299 49.1084C37.3574 49.1084 37.4848 49.1084 37.6016 49.0981L37.591 49.1801Z" fill="white"/>
<path d="M39.1738 50.8808H39.2269C39.365 50.8808 39.4181 50.8398 39.4181 50.6656V49.3949C39.4181 49.2206 39.365 49.1796 39.2269 49.1796H39.1738V49.0977C39.28 49.0977 39.4181 49.1079 39.5561 49.1079C39.7473 49.1079 39.8959 49.0977 40.0234 49.0977C40.5437 49.0977 40.6393 49.4563 40.6393 49.5793C40.6393 49.9175 40.3738 50.0302 40.2145 50.061L40.6074 50.6349C40.7667 50.8706 40.8198 50.8808 41.0534 50.9013V50.9526C41.0003 50.9526 40.9472 50.9526 40.8835 50.9526C40.6287 50.9526 40.5012 50.9218 40.3526 50.6964L40.0127 50.1942C39.9384 50.102 39.9066 50.0917 39.6835 50.0815V50.5734C39.6835 50.8193 39.7366 50.8501 39.8535 50.8501H39.9384V50.9321C39.811 50.9321 39.6835 50.9218 39.5561 50.9218C39.4287 50.9218 39.28 50.9218 39.1738 50.9321V50.8808ZM39.6835 49.9892C39.7366 49.9995 39.811 50.0097 39.8853 50.0097C40.1508 50.0097 40.3632 49.897 40.3632 49.6306C40.3632 49.5178 40.2782 49.2001 39.8641 49.2001C39.7897 49.2001 39.7366 49.2001 39.6835 49.2104V49.9892Z" fill="white"/>
<path d="M41.1279 50.8808H41.181C41.3191 50.8808 41.3722 50.8398 41.3722 50.6656V49.3949C41.3722 49.2206 41.3191 49.1796 41.181 49.1796H41.1279V49.0977C41.2341 49.0977 41.3722 49.1079 41.5102 49.1079C41.6377 49.1079 41.7651 49.1079 41.8925 49.0977V49.1796H41.8394C41.7014 49.1796 41.6483 49.2206 41.6483 49.3949V50.6656C41.6483 50.8296 41.7014 50.8808 41.8394 50.8808H41.8925V50.9628C41.7651 50.9628 41.6483 50.9526 41.5102 50.9526C41.3722 50.9526 41.2341 50.9526 41.1279 50.9628V50.8808Z" fill="white"/>
<path d="M43.3257 49.5803H43.2301C43.2301 49.4983 43.1983 49.1704 42.7629 49.1704C42.5186 49.1704 42.3594 49.3036 42.3594 49.4778C42.3594 49.6315 42.4443 49.734 42.6885 49.8365L42.954 49.9492C43.1664 50.0312 43.3894 50.1747 43.3894 50.4309C43.3894 50.7588 43.1452 50.9945 42.6567 50.9945C42.6142 50.9945 42.3487 50.9945 42.1257 50.933L42.1151 50.5026H42.2001C42.2213 50.7383 42.4549 50.9125 42.6992 50.9125C42.954 50.9125 43.1664 50.7793 43.1664 50.5641C43.1664 50.3386 42.9647 50.2464 42.8054 50.1747L42.4868 50.0415C42.2638 49.9492 42.1045 49.8057 42.1045 49.5905C42.1045 49.3241 42.3594 49.0781 42.7629 49.0781C42.9434 49.0781 43.1346 49.1191 43.3151 49.1499L43.3257 49.5803Z" fill="white"/>
<path d="M43.613 50.8803H43.6661C43.8042 50.8803 43.8573 50.8189 43.8679 50.5012C43.8785 50.1425 43.8998 49.7735 43.8998 49.4046C43.8998 49.2304 43.8467 49.1894 43.6874 49.1894H43.6343V49.1074C43.7298 49.1074 43.7936 49.1177 43.8891 49.1177C43.9741 49.1177 44.0909 49.1177 44.1228 49.1074L44.9298 50.6344L45.6413 49.1074C45.7369 49.1074 45.8218 49.1177 45.9068 49.1177C45.9917 49.1177 46.0873 49.1177 46.1722 49.1074V49.1894H46.1298C45.9917 49.1894 45.9068 49.2202 45.9068 49.4046C45.9068 49.5378 45.9174 50.1937 45.928 50.5831C45.928 50.8393 45.9599 50.8906 46.1298 50.8906H46.1829V50.9726C46.0873 50.9726 45.9599 50.9623 45.8006 50.9623C45.6413 50.9623 45.5245 50.9623 45.4183 50.9726V50.8906H45.4608C45.6307 50.8906 45.6519 50.8496 45.6519 50.6139V49.2919L44.8661 50.9828H44.8024L43.9953 49.4456H43.9847V50.5114C43.9847 50.7984 44.0166 50.8803 44.1759 50.8803H44.2183V50.9623C44.144 50.9623 44.0378 50.9521 43.9104 50.9521C43.7829 50.9521 43.6874 50.9521 43.5918 50.9623V50.8803H43.613Z" fill="white"/>
<path d="M34.7672 51.9357H34.7247C34.6503 51.8025 34.5017 51.5463 33.9495 51.5463C33.3548 51.5463 33.1637 52.028 33.1637 52.4174C33.1637 53.0425 33.6628 53.2475 33.9707 53.2475C34.438 53.2475 34.6397 53.022 34.7884 52.8581H34.8096V53.0528C34.7034 53.1348 34.4592 53.35 34.0026 53.35C33.3336 53.35 32.877 52.9811 32.877 52.4584C32.877 51.9562 33.2699 51.4336 33.9707 51.4336C34.2681 51.4336 34.5442 51.5156 34.6397 51.5463C34.6928 51.5566 34.7565 51.5771 34.7884 51.5873L34.7672 51.9357Z" fill="white"/>
<path d="M36.0194 51.4453C36.6035 51.4453 37.1132 51.8655 37.1132 52.4086C37.1132 52.8698 36.7097 53.3719 36.0088 53.3719C35.3717 53.3719 34.915 52.9518 34.915 52.4291C34.915 51.845 35.446 51.4453 36.0194 51.4453ZM36.0194 51.5478C35.6053 51.5478 35.223 51.7733 35.223 52.3676C35.223 52.7878 35.5309 53.249 36.0407 53.249C36.5822 53.249 36.8371 52.9005 36.8371 52.4189C36.8265 52.009 36.5291 51.5478 36.0194 51.5478Z" fill="white"/>
<path d="M37.8781 51.5571H37.825C37.7082 51.5571 37.6445 51.5981 37.6445 51.8133C37.6445 52.09 37.6339 52.3667 37.6339 52.6331C37.6339 52.8483 37.6763 52.9611 37.7507 53.0533C37.8462 53.1763 37.9949 53.2583 38.2392 53.2583C38.5046 53.2583 38.717 53.1251 38.7914 53.0328C38.8869 52.9098 38.9294 52.7561 38.9294 52.5716V52.2949C38.9294 51.9465 38.8975 51.6698 38.8763 51.6186C38.8445 51.5571 38.8126 51.5468 38.7383 51.5468H38.6745V51.4648C38.7595 51.4648 38.8763 51.4751 38.9825 51.4751C39.0887 51.4751 39.1949 51.4648 39.3011 51.4648V51.5468H39.2586C39.1524 51.5468 39.0781 51.5878 39.0781 51.8338V52.4999C39.0781 52.7766 39.0037 52.9918 38.8444 53.1455C38.717 53.2685 38.4622 53.3608 38.2285 53.3608C38.0162 53.3608 37.8462 53.3095 37.6551 53.1865C37.4533 53.0533 37.379 52.8381 37.379 52.5716V51.7518C37.379 51.5878 37.2941 51.5468 37.1879 51.5468H37.1348V51.4648C37.2516 51.4648 37.379 51.4751 37.5171 51.4751C37.6445 51.4751 37.7719 51.4648 37.8887 51.4648V51.5571H37.8781Z" fill="white"/>
<path d="M39.4076 53.2475H39.4501C39.6094 53.2475 39.6306 53.1963 39.6412 52.9196C39.6518 52.5814 39.6518 52.0792 39.6518 51.7821C39.6518 51.5976 39.5881 51.5566 39.4394 51.5566H39.3545V51.4746C39.4394 51.4746 39.5244 51.4849 39.6094 51.4849C39.6943 51.4849 39.7686 51.4746 39.843 51.4746L41.2341 52.9811L41.2129 51.9153C41.2022 51.6181 41.1598 51.5566 41.0005 51.5566H40.9686V51.4746C41.0642 51.4746 41.181 51.4849 41.2872 51.4849C41.3934 51.4849 41.4996 51.4746 41.6058 51.4746V51.5566H41.5633C41.4677 51.5566 41.3828 51.5873 41.3828 51.8435L41.3297 53.3603H41.2447L39.7899 51.7821H39.7793C39.7793 52.192 39.7899 52.5814 39.8005 52.9913C39.8111 53.2065 39.8536 53.268 39.9916 53.268H40.0447V53.35C39.9492 53.35 39.8324 53.3398 39.7262 53.3398C39.6094 53.3398 39.4925 53.3398 39.4076 53.35V53.2475Z" fill="white"/>
<path d="M43.5385 51.9357H43.496C43.4217 51.8025 43.2837 51.5463 42.7208 51.5463C42.1262 51.5463 41.935 52.028 41.935 52.4174C41.935 53.0425 42.4341 53.2475 42.7315 53.2475C43.1987 53.2475 43.4005 53.022 43.5491 52.8581H43.5704V53.0528C43.4642 53.1348 43.2199 53.35 42.7633 53.35C42.0943 53.35 41.6377 52.9811 41.6377 52.4584C41.6377 51.9562 42.0306 51.4336 42.7315 51.4336C43.0288 51.4336 43.3049 51.5156 43.4005 51.5463C43.4536 51.5566 43.5173 51.5771 43.5491 51.5873L43.5385 51.9357Z" fill="white"/>
<path d="M43.7402 53.248H43.7933C43.9314 53.248 43.9845 53.207 43.9845 53.0328V51.762C43.9845 51.5878 43.9314 51.5468 43.7933 51.5468H43.7402V51.4648C43.8464 51.4648 43.9845 51.4751 44.1225 51.4751C44.25 51.4751 44.3774 51.4648 44.5048 51.4648V51.5468H44.4517C44.3137 51.5468 44.2606 51.5878 44.2606 51.762V53.0328C44.2606 53.1968 44.3137 53.248 44.4517 53.248H44.5048V53.33C44.3774 53.33 44.2606 53.3198 44.1225 53.3198C43.9845 53.3198 43.8464 53.3198 43.7402 53.33V53.248Z" fill="white"/>
<path d="M44.749 53.248H44.8021C44.9402 53.248 44.9933 53.207 44.9933 53.0328V51.762C44.9933 51.5878 44.9402 51.5468 44.8021 51.5468H44.749V51.4648C44.8552 51.4648 44.9933 51.4751 45.1313 51.4751C45.2587 51.4751 45.3862 51.4648 45.5242 51.4648V51.5468H45.4499C45.3118 51.5468 45.2587 51.5878 45.2587 51.762V52.9713C45.2587 53.166 45.3012 53.2378 45.6623 53.2378C46.1401 53.2378 46.2038 53.166 46.2569 52.8688H46.3525L46.3313 53.33C46.0764 53.33 45.7366 53.3198 45.4817 53.3198C45.1419 53.3198 44.8552 53.3198 44.749 53.33V53.248Z" fill="white"/>
<path d="M46.1931 43.2973C46.2462 43.1436 46.278 42.9796 46.278 42.8156C46.278 42.6209 46.2355 42.4364 46.1612 42.2725C46.055 42.0265 45.8639 41.8113 45.6409 41.6576C45.4072 41.5039 45.1311 41.4219 44.8338 41.4219C44.6427 41.4219 44.4728 41.4526 44.3029 41.5141C44.271 41.5244 44.2498 41.5346 44.2285 41.5449V41.9753C44.3028 41.924 44.3666 41.8933 44.4515 41.8625C44.5683 41.8215 44.7064 41.7908 44.8338 41.7908C44.9825 41.7908 45.1205 41.8216 45.2373 41.8728C45.4285 41.9548 45.5878 42.0778 45.7046 42.2417C45.8214 42.4057 45.8851 42.6004 45.8851 42.8054C45.8851 42.9181 45.8639 43.0411 45.8214 43.1538C45.7789 43.2665 45.7258 43.3588 45.6515 43.4612L45.6409 43.4715L44.2285 45.5109V46.1872L45.9701 43.6867C46.0656 43.5842 46.14 43.451 46.1931 43.2973Z" fill="white"/>
<path d="M45.6729 42.8252C45.6729 43.2761 45.3013 43.6348 44.834 43.6348C44.3668 43.6348 43.9951 43.2761 43.9951 42.8252C43.9951 42.3743 44.3668 42.0156 44.834 42.0156C45.3013 42.0156 45.6729 42.3743 45.6729 42.8252Z" fill="#9AC330"/>
</g>
<defs>
<clipPath id="clip0_314_3459">
<rect width="59" height="57" fill="white"/>
</clipPath>
</defs>
</svg>
