<svg width="62" height="58" viewBox="0 0 62 58" fill="none" xmlns="http://www.w3.org/2000/svg">
<g clip-path="url(#clip0_314_3409)">
<path fill-rule="evenodd" clip-rule="evenodd" d="M38.5778 57.5323C39.4889 57.1998 40.3778 57.2441 41.3333 57.621C40.4444 58.131 39.6222 58.131 38.5778 57.5323ZM48.8889 55.7143C48.9778 56.0025 48.7333 56.0247 48.5778 56.0912C47.4222 56.6233 46.2444 57.0668 45 57.3106C44.7778 57.355 44.6222 57.3106 44.4667 57.222C44.4444 57.2441 44.4222 57.2663 44.3778 57.2663C43.5556 57.488 42.7111 57.6654 41.8667 57.5102C41.8444 57.5102 41.8222 57.4437 41.7556 57.355C42.7111 56.845 43.7333 56.9116 44.7333 56.8672L44.7111 56.8894L46.5556 56.3573L48.8889 55.7143ZM37.1778 -0.0020451C37.2444 -0.0242164 37.3778 0.0201261 37.4222 0.0866399C37.7778 0.44138 38.2 0.308352 38.6222 0.175325C38.9778 0.0644687 39.3333 -0.157244 39.7556 0.197496C39.4667 0.44138 39.2 0.663092 38.9333 0.884805C39.0222 0.862634 39.0889 0.862634 39.1778 0.840462L39.1333 1.01783L38.9333 0.884805C38.1333 1.06217 38.1333 1.06217 37.3778 0.685264C37.3333 0.818291 37.2667 0.929147 37.2222 1.04C37.2 1.12869 37.1778 1.21737 37.1556 1.37257C37.0889 1.39474 37 1.41691 36.9333 1.46126C36.9778 1.46126 37.0444 1.46126 37.0889 1.46126L37.0222 1.48343L37.0444 1.5056C37.0222 1.5056 37 1.5056 36.9778 1.5056L36.5333 1.70514C36.5556 1.63863 36.5778 1.59429 36.6 1.57211L35.4 2.01554C35.4 2.03771 35.3778 2.05988 35.3778 2.05988C35.6222 2.1264 35.8667 2.23725 36.1333 2.25942C36.8 2.30377 37.4667 2.30377 38.1333 2.32594C38.2667 2.32594 38.4667 2.41462 38.5556 2.34811C39.4444 1.61646 40.2667 2.19291 41.1111 2.28159C41.2 2.28159 41.3111 2.28159 41.4 2.30377C41.8 2.45896 42.1333 2.54765 42.1111 3.14627C42.1111 3.36799 42.2222 3.5897 42.3778 3.78924C42.5556 3.83358 42.7556 3.85575 42.9333 3.9001C42.9556 4.14398 42.8444 4.21049 42.7333 4.25484C42.8222 4.38786 43.0444 4.41003 43.2222 4.49872C43.4222 3.85575 43.5556 3.70055 43.9333 3.83358C44.6444 4.03312 45.3556 4.29918 46.0667 4.52089C46.1556 4.54306 46.2889 4.56523 46.3111 4.63175C46.6444 5.38557 47.4667 5.65162 47.9333 6.25025C48.0667 6.42762 48.1778 6.64933 48.2222 6.87104C48.2667 7.09276 48.3111 7.31447 48.3333 7.51401C48.6667 7.64704 49 7.80224 49.3111 7.95743C49.3333 7.93526 49.3556 7.91309 49.3778 7.86875C49.4889 7.55835 49.5556 7.24795 49.6667 6.93756C49.7111 6.84887 49.8889 6.84887 50.0444 6.80453C50.2667 7.1371 50.5778 7.4475 50.5333 7.91309C50.3556 8.09046 50.2 8.24566 50.1111 8.35652C50.4 8.51172 50.6667 8.68909 50.9556 8.84428L50.9778 8.82211C50.9778 8.84428 50.9778 8.84428 50.9778 8.86646C51.6222 9.28771 52.2667 9.73113 52.9111 10.1524C53.2222 10.3519 53.5333 10.5736 53.7778 10.8619C55.2667 12.5691 57.0222 14.0102 58.3556 15.8947C58.8 16.5155 59.2222 17.1363 59.6444 17.735C59.4222 18.0454 59.1778 17.8902 59.0444 17.735C58.6444 17.2694 58.2444 16.8038 57.9111 16.2938C57.3778 15.4291 56.8 14.631 56.0444 13.9658C55.8667 13.8106 55.6889 13.6333 55.5556 13.4337C54.6889 12.0813 53.2889 11.5048 52.0667 10.6845C51.9556 10.618 51.8 10.5736 51.6667 10.5958C51.5111 10.618 51.4444 10.7067 51.4444 10.7954L51.2667 10.8619C51.2889 10.9506 51.3111 11.0171 51.3333 11.1058C51.3778 11.0614 51.4444 11.0171 51.4889 10.9949C52.3778 11.6157 53.2222 12.2808 53.8444 13.1898C53.8889 13.2785 53.9556 13.345 54.0222 13.4116C55.8667 14.9192 56.7778 17.1142 57.8667 19.1761C57.9111 19.2648 57.9333 19.3756 57.9778 19.4421C58.9556 20.5729 59.1778 22.014 59.4222 23.433C59.4667 23.7655 59.6 24.0759 59.7111 24.3863C59.5778 24.5637 59.3111 24.7411 59.3111 24.8963C59.3333 25.6723 59.4 26.4483 59.5333 27.2021C59.5333 27.2464 59.5556 27.2908 59.5556 27.3351C59.8444 28.5989 60.1111 29.8626 60.3333 31.1264C60.4 31.5476 60.2889 32.0132 60.2444 32.4788C60.1333 32.1906 59.9556 31.9246 59.9333 31.6363C59.8889 30.9269 59.8 30.2395 59.6667 29.5744C59.6444 29.9513 59.6222 30.3061 59.5778 30.683C59.5111 31.3924 59.3556 32.1241 59.3556 32.8336C59.3778 34.186 58.8444 35.4276 58.6 36.7136H58.6222V36.8022L58.6 36.7801C58.5778 36.8909 58.5556 36.9796 58.5556 37.0905C58.4667 37.6004 58 37.9773 58.0889 38.5538C58.4889 38.6868 58.6889 38.3542 58.7778 38.1768C59.2 37.2235 60.0222 36.4918 60.1333 35.3833C60.1556 35.2502 60.1778 35.095 60.2667 34.9842C60.3556 34.8733 60.4222 34.7403 60.4889 34.6294C60.4667 34.2525 60.4222 33.8756 60.4222 33.4987C60.4222 33.2105 60.5333 32.9001 60.6 32.5897C60.7333 32.9001 60.8222 33.2105 60.8667 33.5209C61.0444 32.634 60.9556 31.7028 60.9778 30.7938C60.9778 30.7051 60.9778 30.5943 60.9778 30.5056C60.9778 30.4613 61.0222 30.4169 61.0444 30.3726C61.3333 30.2839 61.4889 30.4613 61.5111 30.7273C61.6222 31.858 61.4444 32.9444 61.1556 34.0308C60.9111 34.9177 60.6222 35.7824 60.3111 36.647C60.2 36.9574 60.0667 37.2678 59.8667 37.5339C59.3111 38.3099 58.6889 39.0194 58.3333 39.9284C58.2667 40.1279 58.0444 40.3275 57.8444 40.394C57.3333 40.5492 57.1556 40.9926 56.9556 41.436C56.9111 41.5247 56.8889 41.5912 56.8667 41.6577C57 42.1012 57.4222 42.4781 57.1778 43.121C57.0444 43.498 56.9333 43.8083 56.5333 44.0301C56.3556 44.1187 56.2889 44.407 56.2 44.6065C55.9333 45.1165 55.7333 45.6929 55.3778 46.1142C54.8222 46.7793 54.5778 47.644 53.8889 48.2648C53.4667 48.6417 52.5778 49.1516 51.9778 49.3955C51.9111 49.462 51.8444 49.5064 51.7556 49.5507C51.4 49.7059 51.0667 49.9054 50.7778 50.1272C50.8222 50.1272 50.8889 50.1715 50.9111 50.1937C50.9778 50.238 51.0222 50.371 51 50.4376C50.8667 50.6814 50.7556 50.9918 50.5556 51.1692C50.0889 51.5683 49.6444 52.0339 49.0444 52.2778C48.7111 52.433 48.4 52.6768 48.0444 52.8986L47.7333 52.5216C47.6444 52.4995 47.5556 52.4551 47.4667 52.4773C46.6889 52.699 45.9111 52.9207 45.1333 53.1646C45 53.209 44.8667 53.342 44.8444 53.475C44.8 53.6967 44.9778 53.7854 45.2 53.8076C45.2889 53.8298 45.3556 53.8741 45.4889 53.9406C44.9556 54.3397 44.1778 54.2732 43.7778 54.894C43.7111 54.9827 43.2 54.8053 43.1333 54.894C42.7556 55.4483 42.2667 55.2709 41.7556 55.3374C41.3111 55.4039 40.8889 55.7808 40.4444 55.8695C40.0444 55.9582 39.5778 55.7365 39.2 55.8695C38.7556 56.0247 38.3556 55.9582 37.9333 55.9139C36.7111 55.8252 35.2667 56.3129 33.9556 56.2021L33.6667 57.222C33.4444 57.222 33.2222 57.2441 33 57.1998C32.6222 57.1333 32.2667 57.0446 31.9111 56.8894C31.4667 56.712 31.2 57.0002 30.9111 57.222C30.2667 57.1776 29.7111 56.9781 29.3333 56.4903C28.8667 56.712 29.2444 57.0446 29.0889 57.2885C29 57.3106 28.8889 57.3772 28.8222 57.355C28.4889 57.222 28.1333 57.0889 27.7778 56.9559C27.1111 57.0889 26.4222 57.0002 25.4889 57.0224C25.9111 56.8672 26.2889 56.712 26.6667 56.579C25.8889 56.3351 25.0889 56.1577 24.2889 55.9804C24 55.9139 23.6889 55.8252 23.4444 55.67C22.9111 55.3374 22.3556 55.0048 21.8 54.6944H21.5556C21.2667 54.6944 21.0667 54.6279 20.8889 54.3175C20.7778 54.1402 20.4222 54.0515 20.1778 54.0293C19.2667 53.8963 18.5778 53.2533 17.6667 53.0981C17.0222 53.0094 16.4 52.8542 15.9556 52.2778L15.9333 52.2999L15.8667 52.2556L15.9556 52.2778C16.0889 52.0339 16.2222 51.8122 16.4 51.5018C16.5556 51.5018 16.8 51.4574 17 51.5018C17.4 51.5905 17.8222 51.6791 18.2222 51.79C18.1556 51.7235 18.0889 51.657 18.0444 51.5683C17.5333 51.3466 17.0667 51.0583 16.6222 50.7258V50.7701C16.4444 50.7701 16.2444 50.8588 16.1111 50.7923C15.8667 50.6814 15.6444 50.4819 15.4 50.3267C15.7111 50.3932 16.0222 50.4597 16.3333 50.5262C15.7333 50.0385 15.2 49.4842 14.7333 48.8856C14.7333 48.8856 14.7333 48.8634 14.7111 48.8634L14.6222 48.8412C14.3111 48.7747 14.0222 48.686 13.7556 48.5308C13.7556 48.5308 13.7778 48.553 13.8 48.553C13.7778 48.553 13.7333 48.553 13.7111 48.553H13.7333H13.7111L13.7556 48.5087C13.7556 48.5087 13.7556 48.5087 13.7778 48.5308C13.6444 48.4643 13.5333 48.3756 13.4222 48.2648C13.8667 48.2204 14.2667 48.3313 14.5556 48.6417C14.4 48.4643 14.2667 48.2648 14.1333 48.0652L13.1556 47.7105C13.2667 47.8657 13.3556 48.0209 13.4 48.2648C13.2 48.4421 13.1556 48.6639 13.3333 48.8634C13.5556 49.1073 13.8222 49.2846 14.0889 49.462C14.4889 49.7502 14.9111 49.9941 15.3111 50.2824C14.9778 50.3045 14.6222 50.3489 14.2444 50.371C13.3111 49.7502 12.8667 48.553 11.6667 47.8435C11.8667 48.6195 11.8 49.2181 12.2222 49.7281C12.3778 49.9054 12.2667 50.3489 12.2444 50.6593C12.2444 50.7258 12.0444 50.7923 11.8444 50.881C11.7778 50.6593 11.6889 50.5041 11.6667 50.3489C11.6 49.8389 11.4222 49.462 10.9111 49.2846C10.8 49.2403 10.7333 48.9964 10.6667 48.819C10.3333 48.6639 10.0667 48.5087 9.95556 48.0652C9.68889 47.001 9.42222 45.9146 8.91111 44.9391C8.68889 44.5178 8.6 44.0744 8.15556 43.764C7.86667 43.5645 7.73333 43.0324 7.64444 42.6333C7.37778 41.6577 7.15556 40.66 6.95556 39.6845C6.8 38.9972 6.64444 38.2877 6.93333 37.6004C6.86667 37.4009 6.77778 37.2013 6.71111 37.0018L6.66667 37.0239L6.62222 36.7136C6.55556 36.4918 6.46667 36.248 6.42222 36.0041C6.11111 36.3366 6.08889 36.4475 6.08889 37.7999C6.08889 38.5316 6.2 39.2411 6.28889 39.9727C6.35556 40.6379 6.44444 41.2808 6.53333 42.0125C6.33333 42.079 6.11111 42.212 5.93333 42.1677C5.68889 42.1233 5.6 41.8573 5.66667 41.5912C5.93333 40.3275 5.42222 39.108 5.44444 37.8443C5.44444 37.6669 5.26667 37.5117 5.22222 37.3343C5.08889 36.9796 5 36.6249 4.86667 36.2701C4.55556 35.9597 4.68889 35.5606 4.66667 35.2059C4.64444 34.2969 4.62222 33.3879 4.24444 32.501C3.93333 31.7915 4.15556 30.5056 4.66667 29.5079C4.95556 30.2395 4.66667 30.9047 4.77778 31.5476C4.88889 32.1684 5.08889 32.7449 5.24444 33.2992C5.51111 33.41 5.68889 33.3879 5.77778 33.2327C5.68889 33.1218 5.6 32.9888 5.53333 32.8779C5.31111 32.4788 5.22222 32.0354 5.55556 31.7028C5.82222 31.4146 5.93333 31.1264 5.93333 30.8382V30.7273C5.93333 30.4834 5.84444 30.2395 5.77778 29.9957C5.68889 29.7296 5.51111 29.5079 5.46667 29.2418C5.42222 29.0423 5.53333 28.7984 5.57778 28.5767C5.46667 28.4658 5.35556 28.355 5.24444 28.2441L5.4 28.1333L5.62222 28.5545C5.71111 28.2885 5.82222 28.0446 5.88889 27.7564C6.08889 26.7808 6.26667 25.8275 6.46667 24.8519C6.55556 23.8986 6.66667 22.923 7.22222 22.0805V21.9697C7.22222 21.8366 7.24444 21.7258 7.26667 21.6149C7.22222 21.7036 7.15556 21.7923 7.08889 21.881L6.88889 21.7701C6.93333 21.6371 6.93333 21.4819 7 21.3489C7.04444 21.2602 7.17778 21.1493 7.24444 21.1715C7.28889 21.1937 7.31111 21.2158 7.33333 21.238C7.42222 20.8611 7.57778 20.4842 7.75556 20.1295C7.46667 20.595 7.44444 20.5729 7.13333 20.2847C7.17778 19.9299 7.33333 20.0851 7.44444 20.0851C7.57778 20.0629 7.68889 20.0629 7.82222 20.0408H7.8C7.82222 20.0186 7.82222 19.9964 7.84444 19.9521C7.88889 19.8191 7.93333 19.7082 8 19.5973C8 19.5752 8.02222 19.5752 8.04445 19.5752L8.17778 19.3313C8.42222 18.8879 8.71111 18.4666 8.86667 17.9345C9.02222 17.4024 9.4 16.9811 9.97778 16.8481L10.0222 16.6929L10.0444 16.6486C9.73333 16.2717 9.75556 16.2051 10 15.8947L10.1111 15.7395L10.0222 15.7174C9.75556 16.2717 9.71111 16.316 9.37778 16.1165C10.2889 14.9192 11.4889 13.9658 12.0889 12.4804C11.5778 12.17 11.4 12.9903 10.9111 12.8795C10.9333 12.8351 10.9333 12.7908 10.9333 12.7464C10.7778 12.7908 10.6 12.8129 10.4 12.7908C10.6667 12.303 10.6667 12.303 11.6444 11.6822L11.6667 11.7044C12.1778 11.1723 12.7333 10.6845 13.3333 10.2632C14 9.81982 14.6444 9.37639 15.3333 8.9108C15.4222 8.79994 15.5111 8.71126 15.6444 8.68909L16.3778 8.20132C16.3778 8.17915 16.4 8.15698 16.4 8.1348C16.5111 7.97961 16.6222 7.86875 16.8222 7.89092L16.9778 7.78006C16.4222 7.60269 16.0667 8.11263 15.6222 8.1348L15.1556 8.31217C15.2889 8.22349 15.4222 8.1348 15.5556 8.04612C15.7333 7.64704 16.0222 7.40315 16.4222 7.27012C16.6222 7.20361 16.8 7.04841 16.9778 6.93756L17.2889 6.80453L17.2 6.78236C17.2222 6.73802 17.2222 6.6715 17.2444 6.6715C17.3111 6.6715 17.4 6.69367 17.4667 6.71584V6.73802L17.6667 6.64933L16.9778 6.6715C17.1778 6.42762 17.4222 6.42762 17.6889 6.47196C17.8222 5.85117 18.3556 5.71814 18.8 5.49643C19.9333 4.96431 21.1111 4.56523 22.2 3.96661C23.2 3.41233 24.2 3.23496 25.2889 3.39016C25.6 3.2793 25.9111 3.16844 26.2 3.10193C26.0667 3.21279 25.9556 3.32364 25.8222 3.4345C26.8222 3.23496 27.8 3.03542 28.8 2.83588C28.9778 2.74719 29.1778 2.65851 29.4222 2.52548C29.1778 2.39245 28.9556 2.21508 28.9111 2.23725C28.4667 2.68068 27.8889 2.52548 27.2667 2.74719C27.3556 2.52548 27.3778 2.37028 27.4444 2.30377C27.8 2.05988 28.1778 1.83817 28.6 1.54994C29.2 1.83817 29.8 1.68297 30.4667 1.41692C31.1111 1.15086 31.8444 1.08435 32.5333 0.906976C32.7111 0.862634 32.8889 0.751777 33.0667 0.685264H33.0222L33.6889 0.507894H33.6444C34.1111 0.397037 34.6222 0.374866 35.0444 0.175325C35.7778 -0.0907301 36.4889 0.308352 37.1778 -0.0020451ZM33.0667 56.5125C33.0667 56.5125 33 56.5346 32.9778 56.5568C33 56.6012 33 56.6455 33.0222 56.6677C33.0222 56.6677 33.0889 56.6455 33.1111 56.6233C33.0889 56.579 33.0889 56.5346 33.0667 56.5125ZM32.3111 56.3129C32.2889 56.3129 32.2444 56.3351 32.2222 56.3573C32.2222 56.3573 32.2444 56.4016 32.2444 56.446L32.3556 56.4016C32.3333 56.3573 32.3333 56.3129 32.3111 56.3129ZM49.8889 55.0713C49.9778 55.0492 50.1111 55.0048 50.1556 55.027C50.2222 55.0713 50.2 55.1822 50.2222 55.2931C50.1556 55.3374 50.0889 55.4039 50.0222 55.4704L49.8889 55.0713ZM26.7556 54.7609C26.7333 54.7388 26.6444 54.7831 26.6222 54.8053C26.6 54.8718 26.5556 55.0048 26.6 55.0492C26.7556 55.1822 26.9333 55.2931 27.1111 55.4039C27.1556 55.4261 27.2667 55.3374 27.3333 55.2931C27.3333 55.2044 27.3556 55.0713 27.3111 55.0492C27.1556 54.9161 26.9556 54.8496 26.7556 54.7609ZM51.5778 54.0958L51.6667 54.1623L51.4 54.5614C51.3333 54.5171 51.2667 54.4727 51.2 54.4506L51.5778 54.0958ZM18.5111 54.2288L18.6889 54.3619L18.4667 54.4284L18.5111 54.2288ZM47.2667 53.8741C47.2889 53.8519 47.4444 53.9628 47.5333 54.0071L47.3778 54.3397C47.2667 54.3397 47.1778 54.3175 47.0667 54.3175C47.1333 54.1623 47.1778 54.0071 47.2667 53.8741ZM16.6222 53.8741C16.7333 53.9406 16.8667 54.0071 16.9778 54.0958C16.8889 54.1845 16.8 54.2732 16.6889 54.3397C16.6444 54.3619 16.5111 54.2732 16.5111 54.251C16.5333 54.118 16.6 54.0071 16.6222 53.8741ZM37.1111 53.985L37.0222 54.0736L37.1333 54.0958L37.1111 53.985ZM12.8667 52.2778C13.7778 52.3665 13.7778 52.3665 14.7111 53.6746C14.6667 53.7411 14.5778 53.8963 14.5556 53.8741C13.9333 53.475 13.4 52.9651 12.8667 52.2778ZM43.3111 51.9895C43.2889 51.9895 43.2667 52.0117 43.2667 52.0117C42.6222 52.2999 42 52.566 41.3556 52.8321L40.0667 53.3642C40.9333 53.2976 41.8 53.209 42.6667 53.0981C43.0444 53.0538 43.4 52.8764 43.7556 52.7212C43.8444 52.6768 43.9556 52.4773 43.9333 52.3665C43.9333 52.2556 43.8222 52.0782 43.7111 52.0561C43.6 52.0561 43.4667 52.0117 43.3111 51.9895ZM41.5778 52.2999C41.5556 52.2999 41.5333 52.2999 41.5333 52.2999C40.9333 52.3665 40.3111 52.4995 39.7111 52.6325C39.6 52.6547 39.4889 52.8099 39.4222 52.9207C39.4 52.9872 39.4444 53.0981 39.4889 53.2311C39.6 53.2533 39.7111 53.3198 39.8444 53.3642C39.9333 53.2533 40.0222 53.1646 40.1333 53.0981C40.6 52.832 41.0889 52.566 41.5778 52.2999ZM6.8 52.8542L6.95556 52.8764L6.86667 53.0538L6.8 52.8542ZM14 51.5905C14.3111 51.7678 14.6222 51.9674 14.9333 52.1447C15.2444 52.3443 15.5333 52.5217 15.8444 52.7212C15.3333 52.5882 14.8222 52.4773 14.3111 52.2999C14.1333 52.2334 14.0222 51.9452 14 51.5905ZM45.7778 51.1914C45.4667 51.0583 44.9556 51.3687 44.9333 51.7235C44.9333 51.7678 44.9556 51.8343 44.9778 51.8565C45.0667 51.923 45.2222 51.923 45.3778 51.8565L45.4 51.7235L45.5333 51.8122C45.7333 51.7235 45.8889 51.5683 45.9333 51.4131C45.9333 51.3687 45.9111 51.3244 45.9111 51.2801C45.8444 51.2579 45.8222 51.2135 45.7778 51.1914ZM47.5333 51.3909C47.4 51.4353 47.2889 51.4574 47.1778 51.5018C47.1556 51.5018 47.1556 51.6348 47.1556 51.6348C47.2667 51.657 47.4 51.6791 47.5111 51.7013L47.5333 51.3909ZM49.6667 49.5285C49.3333 49.6616 49.0222 49.7946 48.6889 49.9498C48.6444 49.972 48.6 49.972 48.5556 49.9941C48.4 50.1272 48.2222 50.2602 48.0444 50.3932C47.7333 50.6149 47.6889 51.0362 47.8889 51.2801C48.0889 51.5239 48.4 51.5683 48.6667 51.4131C48.6889 51.4131 48.6889 51.3909 48.6889 51.3909C48.5556 51.2357 48.4889 51.014 48.6 50.7923C48.8222 50.371 49.1556 50.0385 49.4889 49.7059C49.5556 49.6394 49.6 49.5729 49.6667 49.5285ZM9.8 50.0828L9.97778 50.238L9.75556 50.3489L9.8 50.0828ZM15.6 50.1715C15.6444 50.1937 15.6889 50.238 15.7333 50.2602L15.5556 50.2158L15.4889 50.1715C15.5333 50.1715 15.5556 50.1715 15.6 50.1715ZM4.73333 49.3068C4.77778 49.595 4.8 49.7946 4.82222 49.9941C4.31111 49.8611 4.15556 49.6837 4.73333 49.3068ZM8.17778 45.183L9.62222 49.7502C9.31111 49.5507 9.13333 49.4842 9.04445 49.3512C8.75556 48.9521 8.46667 48.553 8.22222 48.1317C8.11111 47.9322 8.02222 47.6661 8.02222 47.4444C8.04444 46.7571 8.13333 46.0476 8.17778 45.183ZM10.4222 47.4888C10.5111 47.9544 10.6 48.42 10.6889 48.8634C10.8222 48.9077 10.9778 48.9521 11.3111 49.0408C10.9333 48.3978 10.8 47.8657 10.4222 47.4888ZM57.8667 47.2449C57.8222 47.3558 57.8 47.4666 57.7556 47.5331C57.6889 47.5996 57.5778 47.6218 57.4222 47.6883C57.5111 47.5109 57.5333 47.3558 57.6 47.2892C57.6444 47.2449 57.7556 47.2671 57.8667 47.2449ZM53.3333 45.6042C53.3111 45.6264 53.2889 45.6486 53.2889 45.6707C53.1778 45.8481 52.9556 46.0476 52.7111 46.2915C52.8222 46.2915 52.9556 46.2915 53.0667 46.2915C53.0889 46.2915 53.2444 46.2694 53.3333 46.2694C53.3778 46.225 53.4 46.2028 53.4444 46.1585C53.6 46.0033 53.7333 45.8481 53.8889 45.6929C53.9111 45.6707 53.9333 45.6264 53.9556 45.6042C53.8 45.6264 53.6222 45.6264 53.4444 45.6042C53.4 45.6042 53.3556 45.6042 53.3333 45.6042ZM11.4889 45.9368C11.5333 46.0255 11.6 46.092 11.6444 46.1585L11.9111 46.2472C11.7778 46.1585 11.6222 46.0476 11.4889 45.9368ZM58.1556 45.449L58.5111 45.6042L58.3778 45.8703C58.2889 45.8259 58.2222 45.7816 58.1333 45.7372C58.1333 45.6264 58.1333 45.5377 58.1556 45.449ZM57.7111 44.7839C57.7333 44.8726 57.7556 44.9613 57.7556 45.0499C57.6667 45.0721 57.6 45.0943 57.5111 45.1165C57.5778 45.0056 57.6444 44.8947 57.7111 44.7839ZM54.9556 43.9414C54.8667 44.0966 54.8 44.2961 54.7333 44.54L55.1111 44.407C55.0667 44.2518 55 44.0966 54.9556 43.9414ZM7.04444 43.121L7.35556 44.2296C7.26667 44.2518 7.2 44.2518 7.11111 44.2739C7.04444 43.897 6.95556 43.5423 6.88889 43.1654C6.93333 43.1654 7 43.1432 7.04444 43.121ZM58.2222 43.6975L58.0667 43.9192L57.9556 43.7418L58.2222 43.6975ZM58.3111 43.2319L58.4667 43.4314L58.1778 43.5201L58.3111 43.2319ZM11.0444 41.8573C11.0444 41.946 11.0444 42.0346 11.0667 42.1233C11.1556 42.3229 11.2889 42.5002 11.4 42.6998C11.3778 42.5889 11.3556 42.5002 11.3333 42.3894C11.3111 42.1898 11.2 42.0125 11.0444 41.8573ZM58.3111 42.1233L58.4222 42.2564L58.2222 42.3007L58.3111 42.1233ZM8.15556 41.9903V42.1012L8.26667 42.0568L8.15556 41.9903ZM7.97778 40.5713C7.88889 40.5935 7.8 40.7044 7.8 40.7709C7.84444 40.9704 7.91111 41.17 7.97778 41.3695C8.06667 41.3473 8.17778 41.3252 8.26667 41.2808C8.22222 41.0813 8.2 40.8596 8.15556 40.66C8.15556 40.6157 8.02222 40.5492 7.97778 40.5713ZM4.84444 39.7954L4.91111 40.0614L4.71111 40.0392L4.84444 39.7954ZM57.7111 39.4184C57.6444 39.4184 57.5333 39.3741 57.5111 39.4184C57.4667 39.485 57.4222 39.5958 57.4 39.6845C57.4 39.7288 57.3778 39.751 57.3778 39.7954C57.4 39.8175 57.5111 39.8619 57.6444 39.9284C57.6667 39.7288 57.6889 39.5736 57.7111 39.4184ZM3.44444 35.5828C3.55556 35.7158 3.71111 35.8489 3.77778 36.0041C4.13333 37.0461 4.37778 38.1325 5.04444 39.0859C5.08889 39.1524 5.02222 39.4406 4.93333 39.4406C4.77778 39.485 4.53333 39.485 4.4 39.4184C4.24444 39.3298 4.11111 39.1302 4.08889 38.9528C3.86667 37.8221 3.64444 36.6914 3.44444 35.5828ZM7.97778 36.4918L8.02222 36.6249C8.04444 36.7135 8.08889 36.7801 8.11111 36.8687L8.2 37.0683C8.24444 37.0018 8.22222 36.9131 8.13333 36.7579C8.06667 36.6692 8.02222 36.5805 7.97778 36.4918ZM5.44444 34.2304C5.4 34.186 5.22222 34.1639 5.2 34.186C5.11111 34.3191 4.95556 34.4964 4.97778 34.6516C5.04444 35.2059 5.26667 35.7824 4.86667 36.3145C5.04444 36.4253 5.22222 36.5362 5.44444 36.6914C5.73333 36.0041 5.35556 35.2724 5.73333 34.6738C5.75556 34.6073 5.55556 34.3634 5.44444 34.2304ZM8.08889 36.0706C8.04445 36.0928 7.93333 36.1149 7.93333 36.1593C7.91111 36.2258 7.93333 36.2923 7.93333 36.381C7.97778 36.3366 8.04444 36.2701 8.06667 36.2036C8.08889 36.1593 8.08889 36.1149 8.08889 36.0706ZM8.13333 34.9842C8.06667 35.0285 7.95556 35.0729 7.95556 35.095C7.97778 35.2059 8.04445 35.2946 8.08889 35.3833L8.22222 35.2059L8.13333 34.9842ZM7.2 32.9001H7.08889C7.06667 33.1218 7.04444 33.3213 7.02222 33.5431C7.02222 33.5652 7.08889 33.5874 7.13333 33.6096C7.17778 33.5874 7.24444 33.5652 7.24444 33.5431C7.24444 33.3213 7.22222 33.0996 7.2 32.9001ZM60.6 32.2571C60.6222 32.3015 60.6444 32.3458 60.6444 32.3902C60.6444 32.4345 60.6222 32.4567 60.6222 32.501C60.6 32.4567 60.6 32.4345 60.5778 32.3902C60.5778 32.3458 60.6 32.3015 60.6 32.2571ZM0 32.368H0.111111L0.0444444 32.501L0 32.368ZM7.08889 31.4146V31.9246C7.17778 31.7915 7.24444 31.6585 7.31111 31.5255C7.22222 31.5033 7.15556 31.459 7.08889 31.4146ZM6.53333 28.0668C6.51111 28.3993 6.48889 28.7541 6.48889 29.0866C6.48889 29.264 6.62222 29.4414 6.64444 29.6187C6.66667 29.8183 6.75556 30.04 6.75556 30.2617H6.77778C6.66667 29.6853 6.6 29.0866 6.55556 28.488C6.53333 28.355 6.53333 28.1998 6.53333 28.0668ZM61.3111 27.1134C61.7556 27.9559 62 28.8649 62 29.8626C61.6889 28.9758 61.3333 28.1111 61.3111 27.1134ZM57.9333 26.7365C57.7556 26.7365 57.6222 26.803 57.5111 26.8695C57.8889 27.579 57.9333 28.2441 58.1111 29.0201C58.1333 29.1532 58.1556 29.3084 58.1778 29.4414C58.3556 28.5545 58.3333 27.6455 57.9333 26.7365ZM60.5111 25.7388C60.6222 26.3596 60.7333 26.9582 60.8444 27.579C60.4889 27.0247 60.2222 26.4704 60.5111 25.7388ZM5.88889 25.7388C5.91111 25.9605 5.95556 26.16 5.97778 26.4261C5.37778 26.2044 5.37778 26.2044 5.88889 25.7388ZM60.9556 26.0713L61.2 26.2265L60.9778 26.3596C60.9778 26.3374 60.9556 26.0713 60.9556 26.0713ZM57.4 25.4284C57.3556 25.4949 57.2889 25.6058 57.3111 25.6501C57.3556 25.7388 57.4444 25.8275 57.5333 25.894L57.6889 25.6279C57.5778 25.5614 57.4889 25.4949 57.4 25.4284ZM57.1333 24.209C57.1111 24.2311 57.0667 24.2533 57.0667 24.2976C57.0667 24.3198 57.0889 24.3642 57.1111 24.4085L57.1778 24.3198C57.1778 24.2976 57.1556 24.2533 57.1333 24.209ZM56.7556 23.1004C56.7333 23.0782 56.6889 23.1004 56.6444 23.1004L56.7111 23.2334L56.8 23.1669C56.8 23.1447 56.7778 23.1004 56.7556 23.1004ZM9.2 18.7327C8.62222 19.8634 8.02222 20.9941 7.33333 22.0805L7.2 22.0584L7.33333 22.0805C7.33333 22.147 7.33333 22.2136 7.33333 22.2579C7.77778 21.3267 8.33333 20.462 8.88889 19.5973C8.91111 19.5752 8.93333 19.553 8.93333 19.5308C9.04445 19.2869 9.11111 18.9987 9.2 18.7327ZM55.5778 21.0163C55.5556 21.0828 55.5111 21.1715 55.5333 21.2158C55.5556 21.2602 55.6667 21.2602 55.7333 21.2824C55.7111 21.2158 55.7111 21.1272 55.6889 21.0606C55.6889 21.0385 55.6222 21.0163 55.5778 21.0163ZM60.8444 20.4842L61.4222 21.0606L61.5333 21.1715C61 20.8611 60.9778 20.8389 60.8444 20.4842ZM60.5556 20.1073C60.5778 20.1295 60.5778 20.1516 60.6 20.196L60.6222 20.2403C60.6444 20.2625 60.6444 20.2847 60.6444 20.329C60.6444 20.3733 60.6444 20.3955 60.6444 20.4398L60.6 20.329C60.5778 20.3512 60.5778 20.3733 60.5778 20.3512C60.5778 20.2847 60.5778 20.2403 60.5778 20.1738V20.2625L60.5556 20.2403L60.5778 20.2181L60.5556 20.1073ZM60.3111 18.8879C60.4222 18.9544 60.5778 18.9765 60.6222 19.0652C60.6444 19.1317 60.5333 19.2426 60.4889 19.3535C60.3778 19.2869 60.2667 19.2426 60.1556 19.1761C60.2 19.0652 60.2667 18.9765 60.3111 18.8879ZM5.31111 18.3114L5.37778 18.5553L5.17778 18.511L5.31111 18.3114ZM6.8 17.4024C6.84444 17.358 6.95556 17.3802 7.04444 17.3802C7.06667 17.4689 7.06667 17.5576 7.08889 17.6463C6.95556 17.6463 6.82222 17.6463 6.66667 17.6463C6.71111 17.5576 6.73333 17.4467 6.8 17.4024ZM8.8 17.092C8.82222 17.1807 8.86667 17.2694 8.88889 17.3802C8.8 17.4024 8.68889 17.4911 8.64444 17.4689C8.57778 17.4246 8.55556 17.2915 8.53333 17.2028C8.62222 17.1585 8.71111 17.1363 8.8 17.092ZM5.73333 17.1807L5.82222 17.3802H5.64444L5.73333 17.1807ZM7.44444 16.6486C7.55556 16.6929 7.68889 16.7594 7.8 16.8038C7.73333 16.8703 7.64444 16.9368 7.57778 17.0033C7.48889 16.9811 7.42222 16.959 7.33333 16.9368C7.37778 16.8481 7.42222 16.7372 7.44444 16.6486ZM7.97778 15.4513C8.06667 15.4735 8.24444 15.4957 8.24444 15.4957C8.22222 15.6287 8.15556 15.7617 8.11111 15.8947L7.82222 15.8061C7.88889 15.6952 7.93333 15.5843 7.97778 15.4513ZM8.17778 14.3871C8.24444 14.4314 8.31111 14.4758 8.37778 14.5201L8.26667 14.6975C8.22222 14.5866 8.2 14.498 8.17778 14.3871ZM10.0222 13.6333C10.0444 13.6333 10.1111 13.6776 10.1111 13.6998C10.1556 14.0767 9.73333 14.121 9.53333 14.3206C9.46667 14.2319 9.42222 14.1876 9.44444 14.1876C9.55556 13.9437 9.62222 13.6554 10.0222 13.6333ZM9.35556 12.5025C9.4 12.4804 9.53333 12.5247 9.64444 12.5469C9.53333 12.6799 9.44444 12.8129 9.31111 12.946C9.28889 12.9681 9.13333 12.9016 8.95556 12.8573C9.11111 12.7243 9.22222 12.5912 9.35556 12.5025ZM13.4222 9.39857V9.62028L13.2 9.50942L13.4222 9.39857ZM15.1556 8.20132C15.0889 8.31217 15.0222 8.42303 14.9333 8.53389C14.9111 8.55606 14.7778 8.48954 14.7111 8.46737C14.8444 8.37869 15 8.29 15.1556 8.20132L14.9333 8.33434L14.9556 8.31217L15.1556 8.20132ZM15.7556 8.29C15.6667 8.35652 15.5778 8.40086 15.4889 8.46737L15.4444 8.42303C15.5556 8.35652 15.6667 8.31217 15.7556 8.29ZM46.9556 6.40545C46.9111 6.42762 46.8444 6.47196 46.8 6.49413C46.8222 6.5163 46.8444 6.56065 46.8889 6.58282C46.9333 6.56065 46.9778 6.56065 46.9778 6.5163C46.9778 6.49413 46.9778 6.44979 46.9556 6.40545ZM45.1111 4.78695C45.2222 5.5186 45.4889 5.69597 46.3333 5.74031L45.1111 4.78695ZM22.8222 5.00866C22.8 5.03083 22.7556 5.053 22.7333 5.07517C22.7333 5.09734 22.7556 5.11951 22.7556 5.14169H22.7778C22.8222 5.11951 22.8444 5.07517 22.8889 5.053C22.9111 5.03083 22.8222 5.00866 22.8222 5.00866ZM24.8444 4.43221C24.5556 4.45438 24.2889 4.45438 24.0222 4.52089L23.9111 4.56523C23.8 4.63175 23.6889 4.69826 23.5556 4.83129C24.0889 4.94214 24.4444 4.78694 24.8444 4.43221ZM26.4889 2.41462C26.6222 2.48114 26.7556 2.54765 26.8667 2.63633C26.8889 2.63633 26.8 2.79153 26.7556 2.85805C26.6444 2.79153 26.5111 2.72502 26.4 2.63633C26.3778 2.63633 26.4667 2.50331 26.4889 2.41462ZM32.6889 2.05988C32.6444 1.9712 32.4444 1.92685 32.3333 1.94903C32.1778 1.99337 32.0222 2.05988 31.8667 2.1264C32.1111 2.08205 32.3778 2.05988 32.6 2.10422C32.6222 2.10422 32.6667 2.10422 32.6889 2.1264C32.6889 2.10422 32.6889 2.08205 32.6889 2.05988ZM33.5333 1.61646C33.6667 1.77166 33.7778 1.92685 33.8444 2.03771C33.9778 1.99337 34.0889 1.9712 34.2222 1.90468C34.2889 1.88251 34.3778 1.86034 34.4444 1.83817L33.5333 1.61646ZM41.6889 1.90468L41.5556 2.03771L41.4222 1.90468H41.6889ZM37.6444 1.59428C37.9556 1.17303 38.2889 1.1952 38.8 1.54994C38.3333 1.92685 38 1.63863 37.6444 1.59428ZM29.6889 1.04C29.8222 1.08435 29.9556 1.12869 30.0667 1.1952C30.0889 1.1952 30.0444 1.37257 30.0222 1.46126C29.8889 1.48343 29.7556 1.48343 29.6 1.5056C29.6444 1.3504 29.6667 1.1952 29.6889 1.04Z" fill="#00386C"/>
<path fill-rule="evenodd" clip-rule="evenodd" d="M23.0448 42.6136C22.9337 42.658 22.9781 42.8132 22.8226 42.9019C22.3781 43.1679 21.867 43.5005 21.4892 43.6113C21.4003 43.6557 21.2892 43.7665 21.1337 43.8552L21.2226 43.9661C21.2448 43.9661 21.2448 43.9661 21.267 43.9439C21.2892 43.9439 21.2892 43.9217 21.3337 43.9217C21.1114 44.0104 20.7337 44.2543 20.6003 44.2543C20.4892 44.2543 20.0225 44.1656 19.9114 44.1656C19.8003 44.1878 19.7559 44.1878 19.4225 44.0548C19.3781 44.0104 19.1781 44.0326 19.0892 43.9439C18.5559 43.4783 18.2003 42.9019 17.9559 42.3254C17.7337 41.749 17.667 40.9065 17.667 40.3522C17.667 39.1993 18.067 37.6916 19.1337 36.7826C19.7337 36.2948 20.8448 35.541 21.2448 35.541C21.467 35.541 21.6003 35.8071 21.7337 35.8514C22.1781 36.0953 22.7781 36.7161 23.0003 37.093C23.1337 37.3369 23.1337 37.6473 23.0892 37.6473C22.9559 37.6251 23.0448 37.9133 23.0003 38.002C22.8892 38.1794 22.7559 38.4011 22.5781 38.5563C22.3559 38.7558 21.8226 39.2214 21.6892 39.2214C21.5114 39.2214 21.2003 38.9776 21.2003 38.8224C21.2003 38.7337 21.6003 38.1129 21.5559 37.8247C21.5559 37.7581 21.6226 37.6916 21.6226 37.6029C21.6226 37.4921 21.5781 37.2039 21.5337 37.0043C20.867 37.4477 20.5781 38.0242 20.2892 38.512C19.867 39.2436 19.5559 40.1083 19.4225 40.8399C19.4225 40.9286 19.3337 41.0617 19.2892 41.1725C19.267 41.2834 19.2448 41.4386 19.2003 41.6824C19.1781 41.9042 19.1559 42.0372 19.1559 42.0815C19.1559 42.1924 19.1559 42.5028 19.2003 42.6802C19.2003 42.791 19.467 43.4783 19.6892 43.4783C19.8003 43.4783 20.0892 43.3453 20.2448 43.301C21.5781 42.9462 22.3337 42.5915 23.3781 42.2589C23.3559 42.3919 23.1337 42.525 23.0448 42.6136Z" fill="#FEFEFE"/>
<path fill-rule="evenodd" clip-rule="evenodd" d="M26.7107 40.7289L26.6662 40.6846C26.644 40.6624 26.6218 40.6624 26.6218 40.6181C26.6218 40.2411 26.5996 39.8642 26.5551 39.443C25.4218 40.0638 24.8662 41.3941 24.5107 42.2366C24.3773 42.5691 24.1551 42.9682 24.0662 43.3451C23.9773 43.7442 24.0885 44.1211 24.0885 44.5645C24.044 44.5645 23.9773 44.6532 23.8662 44.6532C23.7551 44.6532 23.7329 44.5424 23.7329 44.5645C23.7107 44.6089 23.7107 44.6532 23.7329 44.6976C23.5996 44.6532 23.444 44.6754 23.3996 44.5867C23.3551 44.6311 23.3107 44.6311 23.2662 44.6754C22.8885 44.1655 22.7773 43.9216 22.7773 43.5003C22.7773 42.4583 23.2885 39.7977 23.3996 39.1326C23.444 39.0439 23.3773 38.933 23.3773 38.8444V38.6005C23.4885 38.6005 23.5773 38.534 23.6662 38.534C23.7773 38.534 23.9107 38.7557 24.0218 38.7557C24.1107 38.7557 23.9996 38.7113 24.1107 38.7113C24.2218 38.7113 24.2218 38.8 24.244 38.8444C24.7329 38.9552 24.5773 39.3986 24.6885 39.7534C25.3107 39.0661 25.6218 38.7335 26.1773 38.7335C26.2885 38.7335 26.4662 38.7557 26.7107 38.8222C26.9551 38.8665 27.1329 38.933 27.2662 39.0217C27.3329 39.0661 27.3551 39.1326 27.3551 39.2656C27.3329 39.443 26.844 40.2411 26.7107 40.7289ZM29.5107 40.1081C29.4662 39.8642 29.3773 39.576 29.2662 39.3765C28.6662 40.3742 28.5107 41.2167 28.3329 41.9262C28.2885 42.1035 28.1551 42.3031 28.1329 42.3918C28.0218 42.7022 27.9551 43.456 27.9551 43.5447C27.9329 43.6555 27.9996 43.8772 28.0662 44.0324C28.5996 43.8551 29.4662 42.3696 29.5107 41.5492C29.5329 41.4384 29.5107 40.5959 29.5107 40.1081ZM30.244 43.5447C30.1996 43.589 30.1551 43.6777 30.1329 43.7664C30.0885 43.7664 30.044 43.7885 30.0218 43.8107C29.9107 44.0103 29.6218 44.3207 29.3107 44.4759C28.9996 44.5867 28.444 44.7197 28.3551 44.7197C28.244 44.7197 28.0218 44.6532 27.9329 44.6089C26.8885 44.232 26.8885 43.3451 26.8885 42.813C26.9551 41.3497 27.8885 39.5317 28.9107 38.3788C29.0218 38.2679 29.4218 38.2901 29.5107 38.2901C29.6218 38.2901 29.6885 38.4009 29.7773 38.4896C29.6885 38.6005 29.5773 38.7778 29.5329 38.8665C29.6662 38.9109 29.8662 38.8887 30.0218 38.9109C30.3329 38.9996 30.3107 39.2878 30.3773 39.4208C30.5329 39.6425 30.644 39.8421 30.7996 40.1525C30.8218 40.1968 30.7996 40.3298 30.7996 40.4407L30.8885 40.5737C30.9551 40.8398 30.9996 41.4606 30.9996 41.5492C30.9551 42.2809 30.5107 43.1677 30.244 43.5447ZM34.1996 39.8421C34.1551 39.7977 34.1996 39.7534 34.1551 39.7534C33.844 40.1081 33.2662 40.8841 33.1551 41.3275C33.1107 41.4162 33.0218 41.5714 32.9773 41.7266C32.9996 41.7044 32.9996 41.6823 32.9996 41.6823L33.0218 41.7045C32.8218 42.1479 32.7107 42.3474 32.4662 43.1012C33.5551 41.6823 34.1996 40.5072 34.5329 39.6425C34.444 39.6647 34.3551 39.7312 34.1996 39.8421ZM35.5329 41.2389C35.4885 41.5714 35.4218 42.0148 35.3107 42.4361C35.244 42.8352 35.1551 43.3451 35.1551 43.3895C35.1551 43.4781 35.1996 43.9659 35.2662 44.2541H35.244C35.2218 44.2541 35.2218 44.2763 35.1996 44.2985C35.2885 44.3872 35.3773 44.4759 35.5329 44.5424C35.444 44.5424 35.3107 44.6532 35.2218 44.6532C34.9773 44.6532 34.1996 44.0768 34.0662 43.589C33.9107 43.1456 33.9107 42.7465 33.9107 42.5913C33.9329 42.4139 33.9551 42.2809 33.9329 42.0592C33.7551 42.2366 33.644 42.5026 33.444 42.68C33.2662 42.9017 33.0885 43.1456 32.9107 43.5668C32.8662 43.6112 32.8885 43.7885 32.8218 43.8772C32.6662 44.1433 32.5329 44.4093 32.3329 44.5867C32.244 44.6754 32.0218 44.7641 31.9107 44.7641H31.7107C31.644 44.7641 31.5551 44.6089 31.4662 44.5645C30.9773 44.232 30.9773 43.8994 30.9773 43.6333C30.9773 43.323 31.0885 42.7465 31.1996 42.5691C31.3551 42.1922 31.5773 41.7044 31.8218 41.3054C32.1773 40.7067 32.9107 39.4208 33.7551 38.6005C33.7996 38.5561 33.8885 38.5783 33.9996 38.5783C34.3773 38.5783 34.7773 38.7335 35.1107 38.8222V38.9774C34.9551 39.2213 34.7329 39.31 34.7773 39.4873C34.9773 39.443 35.2662 39.4873 35.5329 39.5317C35.4885 39.7312 35.5773 40.1525 35.5773 40.2411C35.5773 40.2855 35.5773 40.9728 35.5329 41.2389ZM40.3773 39.4208C39.9773 39.6204 39.3107 39.9086 39.044 39.8642C38.9551 39.8642 38.5107 39.9529 38.4218 40.1081C38.3551 40.1968 38.2218 40.8176 38.1551 41.128C38.044 41.6379 37.7329 42.3696 37.7329 42.9904C37.7329 43.4781 37.8218 43.8107 38.4218 43.8107C39.0662 43.8107 39.9551 43.1012 40.4884 42.68C40.444 42.7908 40.4218 43.0791 40.2885 43.2343C40.1996 43.3895 40.0218 43.5668 39.844 43.6777C39.844 43.722 39.8885 43.7442 39.8885 43.7885C39.7996 43.9437 39.7551 44.1433 39.7329 44.2985C39.644 44.3428 39.5996 44.4093 39.5551 44.4537C39.4218 44.5867 38.9551 44.7197 38.7107 44.7197C38.444 44.7197 38.1107 44.6089 37.8218 44.4315C37.7551 44.365 37.6218 44.2098 37.4885 44.1211C37.444 44.0768 37.3773 44.1211 37.2885 44.0768C36.4885 43.2564 36.3996 42.4361 36.3996 41.6158C36.3996 41.5714 36.3773 41.5049 36.3773 41.3941C36.3329 41.3054 36.5329 40.0416 36.5329 39.9529C36.5329 39.8864 36.5107 39.8199 36.444 39.7534C36.3996 39.7312 36.3551 39.6425 36.3551 39.4873C36.3551 39.3986 36.1996 39.31 36.0885 39.2656C36.044 39.1548 36.0218 39.1104 36.0218 39.0217C36.0218 38.8 36.2662 38.8444 36.3551 38.8444C36.4662 38.8444 36.5107 38.8665 36.5996 38.8665C36.7107 38.8665 36.7329 38.8887 36.7773 38.7778C37.2218 37.5584 37.6662 36.9598 38.4218 36.0508C39.0884 36.8489 38.9773 37.8688 38.844 38.7778C39.1773 38.8222 39.644 38.8222 40.044 38.8665C40.444 38.9109 40.7329 38.9552 41.0662 39.0882C40.7996 39.2878 40.5329 39.3321 40.3773 39.4208Z" fill="#FEFEFE"/>
<path fill-rule="evenodd" clip-rule="evenodd" d="M41.7997 37.5138C41.7108 37.4916 41.5108 37.3807 41.3331 37.2699C41.3775 36.7156 41.6886 36.25 42.1997 36.25C42.3553 36.25 42.8219 36.4274 42.8886 36.4939C42.9331 36.5604 42.9331 36.6713 42.9331 36.7821C42.9331 37.2477 42.0219 37.5138 41.7997 37.5138ZM42.3775 44.0765C42.3775 44.3647 41.8664 44.7638 41.7331 44.7194C41.6219 44.7194 41.6442 44.5864 41.5553 44.5864C41.4442 44.5864 41.5553 44.6086 41.4442 44.6086C41.3331 44.5864 41.1331 44.3869 41.0442 44.3869C40.9331 44.3647 41.0664 44.4312 40.9553 44.409C40.9108 44.409 40.5775 43.9213 40.4664 43.6774C40.3553 43.5222 40.2664 43.2339 40.2219 43.0122C40.1553 42.724 40.1553 42.2141 40.1553 42.1032C40.1553 42.0145 40.2219 41.6376 40.2664 41.4602C40.3331 40.4625 40.6886 39.1101 41.5331 38.2232C41.9997 38.2676 42.2664 39.0214 42.2664 39.3761C42.2664 39.487 41.3997 43.0787 41.3997 43.2118L41.3775 44.0543C41.4219 44.0986 41.4442 44.0765 41.5553 44.0765C41.7997 44.0765 42.0442 43.8991 42.3775 43.7439V44.0765ZM45.6886 39.8417C45.6442 39.7974 45.6886 39.7531 45.6442 39.7531C45.3331 40.1078 44.7553 40.8838 44.6442 41.3272C44.5997 41.4159 44.5108 41.5711 44.4664 41.7263C44.4886 41.7041 44.4886 41.682 44.4886 41.682L44.5108 41.7041C44.3108 42.1476 44.1997 42.3471 43.9553 43.1009C45.0442 41.682 45.6886 40.5069 46.0219 39.6422C45.9108 39.6644 45.8442 39.7309 45.6886 39.8417ZM47.0219 41.2385C46.9775 41.5711 46.9108 42.0145 46.7997 42.4358C46.7331 42.8349 46.6442 43.3448 46.6442 43.3891C46.6442 43.4778 46.6886 43.9656 46.7553 44.2538H46.7331C46.7108 44.2538 46.7108 44.276 46.6886 44.2982C46.7775 44.3869 46.8664 44.4755 47.0219 44.5421C46.9331 44.5421 46.7997 44.6529 46.7108 44.6529C46.4664 44.6529 45.6886 44.0765 45.5553 43.5887C45.3997 43.1453 45.3997 42.7462 45.3997 42.591C45.4219 42.4136 45.4442 42.2806 45.4219 42.0589C45.2442 42.2362 45.1331 42.5023 44.9331 42.6797C44.7553 42.9014 44.5775 43.1453 44.3997 43.5665C44.3553 43.6109 44.3775 43.7882 44.3108 43.8769C44.1553 44.143 44.0219 44.409 43.8219 44.5864C43.7331 44.6751 43.5108 44.7638 43.3997 44.7638H43.1997C43.1331 44.7638 43.0442 44.6086 42.9553 44.5642C42.4664 44.2317 42.4664 43.8991 42.4664 43.633C42.4664 43.3226 42.5775 42.7462 42.6886 42.5688C42.8442 42.1919 43.0664 41.7041 43.3108 41.305C43.6664 40.7064 44.3997 39.4205 45.2442 38.6002C45.2886 38.5558 45.3775 38.578 45.4886 38.578C45.8664 38.578 46.2664 38.7332 46.5997 38.8219V38.9771C46.4442 39.2209 46.2219 39.3096 46.2664 39.487C46.4664 39.4427 46.7553 39.487 47.0219 39.5313C46.9775 39.7309 47.0664 40.1521 47.0664 40.2408C47.0664 40.2852 47.0442 40.9725 47.0219 41.2385Z" fill="#FEFEFE"/>
<path fill-rule="evenodd" clip-rule="evenodd" d="M15.3337 29.0434C15.2448 28.999 15.1337 28.8438 15.0004 28.8217C14.8004 28.7552 14.5115 28.6886 14.4448 28.6886C14.1559 28.6886 13.9115 28.9325 13.9115 29.1099C13.9115 29.1764 14.1782 29.9081 14.3115 30.2406C14.4448 30.6397 14.5337 30.9723 14.6004 31.327C14.6004 31.3935 14.8226 31.7705 14.8226 31.9256C14.8226 32.0143 14.8226 32.2582 14.7337 32.3912C14.6671 32.5243 14.4893 32.6351 14.3337 32.7238C14.2004 32.8125 13.9559 32.8347 13.8893 32.8347H13.6893C13.0004 32.8347 12.8226 32.1695 12.6004 31.6596C12.5559 31.5266 12.4004 31.3492 12.4004 31.2605C12.4004 31.1053 12.5782 30.9058 12.8004 30.6841C13.0004 30.7727 12.8671 30.9279 12.8671 31.061C12.8671 31.1497 12.8448 31.2383 12.8671 31.3492C13.1337 31.6374 13.5559 31.7926 13.8893 31.7926C14.0671 31.7926 14.0671 31.8148 14.2448 31.6818C14.2448 31.6374 14.2448 31.5931 14.2448 31.5709C14.0448 31.2827 13.0226 29.2429 13.0226 28.5113C13.0226 27.9792 13.4226 27.5801 13.9559 27.5801C14.4893 27.5801 15.4004 28.1565 15.4004 28.866C15.3782 28.9547 15.3559 28.999 15.3337 29.0434Z" fill="#00AEEF"/>
<path fill-rule="evenodd" clip-rule="evenodd" d="M18.6891 29.1329C18.3558 29.3103 17.8224 29.5542 17.6002 29.532C17.5113 29.532 17.1558 29.5985 17.0891 29.7316C17.0224 29.8203 16.9113 30.3524 16.8669 30.6184C16.778 31.0618 16.5336 31.6826 16.5336 32.2369C16.5336 32.6582 16.6002 32.9464 17.1113 32.9464C17.6447 32.9464 18.378 32.3256 18.8002 31.9709C18.7558 32.0595 18.7336 32.3256 18.6447 32.4586C18.5558 32.5917 18.4224 32.7469 18.2891 32.8577C18.2891 32.9021 18.3336 32.9242 18.3336 32.9464C18.2447 33.0794 18.2224 33.2568 18.2002 33.3898C18.1113 33.4342 18.0891 33.5007 18.0447 33.5229C17.9336 33.6337 17.5558 33.7446 17.3558 33.7446C17.1336 33.7446 16.8669 33.6337 16.6447 33.5007C16.578 33.4342 16.4891 33.3233 16.3558 33.2346C16.3113 33.1903 16.2669 33.2346 16.178 33.1903C15.5113 32.4808 15.4669 31.7713 15.4669 31.0618C15.4669 31.0175 15.4447 30.9732 15.4447 30.8845C15.4002 30.7958 15.578 29.7094 15.578 29.6207C15.578 29.5542 15.5558 29.5099 15.4891 29.4433C15.4447 29.4212 15.4224 29.3547 15.4002 29.2216C15.4002 29.1329 15.2669 29.0664 15.178 29.0443C15.1336 28.9556 15.1113 28.9112 15.1113 28.8225C15.1113 28.6452 15.3113 28.6674 15.4002 28.6674C15.4891 28.6674 15.5335 28.6895 15.6002 28.6895C15.6891 28.6895 15.7113 28.7117 15.7558 28.6008C16.1113 27.5366 16.4669 27.0267 17.1113 26.2285C17.6669 26.9158 17.578 27.8027 17.4447 28.6008C17.7113 28.6452 18.1113 28.6452 18.4224 28.6674C18.7558 28.7117 18.978 28.756 19.2447 28.8447C19.0447 29.0221 18.8224 29.0664 18.6891 29.1329Z" fill="#00AEEF"/>
<path fill-rule="evenodd" clip-rule="evenodd" d="M21.089 29.1329C21.0446 29.0886 21.089 29.0664 21.0446 29.0664C20.7779 29.3768 20.289 30.0419 20.2002 30.3967C20.1557 30.4854 20.089 30.6184 20.0446 30.7293C20.0668 30.7071 20.0668 30.6849 20.0668 30.6849L20.089 30.7071C19.9113 31.084 19.8224 31.2614 19.6224 31.9043C20.5335 30.6849 21.089 29.6872 21.3779 28.9556C21.289 28.9999 21.2224 29.0442 21.089 29.1329ZM22.2224 30.3302C22.1779 30.6184 22.1113 30.9953 22.0446 31.35C21.9779 31.7048 21.9113 32.1039 21.9113 32.1704C21.9113 32.2591 21.9557 32.6581 22.0224 32.902H22.0002C21.9779 32.902 21.9779 32.9242 21.9557 32.9464C22.0224 33.0351 22.1113 33.1016 22.2446 33.1681C22.1557 33.1681 22.0446 33.2568 21.9779 33.2568C21.7557 33.2568 21.1113 32.769 20.9779 32.3478C20.8446 31.9708 20.8446 31.6383 20.8446 31.4831C20.8668 31.3279 20.889 31.217 20.8668 31.0175C20.7113 31.1727 20.6224 31.3944 20.4446 31.5496C20.289 31.727 20.1335 31.9487 20.0002 32.3034C19.9557 32.3478 19.9779 32.5029 19.9335 32.5695C19.8002 32.8133 19.689 33.0351 19.5113 33.1681C19.4224 33.2568 19.2446 33.3233 19.1557 33.3233H18.9779C18.9113 33.3233 18.8446 33.1903 18.7779 33.1459C18.3779 32.8577 18.3779 32.5695 18.3779 32.3478C18.3779 32.0817 18.489 31.5939 18.5779 31.4387C18.7113 31.1062 18.9113 30.7071 19.1113 30.3745C19.4002 29.8646 20.0446 28.7782 20.7557 28.0687C20.8002 28.0244 20.8668 28.0465 20.9557 28.0465C21.2668 28.0465 21.6224 28.1796 21.889 28.2682V28.4013C21.7557 28.623 21.5779 28.6895 21.6002 28.8225C21.7779 28.7782 22.0002 28.8225 22.2446 28.8669C22.2002 29.0442 22.289 29.399 22.289 29.4655C22.2668 29.5098 22.2668 30.0863 22.2224 30.3302ZM26.8002 29.6872C26.6002 30.5741 26.4446 31.5496 26.2224 32.2369C26.1779 32.3699 26.2002 32.5916 26.1779 32.769C26.1335 32.902 26.0224 33.1903 25.9779 33.412C25.8002 34.2101 25.6002 35.6734 25.6002 35.7621C25.6002 36.0282 25.7113 36.3607 25.7779 36.5159V36.649C25.7557 36.6046 25.7557 36.6046 25.6668 36.6046C25.6224 36.6046 25.5779 36.649 25.5779 36.7155C24.9557 36.4051 24.6446 35.4739 24.6446 34.8753C24.6446 34.5649 24.6446 34.1658 24.7113 33.7445L24.8002 33.1016C24.8446 32.8799 24.9113 32.5695 25.0002 32.1482C25.0668 31.86 25.1779 31.4831 25.289 31.1283C25.4224 30.7514 25.6224 30.3745 25.689 30.0641L25.7113 29.9976C25.7113 30.0863 25.6002 30.0641 25.5335 30.1528C25.289 30.6406 24.9557 31.1727 24.6668 31.727C24.5779 31.8822 24.3779 32.1704 24.289 32.4143C24.1113 32.769 23.889 33.2124 23.5557 33.2124C23.3779 33.2124 23.4446 33.1459 23.289 33.0129C23.2446 32.9685 23.1113 32.9685 23.0446 32.9242C22.8002 32.7025 22.7113 31.993 22.7113 31.727C22.7113 30.6627 23.1779 29.0886 23.6224 28.2904C23.7335 28.2017 24.489 28.4234 24.489 28.7117C24.489 28.8004 24.4446 28.8447 24.4002 28.8669C24.1557 29.9311 23.7113 31.993 23.7113 32.1039V32.1926H23.7335C24.289 31.3944 25.089 30.2193 25.6002 29.2216C25.7113 28.9777 26.0446 28.4013 26.1113 28.4013C26.2002 28.4013 26.5113 28.49 26.6446 28.49C26.6446 28.5565 26.7557 28.6008 26.7779 28.6895C26.8446 28.8225 26.8224 29.0664 26.8224 29.1329C26.8668 29.2216 26.8446 29.5098 26.8002 29.6872ZM30.7779 27.3814C30.689 27.3814 30.489 27.2705 30.3113 27.204C30.3557 26.7828 30.6668 26.428 31.1779 26.4502C31.3335 26.4502 31.8002 26.5832 31.8668 26.6276C31.9113 26.6719 31.9113 26.7606 31.9113 26.8493C31.9113 27.1819 31.0002 27.3814 30.7779 27.3814ZM31.3557 32.3478C31.3557 32.5695 30.8446 32.8577 30.7113 32.8355C30.6002 32.8355 30.6224 32.7468 30.5335 32.7468C30.4446 32.7468 30.5335 32.769 30.4224 32.769C30.3113 32.769 30.1113 32.5916 30.0224 32.5916C29.9113 32.5916 30.0446 32.6138 29.9335 32.6138C29.889 32.6138 29.5557 32.2591 29.4446 32.0595C29.3335 31.9487 29.2446 31.727 29.2002 31.5496C29.1335 31.3279 29.1335 30.951 29.1335 30.8623C29.1335 30.7958 29.2002 30.5075 29.2446 30.3745C29.3113 29.6207 29.6668 28.5786 30.5113 27.9357C30.9779 27.9578 31.2446 28.5343 31.2446 28.8004C31.2446 28.889 30.3779 31.6161 30.3779 31.7048L30.3557 32.3478C30.4002 32.3699 30.4224 32.3699 30.5335 32.3699C30.7779 32.3699 31.0224 32.2369 31.3557 32.1039V32.3478Z" fill="#00AEEF"/>
<path fill-rule="evenodd" clip-rule="evenodd" d="M35.3332 32.7465C35.2221 32.8352 35.111 33.0347 34.9999 33.1234C34.911 33.1677 34.7332 33.1456 34.6443 33.1456C34.1554 33.1456 33.7999 32.8795 33.5554 32.5469C33.311 32.2144 33.1999 31.8596 33.2443 31.2388C33.2443 30.6402 33.5332 29.9529 33.4665 29.4873C33.2443 29.7977 32.9999 30.219 32.8888 30.5072L32.8665 30.5294C32.8443 30.5515 32.8665 30.5515 32.911 30.5515C32.8221 30.7511 32.8443 30.6846 32.8665 30.6846C32.7554 30.8841 32.6221 31.1502 32.4443 31.6379C32.2665 32.1257 32.111 32.4139 31.9999 32.7021C31.9554 32.8352 32.1332 32.9682 32.0221 33.1234C31.9332 33.1012 31.8665 33.2121 31.8221 33.3008C31.7332 33.3008 31.711 33.1677 31.6221 33.1677C31.5332 33.1677 31.5999 33.1899 31.511 33.1899C31.4443 33.1899 31.1554 32.946 31.0887 32.7908C30.9776 32.5913 30.9999 32.0592 30.9999 31.9927C30.9999 31.5049 31.1554 30.7289 31.311 30.1303C31.4665 29.5538 31.6665 28.933 31.8443 28.3344C31.8665 28.2901 31.8665 28.2236 31.8221 28.1792C31.9776 28.1349 32.1776 28.0684 32.2665 28.0684C32.5332 28.0684 32.8221 28.1349 32.8221 28.4009C32.8221 28.4896 32.711 29.3321 32.5999 29.8642C32.8665 29.4208 33.1776 28.8444 33.5332 28.4009C33.5999 28.3122 33.8443 28.3122 33.9332 28.3122C34.0221 28.3122 34.3332 28.3788 34.5332 28.4231C34.6665 28.6005 34.7776 29.1326 34.7776 29.4651C34.7776 29.5317 34.711 30.219 34.6443 30.5959C34.5999 30.7511 34.4888 30.9506 34.4443 31.1723C34.3999 31.3054 34.3332 31.771 34.2888 31.9483C34.2665 32.1257 34.2443 32.2809 34.2443 32.3474C34.2443 32.5248 34.2888 32.7465 34.4665 32.7465C34.7554 32.7465 35.5999 32.3031 36.0665 32.0592C35.8443 32.2144 35.5554 32.5248 35.3332 32.7465Z" fill="#00AEEF"/>
<path fill-rule="evenodd" clip-rule="evenodd" d="M32.9781 16.2062C32.8892 15.9845 31.8448 15.0754 31.3115 15.0754C30.5115 15.0754 26.9115 15.275 26.9115 16.7161C26.9115 16.8713 26.8892 17.2926 27.0448 17.4921C27.4448 17.9577 28.3115 18.6007 28.9781 19.2215C29.1115 19.3988 29.4226 19.7314 29.667 20.0418C30.5115 21.0617 31.1559 22.4141 31.1559 23.5005C31.1559 23.6335 31.1115 23.8774 31.067 24.0326C31.0004 24.2543 30.8226 24.6313 30.4892 24.853C30.1559 25.1855 29.2226 25.2964 29.067 25.2964C28.3115 25.2964 27.0226 25.0969 26.5559 24.853C26.5559 24.7865 26.5115 24.7643 26.4448 24.7421C26.2892 24.6756 25.9337 24.5426 25.6892 24.2322C25.5337 24.0105 25.3115 23.7444 25.267 23.5005C25.2003 23.434 25.1781 23.3232 25.1337 23.2788C25.3781 22.9462 24.7559 22.1481 24.5781 21.3943C24.867 21.5716 26.5115 22.4806 27.1559 22.4806C27.6448 22.4806 28.5781 22.5472 29.2003 22.3033V22.1259C29.2003 21.9929 27.7781 20.5961 26.8892 19.6871C26.8892 19.7092 26.8892 19.7092 26.9115 19.7314C26.9337 19.7536 26.9115 19.7979 26.9781 19.7979C27.0003 19.7979 27.0003 19.7979 27.0003 19.7758V19.7314C26.7115 19.2436 26.3781 18.7115 26.1337 18.1573C26.0448 17.9799 25.9781 17.6917 25.8892 17.4478C25.5337 16.2949 25.5337 16.5831 25.5337 15.6962C25.5337 15.5632 25.5337 14.8759 25.6892 14.5433C26.4003 13.2352 28.3115 12.7031 29.7115 12.7031C30.3115 12.7031 31.7781 13.1244 32.1115 13.5013C32.4448 13.856 32.7781 14.4768 32.867 14.7872C32.9559 14.9646 33.0448 15.1863 33.1115 15.408C33.067 16.0288 32.9781 16.1397 32.9781 16.2062Z" fill="#FEFEFE"/>
<path fill-rule="evenodd" clip-rule="evenodd" d="M35.4889 17.9352C35.4222 17.8687 35.4889 17.8243 35.4222 17.8243C34.9778 18.3343 34.1778 19.4206 34.0444 20.0414C33.9778 20.1745 33.8667 20.3962 33.8 20.5957C33.8222 20.5514 33.8444 20.5292 33.8444 20.5292L33.8667 20.5514C33.5778 21.1722 33.4444 21.4604 33.0889 22.5246C34.6 20.507 35.5111 18.8664 35.9778 17.6469C35.8222 17.7135 35.7111 17.8021 35.4889 17.9352ZM37.3556 19.9306C37.2889 20.3962 37.1778 21.017 37.0444 21.5934C36.9556 22.1699 36.8444 22.8572 36.8444 22.9237C36.8444 23.0567 36.9111 23.744 37.0222 24.1209H37C36.9778 24.1209 36.9556 24.1431 36.9333 24.1875C37.0444 24.3205 37.2 24.4313 37.4 24.5422C37.2667 24.5422 37.0889 24.6974 36.9556 24.6974C36.6 24.6974 35.5111 23.8992 35.3333 23.2119C35.1333 22.5911 35.1333 22.0147 35.1333 21.793C35.1556 21.5491 35.2 21.3495 35.1778 21.0391C34.9333 21.283 34.7556 21.6599 34.4889 21.9038C34.2444 22.192 33.9778 22.569 33.7333 23.1454C33.6667 23.2119 33.6889 23.4558 33.6222 23.5888C33.4 23.9879 33.2222 24.3427 32.9333 24.5644C32.8 24.6974 32.4889 24.8083 32.3333 24.8083H32C31.9111 24.8083 31.8 24.6087 31.6667 24.52C31 24.0323 31 23.5667 31 23.2119C31 22.7907 31.1778 21.9703 31.3111 21.7265C31.5111 21.1943 31.8444 20.507 32.1778 19.9528C32.6667 19.0881 33.7111 17.3144 34.8889 16.1393C34.9556 16.0728 35.0667 16.1171 35.2222 16.1171C35.7556 16.1171 36.3111 16.3167 36.7778 16.4719V16.6714C36.5556 17.0261 36.2444 17.1592 36.3111 17.3809C36.6 17.3144 36.9778 17.3809 37.3556 17.4474C37.2889 17.7356 37.4222 18.3121 37.4222 18.4451C37.4222 18.6003 37.4 19.5315 37.3556 19.9306ZM42.4222 16.228C42.7333 15.4298 43 14.3213 43.2222 13.6561C43.3556 13.3014 43.5778 12.6584 43.6445 12.5254C43.7333 12.3258 44.3333 11.1508 44.6445 10.6852L44.7556 10.6187C44.7778 10.5965 44.8 10.5965 44.8222 10.5965C44.8222 12.3258 44.3111 14.1439 43.6222 15.718C43.3333 16.3832 42.9111 17.3809 41.9556 18.3342C42.0222 18.1791 42.0222 18.1347 42.0667 18.0682C42.0222 17.5361 42.2889 16.6936 42.4222 16.228ZM46.7556 19.1102C46.6889 18.9994 46.6667 19.0216 46.6 18.9994C46.0222 18.4894 45.0667 18.3786 44.0667 18.4673C43.5778 18.5116 43.0889 18.556 42.6222 18.6668C42.3778 18.7112 42.4667 18.6668 42.4667 18.6668C43.3111 17.6248 44.7333 15.8067 45 15.0086C45.0667 14.809 45.4667 14.3434 45.5333 14.2104C45.6 14.0552 45.6 13.9 45.6445 13.7448C45.7333 13.4344 46 12.9688 46.0889 12.6362C46.2 11.9046 46.3556 11.1729 46.5111 10.5078C46.5333 10.4413 46.4667 10.3304 46.4445 10.1974C46.5556 9.64312 46.3111 9.31055 45.9556 9.31055C45.8 9.31055 45.3111 9.48792 44.9556 9.62094C43.5778 10.1531 42.5333 11.6164 42.0889 12.4589C41.8667 12.8579 41.2889 13.9887 41.2222 14.1217C41.1556 14.2769 41.0222 14.7647 40.8667 15.1194C40.3333 16.4053 39.9556 17.913 39.6889 19.4428C39.6445 19.465 39.5778 19.465 39.5333 19.4872C39.2667 19.5758 38.5556 19.7532 38.4889 19.7976C38.4222 19.8419 38.4 19.9306 38.4222 19.9971C38.7556 20.1745 39.1556 20.3075 39.5333 20.374C39.2222 22.5024 39.1111 24.5644 39.0889 25.8946C39 26.2272 38.8889 26.6041 38.8222 26.9589C38.6667 27.5132 38.4667 28.2005 38.4222 28.267C38.3556 28.3778 38 28.9765 37.7556 29.2869H37.7778C37.8 29.2869 37.8 29.309 37.8222 29.3755C37.6667 29.4421 37.4889 29.4864 37.2667 29.4864C37.3778 29.5529 37.4889 29.7524 37.6 29.819C37.9111 29.9742 39.2222 29.7303 39.6889 29.176C40.1333 28.7104 40.3778 28.1783 40.4889 27.9787C40.5778 27.757 40.6222 27.5575 40.7778 27.2693C40.8222 27.4023 41.0667 26.1829 41.3333 25.4734C41.3111 25.0521 41.4445 24.7196 41.4667 24.3648C41.4445 24.2761 41.5111 23.8992 41.4889 23.7884C41.4889 23.744 41.5111 23.6997 41.5111 23.6775C41.4889 22.7685 41.5778 21.8373 41.7778 21.2165C41.7556 21.0613 41.8444 20.507 41.9333 20.2632C42.6 20.0858 43.8 19.731 43.8 19.7089C44.7778 19.5093 45.7111 18.7998 46.8889 19.4206C46.9111 19.332 46.9111 19.2876 46.9556 19.2654C46.7556 19.1989 46.8222 19.1989 46.7556 19.1102Z" fill="#FEFEFE"/>
<path fill-rule="evenodd" clip-rule="evenodd" d="M46.5557 20.9284C47.3335 19.8863 48.0891 18.6891 48.1557 17.5583C47.3557 18.6891 46.8891 19.8198 46.5557 20.9284ZM47.2224 24.8305C46.978 24.8748 45.9113 24.4758 45.8891 24.4536C45.7557 24.4536 45.8446 24.4092 45.6891 24.4314C45.0891 24.4314 44.3557 22.9238 44.3557 22.7686C44.3335 22.5469 44.2891 22.2143 44.2891 22.0813C44.2891 21.9039 44.3557 21.2387 44.4224 20.8397C44.5779 20.2632 44.8891 19.6424 45.2002 18.9108C45.2002 18.8443 46.7335 16.1837 47.2446 16.1172C47.4002 16.1172 47.6224 16.1837 47.778 16.2724C48.0891 16.3389 48.4446 16.7158 48.778 17.004C48.8668 17.0706 49.1113 17.1371 49.2446 17.3366C49.378 17.514 49.5335 17.8465 49.5335 17.9574C49.5335 18.1126 49.2891 18.9108 49.0668 19.199C47.978 20.751 47.6002 21.4826 46.3557 22.3473C46.2224 22.436 46.2002 22.9681 46.2002 23.079L46.2224 23.8106C47.8224 23.5224 49.1113 22.3917 50.4668 21.5935C50.3113 22.2365 48.1113 24.8083 47.2224 24.8305Z" fill="#FEFEFE"/>
</g>
<defs>
<clipPath id="clip0_314_3409">
<rect width="62" height="58" fill="white"/>
</clipPath>
</defs>
</svg>
