<svg width="15" height="15" viewBox="0 0 15 15" fill="none" xmlns="http://www.w3.org/2000/svg">
<g clip-path="url(#clip0_497_3388)">
<path d="M14.0297 7.82135C13.7502 7.48598 13.4268 7.18254 13.1114 6.8871C13.0595 6.83918 12.8559 6.63157 12.6163 6.38803C12.269 6.03269 11.8338 5.59351 11.6661 5.4338C11.5623 5.33399 11.4226 5.25414 11.2868 5.2182C11.2589 5.21022 11.2309 5.20623 11.203 5.20223C11.175 5.19824 11.1511 5.19824 11.1231 5.19824C10.8836 5.19824 10.652 5.33798 10.5362 5.55358C10.3765 5.84504 10.4284 6.17243 10.668 6.41198C10.9275 6.6715 11.0912 6.8312 11.3268 7.05878L11.3547 7.08273C11.8178 7.54587 12.3009 8.02098 12.7761 8.50408C13.2991 9.03509 13.5905 9.75375 13.5945 10.5283C13.5985 11.3029 13.315 12.0255 12.8 12.5685C12.2171 13.1794 11.4505 13.5147 10.6321 13.5147C10.5083 13.5147 10.3805 13.5068 10.2568 13.4908C9.60997 13.4069 9.01508 13.1155 8.53597 12.6484C8.30441 12.4208 8.12873 12.2331 7.95705 12.0535C7.79735 11.8858 7.63366 11.7101 7.42605 11.5025L7.38612 11.4626C7.13459 11.215 6.88705 10.9675 6.63552 10.72L6.62355 10.708C6.57164 10.6561 6.51575 10.6002 6.44787 10.5563C6.36004 10.5004 6.26422 10.4644 6.16041 10.4525C6.13246 10.4485 6.10052 10.4485 6.06858 10.4485C5.85299 10.4485 5.64537 10.5483 5.51761 10.712C5.29004 11.0034 5.32198 11.3947 5.59347 11.6622L5.82903 11.8978C6.12448 12.1892 6.38399 12.4567 6.63552 12.7162C6.96291 13.0556 7.27433 13.375 7.66161 13.7503C7.83728 13.922 8.04489 14.0817 8.28045 14.2294C8.8434 14.5808 9.45426 14.8043 10.0931 14.8842C10.2727 14.9081 10.4524 14.9201 10.6321 14.9201C12.0574 14.9201 13.4069 14.2015 14.2413 12.9997C15.3273 11.4386 15.2394 9.25868 14.0297 7.82135Z" fill="#8E8E8E"/>
<path d="M3.48151 7.67767L3.46554 7.6617C3.45756 7.65371 2.68301 6.87916 2.23185 6.42401C1.70483 5.893 1.41338 5.17434 1.40539 4.39979C1.39741 3.62923 1.67688 2.90258 2.19192 2.3596C2.77483 1.74474 3.5454 1.40138 4.36786 1.40138C4.49163 1.40138 4.61939 1.40937 4.74316 1.42534C5.38995 1.50918 5.98883 1.80463 6.47193 2.27575C6.70749 2.50732 6.88715 2.68698 7.0788 2.88262C7.2385 3.04232 7.40219 3.21001 7.59783 3.40564C7.59783 3.40564 8.13682 3.93665 8.39634 4.19617C8.54007 4.3399 8.70775 4.42374 8.87943 4.4477C8.90738 4.45169 8.93533 4.45169 8.96328 4.45169C9.14294 4.45169 9.30664 4.37982 9.44238 4.24807C9.57813 4.11232 9.65 3.94863 9.646 3.76497C9.646 3.56534 9.55417 3.36572 9.39048 3.20202C9.25473 3.06628 9.11499 2.93053 8.97925 2.79478L8.8994 2.71892C8.69578 2.5193 8.51611 2.33564 8.34044 2.15997C8.05697 1.8725 7.78548 1.60101 7.44611 1.27362C7.20257 1.03806 6.95503 0.842427 6.71548 0.690711C6.15253 0.339366 5.54167 0.115784 4.90286 0.0359329C4.7232 0.0119776 4.54353 0 4.36387 0C2.93054 0 1.56909 0.730636 0.730651 1.95236C0.223598 2.69098 -0.0359174 3.61725 0.00400806 4.55949C0.0439335 5.50572 0.3833 6.40405 0.962219 7.08278C1.24569 7.41815 1.57308 7.72558 1.88849 8.02103C1.94838 8.07692 2.22386 8.36039 2.51931 8.66383C2.84271 8.99521 3.17409 9.33458 3.31383 9.47431C3.44159 9.59808 3.58133 9.66995 3.72905 9.68991C3.757 9.6939 3.78096 9.6939 3.8089 9.6939C3.90073 9.6939 3.99655 9.67394 4.09637 9.63402C4.31196 9.54618 4.46368 9.36652 4.5076 9.14293C4.55551 8.90338 4.47167 8.64786 4.28402 8.46021C4.01652 8.20069 3.74502 7.93319 3.48151 7.67767Z" fill="#8E8E8E"/>
<path d="M7.99301 6.95947L7.13461 6.11305C7.00685 5.98929 6.63954 5.62197 6.63954 5.62197C6.22831 5.21473 5.8051 4.79552 5.3779 4.38029C5.2661 4.2685 5.12637 4.20063 4.97066 4.18466C4.94271 4.18066 4.91077 4.18066 4.88282 4.18066C4.71913 4.18066 4.56342 4.23656 4.43566 4.34037C4.16017 4.56794 4.10428 4.97518 4.29991 5.27063C4.34383 5.3385 4.39972 5.3904 4.45562 5.44231L4.47957 5.46626C6.03667 7.00339 7.59376 8.54052 9.15085 10.0776L9.4982 10.417C9.51018 10.429 9.52215 10.441 9.53413 10.4529L9.53813 10.4569C9.57406 10.4929 9.61398 10.5328 9.6579 10.5687C9.77368 10.6606 9.89346 10.7125 10.0212 10.7284C10.0492 10.7324 10.0731 10.7324 10.1011 10.7324C10.1969 10.7324 10.2967 10.7085 10.3965 10.6685C10.6081 10.5727 10.7559 10.3931 10.7958 10.1695C10.8397 9.93392 10.7558 9.68638 10.5722 9.50272C9.94936 8.88388 9.30656 8.24906 8.73562 7.69011L7.99301 6.95947Z" fill="#8E8E8E"/>
</g>
<defs>
<clipPath id="clip0_497_3388">
<rect width="15" height="14.9162" fill="white"/>
</clipPath>
</defs>
</svg>
