<svg width="15" height="16" viewBox="0 0 15 16" fill="none" xmlns="http://www.w3.org/2000/svg">
<g clip-path="url(#clip0_483_3077)">
<path d="M4.51853 16C4.1483 16 3.84538 15.6971 3.84538 15.3268C3.84538 14.9566 4.1483 14.6537 4.51853 14.6537H6.47908V7.8254H3.80331C2.97869 7.8254 1.89745 7.8254 0.803574 7.82961C0.664737 7.82961 0.244017 7.82961 0.0294504 7.38785L0 7.33316V6.64738L0.0042072 6.62214C0.021036 6.51275 0.0378648 6.39916 0.0546935 6.29819C0.0883511 6.05417 0.126216 5.80174 0.189324 5.55351C0.938205 2.6884 2.75151 0.88772 5.57453 0.193531C6.10464 0.0673153 6.64316 0 7.18589 0C8.75518 0 10.3203 0.551144 11.5824 1.55246C12.8656 2.5664 13.7617 3.98843 14.1067 5.5493C14.2035 5.98265 14.2414 6.4244 14.2792 6.85354L14.2918 7.0092C14.3129 7.26584 14.2624 7.45937 14.132 7.60242C13.9973 7.74967 13.7954 7.82119 13.5177 7.82119C12.6132 7.82119 11.7128 7.82119 10.8083 7.82119H7.82538V14.6453H9.78173C10.152 14.6453 10.4549 14.9482 10.4549 15.3184C10.4549 15.6887 10.152 15.9916 9.78173 15.9916H4.51853V16ZM5.01919 1.74599C4.11464 2.0994 3.36155 2.63792 2.72206 3.3868C1.97317 4.26611 1.5188 5.30108 1.37575 6.45385L1.37155 6.4791H4.06415V6.45806C4.21982 3.83697 4.66999 2.57902 5.04864 1.77544L5.07388 1.72075L5.01919 1.74599ZM9.24742 1.77544C9.95843 3.31528 10.1435 4.93505 10.2361 6.45806V6.4791H12.9245L12.9203 6.45385C12.7857 5.30108 12.306 4.22403 11.5319 3.33631C10.9051 2.61688 10.1015 2.05312 9.27266 1.74178L9.21797 1.72075L9.24742 1.77544ZM7.15223 1.32948C7.06388 1.32948 6.97132 1.37576 6.87035 1.46411C6.71048 1.61136 6.56323 1.78806 6.44963 1.97739C6.07098 2.59164 5.87745 3.28583 5.73862 3.87904C5.5535 4.6742 5.4399 5.51565 5.39783 6.44965V6.47489H8.90243V6.44965C8.88139 5.74284 8.80145 5.04865 8.66262 4.33342C8.51957 3.60978 8.31763 2.77255 7.88849 2.03629C7.76648 1.82593 7.60661 1.62819 7.42991 1.4599C7.32894 1.37576 7.24058 1.32948 7.15223 1.32948Z" fill="#8E8E8E"/>
</g>
<defs>
<clipPath id="clip0_483_3077">
<rect width="14.2961" height="16" fill="white"/>
</clipPath>
</defs>
</svg>
