<svg width="15" height="13" viewBox="0 0 15 13" fill="none" xmlns="http://www.w3.org/2000/svg">
<path d="M14.9961 2.39707C14.9923 1.0808 13.9231 0.00772002 12.6068 0.00386001C11.001 0 9.31421 0 7.5965 0C5.92126 0 4.21513 0 2.39321 0.00386001C1.20818 0.00772002 0.212301 0.872362 0.0270201 2.06511C0.0270201 2.06897 0.0231601 2.08055 0.0193001 2.08827C0.01544 2.09599 0.01158 2.10371 0.00772002 2.11529L0 2.12687V10.6073L0.00386001 10.6189C0.01158 10.6536 0.0193001 10.6884 0.0270201 10.7231C0.0463201 10.8003 0.0617602 10.8775 0.0849202 10.9547C0.366701 12.0008 1.3124 12.7342 2.37777 12.738C4.34251 12.7419 6.07952 12.7419 7.68914 12.7419C9.42614 12.7419 11.0396 12.7419 12.6222 12.738C13.9269 12.7342 14.9923 11.6611 14.9961 10.3448C15 7.68914 15 5.01801 14.9961 2.39707ZM1.3317 4.27689L1.45522 4.37725C1.61348 4.50463 1.76402 4.62815 1.91456 4.75167C2.24653 5.01801 2.57849 5.28821 2.91045 5.55841C3.63227 6.149 4.37725 6.75888 5.12609 7.3456C5.8016 7.87828 6.64694 8.17164 7.50772 8.17164C8.37622 8.17164 9.22928 7.87442 9.91637 7.33016C10.781 6.64694 11.6534 5.94828 12.4987 5.26891L12.5489 5.23031C12.9233 4.92923 13.2939 4.63201 13.6683 4.33093C13.6683 4.33093 13.6683 9.09032 13.6683 10.229C13.6683 10.9624 13.2283 11.4025 12.4949 11.4025H7.41508C5.77844 11.4025 4.14179 11.4025 2.50515 11.4025C1.78332 11.4025 1.33556 10.9547 1.33556 10.2367C1.3317 9.09418 1.3317 4.27689 1.3317 4.27689ZM4.59341 1.33556H7.50772H10.3641C11.0898 1.33556 11.8194 1.33556 12.545 1.33556C13.1279 1.33556 13.5641 1.6984 13.6529 2.25811C13.6722 2.37005 13.6722 2.48585 13.6606 2.59393C13.6606 2.60551 13.6374 2.64411 13.5834 2.69043C12.7535 3.35821 11.912 4.02985 11.0975 4.68219L10.7694 4.94467C10.6073 5.07591 10.4452 5.20715 10.2792 5.33839C9.89321 5.64719 9.49562 5.96758 9.09804 6.28024C8.63098 6.64694 8.07514 6.8438 7.5 6.8438C6.921 6.8438 6.37288 6.6508 5.9174 6.28024C4.65517 5.26891 3.38137 4.23057 2.15003 3.22311L1.37802 2.59393C1.35872 2.57849 1.33556 2.53217 1.33556 2.50515C1.32784 2.16161 1.4282 1.87211 1.63664 1.6598C1.84508 1.4475 2.13073 1.33556 2.47041 1.33556C3.17679 1.33556 3.88317 1.33556 4.59341 1.33556Z" fill="#8E8E8E"/>
</svg>
