<svg width="15" height="16" viewBox="0 0 15 16" fill="none" xmlns="http://www.w3.org/2000/svg">
<path d="M7.41861 16C3.3308 16 0 12.5913 0 8.40774C0 4.22422 3.3308 0.81543 7.41861 0.81543C11.5064 0.81543 14.8372 4.22422 14.8372 8.40774C14.8372 12.5913 11.5064 16 7.41861 16ZM7.41861 1.71693C3.81253 1.71693 0.880874 4.71723 0.880874 8.40774C0.880874 12.0982 3.81253 15.0985 7.41861 15.0985C11.0247 15.0985 13.9563 12.0982 13.9563 8.40774C13.9563 4.71723 11.0247 1.71693 7.41861 1.71693Z" fill="#8E8E8E"/>
<path d="M7.41883 16C5.09277 16 3.26221 12.6617 3.26221 8.40774C3.26221 4.15379 5.09277 0.81543 7.41883 0.81543C9.74489 0.81543 11.5755 4.15379 11.5755 8.40774C11.5755 12.6617 9.74489 16 7.41883 16ZM7.41883 1.71693C5.64332 1.71693 4.14308 4.77357 4.14308 8.40774C4.14308 12.0278 5.64332 15.0985 7.41883 15.0985C9.19434 15.0985 10.6946 12.0419 10.6946 8.40774C10.6946 4.78766 9.19434 1.71693 7.41883 1.71693Z" fill="#8E8E8E"/>
<path d="M7.4189 5.52043C5.31306 5.52043 3.2898 5.01333 1.89967 4.12592C1.69322 3.99914 1.6244 3.71742 1.76204 3.50613C1.88591 3.29485 2.16118 3.22442 2.36764 3.36528C3.63389 4.16817 5.46446 4.61892 7.4189 4.61892C9.37334 4.61892 11.2177 4.16817 12.4702 3.36528C12.6766 3.2385 12.9519 3.29485 13.0758 3.50613C13.1996 3.71742 13.1446 3.99914 12.9381 4.12592C11.548 5.01333 9.52474 5.52043 7.4189 5.52043Z" fill="#8E8E8E"/>
<path d="M12.7034 13.5205C12.6208 13.5205 12.5383 13.4923 12.4694 13.4501C11.2032 12.6472 9.37261 12.1964 7.41817 12.1964C5.46373 12.1964 3.6194 12.6472 2.36691 13.4501C2.16046 13.5768 1.88518 13.5205 1.76131 13.3092C1.63744 13.0979 1.69249 12.8162 1.89895 12.6894C3.28908 11.802 5.31233 11.2949 7.41817 11.2949C9.52401 11.2949 11.5473 11.802 12.9374 12.6894C13.1439 12.8162 13.2127 13.0979 13.075 13.3092C12.9925 13.4501 12.8548 13.5205 12.7034 13.5205Z" fill="#8E8E8E"/>
<path d="M7.41846 16C7.17072 16 6.97803 15.8028 6.97803 15.5493V1.26618C6.97803 1.01263 7.17072 0.81543 7.41846 0.81543C7.66621 0.81543 7.8589 1.01263 7.8589 1.26618V15.5493C7.8589 15.8028 7.66621 16 7.41846 16Z" fill="#8E8E8E"/>
<path d="M14.3968 8.85854H0.440437C0.192691 8.85854 0 8.66134 0 8.40779C0 8.15424 0.192691 7.95703 0.440437 7.95703H14.3968C14.6445 7.95703 14.8372 8.15424 14.8372 8.40779C14.8372 8.66134 14.6445 8.85854 14.3968 8.85854Z" fill="#8E8E8E"/>
</svg>
