<svg width="14" height="16" viewBox="0 0 14 16" fill="none" xmlns="http://www.w3.org/2000/svg">
<g clip-path="url(#clip0_497_3378)">
<path d="M10.191 16C10.0698 16 9.94075 15.9922 9.81561 15.9806C9.27986 15.9261 8.72064 15.7667 8.16142 15.4984C6.56589 14.7635 4.89606 13.216 3.19885 10.8987L3.03461 10.6887C1.31785 8.37521 0.320639 6.31835 0.0664488 4.5842C-0.250311 2.43402 0.621756 1.27922 1.40779 0.688214L1.98656 0.256622C2.20164 0.0894289 2.45974 0 2.7374 0C2.78042 0 2.82343 0.00388821 2.86254 0.00777643C3.22231 0.0427704 3.55863 0.229405 3.78544 0.521021L5.65863 3.05225C5.88153 3.35164 5.9793 3.71324 5.93237 4.07485C5.88544 4.44423 5.69382 4.77084 5.39662 4.99636L4.95081 5.32685C4.81002 5.42795 4.72008 5.58348 4.70444 5.75456C4.68488 5.93341 4.73572 6.12005 4.84913 6.27558L7.91896 10.4126C8.02846 10.5643 8.1888 10.6654 8.36477 10.6926L8.4117 10.6965C8.43125 10.6965 8.45081 10.7004 8.46645 10.7004C8.59941 10.7004 8.73237 10.6576 8.83796 10.5759L9.28377 10.2454C9.50667 10.0705 9.79215 9.97716 10.0894 9.97716C10.1324 9.97716 10.1793 9.98104 10.2223 9.98493C10.6095 10.0238 10.9692 10.2299 11.2117 10.5487L13.0927 13.0683C13.519 13.6437 13.4056 14.4564 12.8424 14.8763L12.2637 15.3079C11.6692 15.7589 10.9536 16 10.191 16ZM2.16645 1.69915C1.43907 2.25905 1.14578 3.18834 1.32176 4.39368C1.54466 5.90231 2.49103 7.81531 4.04745 9.92661L4.2117 10.1366C6.28433 12.9205 8.31785 14.5419 9.93684 14.7013C10.0229 14.7091 10.105 14.713 10.1871 14.713C10.6759 14.713 11.1178 14.5653 11.505 14.2775L12.0838 13.8459L10.191 11.303V11.2992C10.1715 11.268 10.1402 11.2486 10.1011 11.2447C10.0972 11.2447 10.0972 11.2447 10.0933 11.2447C10.0776 11.2447 10.0581 11.2486 10.0385 11.2603L9.59662 11.5869C9.26421 11.8357 8.86924 11.9679 8.45863 11.9679C8.39606 11.9679 8.3374 11.964 8.27483 11.9601L8.15751 11.9485H8.1536C7.64913 11.8668 7.1955 11.5908 6.88656 11.167L3.82064 7.02989C3.50779 6.60608 3.37483 6.09283 3.44522 5.58348C3.50779 5.07023 3.7698 4.6192 4.18042 4.30814L4.62231 3.98153C4.64187 3.96209 4.65751 3.93487 4.66142 3.91543C4.66533 3.87655 4.65751 3.84156 4.63796 3.81823L2.74522 1.27145L2.16645 1.69915Z" fill="#8E8E8E"/>
<path d="M11.1569 9.3981C11.1373 9.3981 11.1178 9.3981 11.0982 9.39421C10.758 9.35922 10.5038 9.05205 10.539 8.70988C10.7502 6.57914 9.20156 4.67392 7.08592 4.46784C6.92168 4.45229 6.77307 4.37064 6.66749 4.23844C6.5619 4.10624 6.51106 3.94682 6.52671 3.78352C6.55799 3.4608 6.82391 3.21973 7.14849 3.21973C7.16804 3.21973 7.1876 3.21973 7.21106 3.22361C8.56022 3.35581 9.78033 4.00903 10.6446 5.05885C11.5205 6.12422 11.9233 7.46566 11.7826 8.83431C11.7513 9.14925 11.4775 9.3981 11.1569 9.3981Z" fill="#8E8E8E"/>
<path d="M13.3391 9.31249C13.3196 9.31249 13.3 9.31249 13.2805 9.3086C13.1162 9.29305 12.9676 9.21139 12.862 9.08308C12.7564 8.95477 12.7056 8.79147 12.7252 8.62427C13.0576 5.25708 10.6134 2.25149 7.26987 1.92488C7.10563 1.90932 6.95702 1.82767 6.85144 1.69936C6.74585 1.57105 6.69501 1.40774 6.71457 1.24055C6.74585 0.917827 7.01177 0.676758 7.33635 0.676758C7.3559 0.676758 7.37546 0.676758 7.39892 0.680646C11.419 1.07336 14.3676 4.69329 13.9648 8.7487C13.9335 9.06364 13.6598 9.31249 13.3391 9.31249Z" fill="#8E8E8E"/>
</g>
<defs>
<clipPath id="clip0_497_3378">
<rect width="14" height="16" fill="white"/>
</clipPath>
</defs>
</svg>
