<svg width="14" height="16" viewBox="0 0 14 16" fill="none" xmlns="http://www.w3.org/2000/svg">
<g clip-path="url(#clip0_497_3384)">
<path d="M13.4133 5.90315C13.2083 4.27569 12.4212 2.7835 11.1914 1.70126C9.96569 0.619011 8.38331 0.0122982 6.73535 0H6.72715H6.72305C6.60417 0.0122982 6.48529 0.0245965 6.3664 0.0368947C6.10814 0.0614912 5.84168 0.0860876 5.58342 0.131181C2.41047 0.660005 0.00821768 3.4804 1.88628e-05 6.68614C-0.00408055 8.56367 0.660024 10.1952 1.97593 11.5275C2.98439 12.5483 4.02154 13.5813 5.0218 14.5816L5.02999 14.5898C5.41534 14.9751 5.80068 15.3564 6.18603 15.7417C6.3582 15.9139 6.54268 16 6.73535 16C6.93212 16 7.12069 15.9098 7.29287 15.7376C7.36256 15.6679 7.50604 15.5245 7.70281 15.3277C8.59648 14.4381 10.6831 12.3556 11.4907 11.5316C13.0361 9.95337 13.6839 8.05944 13.4133 5.90315ZM10.5232 10.4699C9.64183 11.38 8.72766 12.29 7.84219 13.1673C7.51834 13.4912 7.1166 13.8888 6.73535 14.2659C6.72715 14.2578 6.72305 14.2537 6.71485 14.2455C5.50963 13.0402 4.3044 11.8309 3.09917 10.6257L3.04588 10.5724C1.97184 9.49833 1.43071 8.19882 1.43891 6.71074C1.45121 4.11581 3.39843 1.88573 5.96876 1.52088C6.22292 1.48399 6.48119 1.46759 6.73535 1.46759C7.98977 1.46759 9.21139 1.91033 10.1666 2.71791C11.134 3.53369 11.7735 4.66923 11.9662 5.92365C12.2368 7.6741 11.753 9.20318 10.5232 10.4699Z" fill="#8E8E8E"/>
<path d="M6.73547 8.08421C7.64109 8.08421 8.37525 7.35006 8.37525 6.44445C8.37525 5.53883 7.64109 4.80469 6.73547 4.80469C5.82985 4.80469 5.0957 5.53883 5.0957 6.44445C5.0957 7.35006 5.82985 8.08421 6.73547 8.08421Z" fill="#8E8E8E"/>
</g>
<defs>
<clipPath id="clip0_497_3384">
<rect width="13.4748" height="16" fill="white"/>
</clipPath>
</defs>
</svg>
