<?xml version="1.0" encoding="utf-8"?>
<!-- Generator: Adobe Illustrator 23.0.6, SVG Export Plug-In . SVG Version: 6.00 Build 0)  -->
<svg version="1.1" id="Layer_1" xmlns="http://www.w3.org/2000/svg" xmlns:xlink="http://www.w3.org/1999/xlink" x="0px" y="0px"
	 viewBox="0 0 119.3 50" style="enable-background:new 0 0 119.3 50;" xml:space="preserve">
<style type="text/css">
	.st0{fill:#005282;}
	.st1{fill:#FFFFFF;}
</style>
<g>
	<path class="st0" d="M119.3,50H0V0h119.3l-12.8,25L119.3,50z"/>
	<g>
		<g>
			<path class="st1" d="M78.4,36.8L78.4,36.8C77.9,37,77.4,37,77,37c-0.8,0-1.3-0.4-1.3-1.4c0-0.8,0.6-1.2,1.6-1.4
				c0.3-0.1,0.7-0.1,1.1-0.2V36.8z M77.1,33.7c-2.1,0.2-4.3,0.8-4.3,3c0,1.1,0.9,2.1,2.5,2.1c1.3,0,2.4-0.8,3.1-1.7
				c0.1,1.2,0.8,1.7,2.1,1.7c0.7,0,1.8-0.5,2.5-1.2l0-0.2h-1.4l-0.2-3.8v-2.2c0-2.4-1.8-2.9-3.4-2.9c-1.9,0-3.8,1.3-4.4,1.9l0.2,0.2
				c0.7-0.4,1.6-0.7,2.4-0.7c1.2,0,2.2,0.5,2.2,1.8v1.8C78,33.6,77.5,33.6,77.1,33.7 M70.9,33.6v-7.9c0-0.7-0.4-1-1.1-1
				c-1.1,0-2.2,0.4-3.4,0.9v0.3h1.5v7.8l-0.1,3.5c0,0.5-0.2,0.8-0.8,0.9l-0.6,0.1c0,0.1,0,0.2,0,0.3h5.9c0-0.1,0.1-0.3,0.1-0.3
				l-0.8-0.2c-0.5-0.1-0.7-0.4-0.7-0.9L70.9,33.6z M62,29.1c1.3,0,1.9,1.3,1.9,3.6h-4.3C59.5,29.8,60.6,29.1,62,29.1 M66.5,33.3
				v-0.4c0-2.4-1.2-4.5-4.4-4.5c-3.2,0-5.3,2.7-5.3,5.6c0,2.6,1.3,4.7,4.6,4.7c2,0,3.8-0.7,4.6-2l-0.1-0.2c-1.2,0.4-2.2,0.5-2.8,0.5
				c-1.7,0-3.2-1-3.5-3.7v0H66.5z M56.8,36.8c-0.5,0.1-1.2,0.3-1.9,0.3c-0.9,0-1.8-0.4-1.8-2v-5.5h3.3v-0.8h-3.3v-2.4h-0.5l-2.5,2.4
				l-1.4,0.2v0.7h1.4l-0.1,5.7c0,2.7,1.4,3.5,2.9,3.5c1.5,0,2.9-0.6,3.9-1.8L56.8,36.8z M44.9,25.6c-0.5-0.4-1.4-1.2-2.2-1.5
				l-0.4,0.6c1,0.7,1.8,1.7,2.3,2.6c0.7-0.9,1.5-1.9,2.5-2.8l-0.3-0.4C46,24.6,45.4,25.2,44.9,25.6 M48.2,35.5c0-3-5.5-3.3-5.5-5.3
				c0-0.8,0.6-1.1,1.4-1.1c1.2,0,2.9,0.9,3.3,2.5l0.3,0l0.3-2.4c-1-0.5-2.1-0.8-3.3-0.8c-2.2,0-4.2,1-4.2,3.2c0,3.3,5.1,3.3,5.1,5.3
				c0,0.8-0.7,1.2-1.5,1.2c-1.3,0-3.1-0.9-3.3-2.8l-0.3,0l-0.4,2.6c1.1,0.6,2.4,0.9,3.5,0.9C46.1,38.8,48.2,37.6,48.2,35.5
				 M35.3,36.8L35.3,36.8C34.8,37,34.3,37,34,37c-0.8,0-1.3-0.4-1.3-1.4c0-0.8,0.6-1.2,1.6-1.4c0.3-0.1,0.7-0.1,1.1-0.2V36.8z
				 M34,33.7c-2.1,0.2-4.3,0.8-4.3,3c0,1.1,0.9,2.1,2.5,2.1c1.3,0,2.4-0.8,3.1-1.7c0.1,1.2,0.8,1.7,2.1,1.7c0.7,0,1.8-0.5,2.5-1.2
				l0-0.2h-1.4l-0.2-3.8v-2.2c0-2.4-1.8-2.9-3.4-2.9c-1.9,0-3.8,1.3-4.4,1.9l0.2,0.2c0.7-0.4,1.6-0.7,2.4-0.7c1.2,0,2.2,0.5,2.2,1.8
				v1.8C34.9,33.6,34.5,33.6,34,33.7 M29.8,38.7c-1.2-0.9-1.6-1.6-2.6-2.8l-3.7-5.5l1.4-1.4c1.2-1.3,2.1-2.4,3.1-2.7l0.7-0.2
				c0-0.1,0-0.2,0-0.3h-4.9c0,0.1-0.1,0.1-0.1,0.2l0.8,0.3c0.4,0.1,0.7,0.5,0.7,0.8c0,0.3-0.1,0.6-0.4,0.9L21.1,32v0.3l2.9,4.6
				c1.2,1.6,3.7,2,5.8,2L29.8,38.7z M17.5,33.6l-0.1,3.5c0,0.5-0.2,0.8-0.8,0.9L16,38.2c0,0.1,0,0.2,0,0.3H22c0-0.1,0.1-0.3,0.1-0.3
				l-0.9-0.2c-0.5-0.1-0.6-0.4-0.6-0.9l-0.1-3.5v-6.5c0-0.5,0.2-0.8,0.8-0.9l0.6-0.1c0-0.1,0-0.2,0-0.3H16c0,0.1-0.1,0.3-0.1,0.3
				l0.9,0.2c0.5,0.1,0.7,0.4,0.7,0.9V33.6z"/>
			<path class="st1" d="M82.2,13.5c0.5,1.4,1,2.6,1.4,3.9h-3.2L82.2,13.5z M84.5,19.8c0.1,0.2,0.1,0.4,0.1,0.5
				c0,0.2-0.1,0.4-0.5,0.5l-0.8,0.3c-0.1,0.1-0.1,0.1,0,0.3h5.9c0-0.1,0-0.3,0-0.3l-0.6-0.2c-0.4-0.1-0.7-0.5-0.9-1.1l-3.4-8.7
				l-1.8,0.2l-4,8.2c-0.4,0.7-0.8,1.2-1.2,1.3l-0.6,0.2c0,0.1,0,0.2,0.1,0.3h3.7c0-0.1,0.1-0.1,0.1-0.3l-0.7-0.2
				c-0.4-0.1-0.6-0.3-0.6-0.6c0-0.2,0.1-0.5,0.2-0.7l0.7-1.5h3.7L84.5,19.8z M68.5,16.5v-4.8h0.6c1.8,0,2.3,0.8,2.3,2.3
				c0,1.8-0.5,2.4-2,2.5L68.5,16.5z M76.6,21.2c-1.1-0.6-2.1-1.5-2.9-2.4c-0.5-0.6-1-1.3-1.6-2.1c1.5-0.5,2.5-1.2,2.5-2.6
				c0-2.1-1.6-2.8-4.9-2.8h-5.3c-0.1,0.1-0.1,0.3-0.1,0.4l0.8,0.1c0.4,0.1,0.5,0.3,0.5,0.6v5l-0.1,2.8c0,0.4-0.2,0.6-0.6,0.7
				L64.4,21c0,0.1,0,0.2,0.1,0.3h5.4c0.1-0.1,0.1-0.3,0.1-0.4c-0.2,0-0.5-0.1-0.8-0.1c-0.4-0.1-0.5-0.3-0.5-0.6l-0.1-2.8v-0.5h0.9
				c0.7,1.3,1.3,2.7,2.3,3.5c1.4,1,3.4,1.1,4.8,1.1L76.6,21.2z M63.5,18.7l-0.3,0c-0.5,1.5-1.5,2.1-3.7,2.2l-1.3,0v-4.3l4,0.2v-0.8
				l-4,0.2v-4.3l1.6,0c1.8,0,2.6,0.4,2.8,1.6c0.1,0,0.3,0,0.4,0v-2.2h-8.9c-0.1,0.1-0.1,0.3-0.1,0.4l0.8,0.1
				c0.4,0.1,0.5,0.3,0.5,0.6v5l-0.1,2.8c0,0.4-0.2,0.6-0.6,0.7L54.1,21c0,0.1,0,0.2,0.1,0.3h9L63.5,18.7z M49.2,17.4l-0.1,2.8
				c0,0.4-0.2,0.6-0.6,0.7L47.9,21c0,0.1,0,0.2,0.1,0.3h5.4c0.1-0.1,0.1-0.3,0.1-0.4l-0.8-0.1c-0.4-0.1-0.5-0.3-0.5-0.6L52,17.4v-5
				c0-0.4,0.2-0.6,0.6-0.7l0.6-0.1c0-0.1,0-0.3,0-0.3h-5.3c-0.1,0.1-0.1,0.3-0.1,0.4l0.8,0.1c0.4,0.1,0.5,0.3,0.5,0.6V17.4z
				 M39.6,12.8c-0.1-0.2-0.1-0.4-0.1-0.6c0-0.3,0.1-0.4,0.4-0.5l0.8-0.3c0-0.1,0-0.2,0-0.3h-5.8c0,0.1,0,0.2,0,0.3l0.7,0.2
				c0.5,0.2,0.7,0.4,0.9,1.1l3.4,8.7l1.8-0.2c1.3-2.7,2.7-5.5,4-8.2c0.4-0.7,0.8-1.2,1.2-1.3l0.6-0.2c0-0.1,0-0.1,0-0.3h-3.7
				c0,0.1-0.1,0.1-0.1,0.3l0.7,0.2c0.4,0.1,0.6,0.3,0.6,0.6c0,0.2-0.1,0.5-0.2,0.7l-2.7,6L39.6,12.8z M30.1,17.4L30,20.2
				c0,0.4-0.2,0.6-0.6,0.7L28.8,21c0,0.1,0,0.2,0.1,0.3h5.4c0.1-0.1,0.1-0.3,0.1-0.4l-0.8-0.1c-0.4-0.1-0.5-0.3-0.5-0.6l-0.1-2.8v-5
				c0-0.4,0.2-0.6,0.6-0.7l0.6-0.1c0-0.1,0-0.3,0-0.3h-5.3c-0.1,0.1-0.1,0.3-0.1,0.4l0.8,0.1c0.4,0.1,0.5,0.3,0.5,0.6V17.4z
				 M20.4,16.5v-4.8h0.6c1.8,0,2.3,0.8,2.3,2.3c0,1.8-0.5,2.4-2,2.5L20.4,16.5z M28.4,21.2c-1.1-0.6-2.1-1.5-2.9-2.4
				c-0.5-0.6-1-1.3-1.6-2.1c1.5-0.5,2.5-1.2,2.5-2.6c0-2.1-1.6-2.8-4.9-2.8h-5.3c-0.1,0.1-0.1,0.3-0.1,0.4l0.8,0.1
				c0.4,0.1,0.5,0.3,0.5,0.6v5l-0.1,2.8c0,0.4-0.2,0.6-0.6,0.7L16.2,21c0,0.1,0,0.2,0.1,0.3h5.4c0.1-0.1,0.1-0.3,0.1-0.4
				c-0.2,0-0.5-0.1-0.8-0.1c-0.4-0.1-0.5-0.3-0.5-0.6l-0.1-2.8v-0.5h0.9c0.7,1.3,1.3,2.7,2.3,3.5c1.4,1,3.4,1.1,4.8,1.1L28.4,21.2z"
				/>
		</g>
	</g>
</g>
</svg>
