<svg width="210" height="80" viewBox="0 0 210 80" fill="none" xmlns="http://www.w3.org/2000/svg">
<path d="M0 0.369141H35.2877L34.9221 28.2032L0 27.4659V0.369141Z" fill="#596B30"/>
<path d="M35.288 0.369141L21.3923 5.53043L20.8438 38.7102L34.7394 28.2032L35.288 0.369141Z" fill="#8A9A39"/>
<path d="M21.3923 5.53056L20.8438 38.7103L57.4113 38.5259V4.24023L21.3923 5.53056Z" fill="#C9D24F"/>
<path d="M42.7842 11.7978L57.4112 4.24023V38.526L42.7842 51.2448V11.7978Z" fill="#A3937B"/>
<path d="M42.7842 11.7969L80.8145 14.1932L79.1689 57.6955L42.7842 51.2439V11.7969Z" fill="#49C0B6"/>
<path d="M67.4668 23.9629L80.814 14.1934L79.1684 57.6957L67.4668 78.5251V23.9629Z" fill="#00A0DC"/>
<path d="M121.587 78.5251H67.4668V23.9629H121.587L108.788 51.244L121.587 78.5251Z" fill="#005282"/>
<path d="M137.128 79.8149L139.14 75.3909V74.8379H135.849V75.5753H138.408L136.397 79.8149H137.128ZM142.979 75.0223C142.796 75.2066 142.614 75.3909 142.431 75.5753L142.248 74.8379H141.699V78.5246H142.614V76.4969C142.614 76.1283 142.796 75.9439 142.979 75.7596C143.162 75.5753 143.345 75.3909 143.711 75.3909C143.893 75.3909 143.893 75.3909 144.076 75.3909V74.6536C143.893 74.6536 143.893 74.6536 143.711 74.6536C143.345 74.8379 143.162 74.8379 142.979 75.0223ZM147.185 78.5246C147.367 78.5246 147.55 78.3402 147.733 78.3402V77.7872C147.55 77.9716 147.367 77.9716 147.185 77.9716C147.002 77.9716 146.819 77.9716 146.636 77.9716C146.27 77.9716 146.088 77.7872 145.905 77.6029C145.722 77.4186 145.539 77.0499 145.539 76.6812H147.916V76.3126C147.916 75.7596 147.733 75.3909 147.55 75.0223C147.185 74.6536 146.819 74.6536 146.453 74.6536C145.905 74.6536 145.539 74.8379 145.173 75.2066C144.808 75.5753 144.808 75.9439 144.808 76.6812C144.808 77.2342 144.991 77.7872 145.356 78.1559C145.722 78.5246 146.088 78.7089 146.636 78.7089C146.636 78.7089 147.002 78.7089 147.185 78.5246ZM146.819 75.5753C147.002 75.7596 147.002 75.9439 147.002 76.3126H145.356C145.356 75.9439 145.539 75.7596 145.539 75.5753C145.722 75.3909 145.905 75.3909 146.088 75.3909C146.636 75.3909 146.819 75.5753 146.819 75.5753ZM151.756 78.5246V75.9439C151.756 75.5753 151.573 75.2066 151.39 75.0223C151.207 74.8379 150.841 74.6536 150.293 74.6536C150.11 74.6536 149.927 74.6536 149.561 74.6536C149.379 74.6536 149.013 74.8379 148.83 74.8379L149.013 75.3909C149.196 75.3909 149.379 75.2066 149.561 75.2066C149.744 75.2066 149.927 75.2066 150.11 75.2066C150.293 75.2066 150.476 75.2066 150.658 75.3909C150.841 75.5753 150.841 75.7596 150.841 75.9439V76.1283H150.293C149.744 76.1283 149.196 76.3126 149.013 76.4969C148.647 76.6813 148.647 77.0499 148.647 77.4186C148.647 77.7872 148.83 77.9716 149.013 78.3402C149.196 78.5246 149.561 78.7089 149.927 78.7089C150.293 78.7089 150.476 78.7089 150.658 78.5246C150.841 78.3402 151.024 78.3402 151.207 77.9716L151.39 78.5246H151.756ZM149.744 77.9716C149.561 77.9716 149.561 77.7872 149.561 77.6029C149.561 77.4186 149.561 77.2342 149.744 77.0499C149.927 76.8656 150.11 76.8656 150.476 76.8656H151.024V77.2342C151.024 77.6029 151.024 77.7872 150.841 77.9716C150.658 78.1559 150.476 78.1559 150.11 78.1559C149.927 77.9716 149.744 77.9716 149.744 77.9716ZM155.595 77.0499C155.595 76.8656 155.412 76.8656 155.229 76.6812C155.047 76.4969 154.864 76.4969 154.498 76.3126C154.132 76.1283 153.95 76.1283 153.767 75.9439C153.584 75.9439 153.584 75.7596 153.584 75.5753C153.584 75.3909 153.767 75.2066 154.132 75.2066C154.315 75.2066 154.681 75.2066 155.229 75.3909L155.412 74.8379C155.047 74.6536 154.681 74.6536 154.132 74.6536C153.767 74.6536 153.401 74.6536 153.035 74.8379C152.853 75.0223 152.67 75.2066 152.67 75.5753C152.67 75.7596 152.67 76.1283 152.853 76.3126C153.035 76.4969 153.218 76.6813 153.767 76.8656C153.95 76.8656 154.132 77.0499 154.315 77.0499C154.498 77.0499 154.498 77.2342 154.498 77.2342V77.4186C154.498 77.7872 154.315 77.7872 153.767 77.7872C153.401 77.7872 153.035 77.6029 152.487 77.4186V78.1559C152.853 78.3402 153.218 78.3402 153.584 78.3402C154.132 78.3402 154.498 78.1559 154.681 77.9716C154.864 77.7872 155.047 77.4186 155.047 77.0499C155.595 77.4186 155.595 77.2342 155.595 77.0499ZM159.435 75.3909C159.069 75.0223 158.703 74.8379 158.155 74.8379C157.606 74.8379 157.241 75.0223 156.875 75.3909C156.509 75.7596 156.326 76.1283 156.326 76.8656C156.326 77.2342 156.326 77.6029 156.509 77.9716C156.692 78.3402 156.875 78.5246 157.058 78.7089C157.241 78.8932 157.606 78.8932 157.972 78.8932C158.521 78.8932 158.886 78.7089 159.252 78.3402C159.618 77.9716 159.8 77.6029 159.8 76.8656C159.983 76.1283 159.8 75.7596 159.435 75.3909ZM157.423 75.7596C157.606 75.5753 157.789 75.3909 158.155 75.3909C158.703 75.3909 159.069 75.7596 159.069 76.6812C159.069 77.6029 158.703 77.9716 158.155 77.9716C157.606 77.9716 157.241 77.6029 157.241 76.6812C157.241 76.3126 157.241 75.9439 157.423 75.7596ZM164.188 76.1283C164.188 75.2066 163.823 74.8379 162.909 74.8379C162.726 74.8379 162.36 74.8379 162.177 75.0223C161.994 75.2066 161.812 75.2066 161.629 75.3909L161.446 74.8379H160.897V78.5246H161.629V76.6812C161.629 76.1283 161.629 75.9439 161.812 75.7596C161.994 75.5753 162.177 75.3909 162.543 75.3909C162.726 75.3909 162.909 75.3909 163.091 75.5753C163.274 75.7596 163.274 75.9439 163.274 76.1283V78.3402H164.006V76.1283H164.188ZM167.845 77.0499C167.845 76.8656 167.662 76.8656 167.48 76.6812C167.297 76.4969 167.114 76.4969 166.748 76.3126C166.383 76.1283 166.2 76.1283 166.017 75.9439C165.834 75.9439 165.834 75.7596 165.834 75.5753C165.834 75.3909 166.017 75.2066 166.383 75.2066C166.565 75.2066 166.931 75.2066 167.48 75.3909L167.662 74.8379C167.297 74.6536 166.931 74.6536 166.383 74.6536C166.017 74.6536 165.651 74.6536 165.286 74.8379C165.103 75.0223 164.92 75.2066 164.92 75.5753C164.92 75.7596 164.92 76.1283 165.103 76.3126C165.286 76.4969 165.468 76.6813 166.017 76.8656C166.2 76.8656 166.383 77.0499 166.565 77.0499C166.748 77.0499 166.748 77.2342 166.748 77.2342V77.4186C166.748 77.7872 166.565 77.7872 166.017 77.7872C165.651 77.7872 165.286 77.6029 164.737 77.4186V78.1559C165.103 78.3402 165.468 78.3402 165.834 78.3402C166.383 78.3402 166.748 78.1559 166.931 77.9716C167.114 77.7872 167.297 77.4186 167.297 77.0499C168.028 77.4186 168.028 77.2342 167.845 77.0499ZM171.685 77.9716C171.502 77.9716 171.502 77.7872 171.502 77.6029V75.5753H172.599V75.0223H171.502V74.1006H170.953L170.771 74.8379L170.222 75.2066V75.5753H170.771V77.4186C170.771 78.1559 171.136 78.5246 171.868 78.5246C172.051 78.5246 172.233 78.5246 172.233 78.5246C172.416 78.5246 172.416 78.5246 172.599 78.3402V77.7872C172.416 77.7872 172.233 77.9716 172.051 77.9716C171.868 77.9716 171.685 77.9716 171.685 77.9716ZM176.256 75.3909C175.89 75.0223 175.524 74.8379 174.976 74.8379C174.427 74.8379 174.062 75.0223 173.696 75.3909C173.33 75.7596 173.148 76.1283 173.148 76.8656C173.148 77.2342 173.148 77.6029 173.33 77.9716C173.513 78.3402 173.696 78.5246 173.879 78.7089C174.062 78.8932 174.427 78.8932 174.793 78.8932C175.342 78.8932 175.707 78.7089 176.073 78.3402C176.439 77.9716 176.621 77.6029 176.621 76.8656C176.804 76.1283 176.621 75.7596 176.256 75.3909ZM174.245 75.7596C174.427 75.5753 174.61 75.3909 174.976 75.3909C175.524 75.3909 175.89 75.7596 175.89 76.6812C175.89 77.6029 175.524 77.9716 174.976 77.9716C174.427 77.9716 174.062 77.6029 174.062 76.6812C174.062 76.3126 174.245 75.9439 174.245 75.7596ZM181.192 78.5246L182.655 74.8379H181.741L181.01 77.0499C180.827 77.4186 180.827 77.7872 180.827 77.9716C180.827 77.7872 180.644 77.4186 180.644 77.0499L179.913 74.8379H178.998L180.461 78.5246H181.192ZM184.118 74.8379H183.386V78.5246H184.118V74.8379ZM183.386 74.2849C183.386 74.2849 183.569 74.4693 183.752 74.4693C183.935 74.4693 183.935 74.4693 184.118 74.2849C184.118 74.2849 184.301 74.1006 184.301 73.9163C184.301 73.7319 184.301 73.7319 184.118 73.5476C184.118 73.5476 183.935 73.3633 183.752 73.3633C183.569 73.3633 183.569 73.3633 183.386 73.5476C183.386 73.5476 183.204 73.7319 183.204 73.9163C183.386 74.1006 183.386 74.1006 183.386 74.2849ZM187.775 77.0499C187.775 76.8656 187.592 76.8656 187.409 76.6812C187.226 76.4969 187.043 76.4969 186.678 76.3126C186.312 76.1283 186.129 76.1283 185.946 75.9439C185.763 75.9439 185.763 75.7596 185.763 75.5753C185.763 75.3909 185.946 75.2066 186.312 75.2066C186.495 75.2066 186.86 75.2066 187.409 75.3909L187.592 74.8379C187.226 74.6536 186.86 74.6536 186.312 74.6536C185.946 74.6536 185.581 74.6536 185.215 74.8379C185.032 75.0223 184.849 75.2066 184.849 75.5753C184.849 75.7596 184.849 76.1283 185.032 76.3126C185.215 76.4969 185.398 76.6813 185.946 76.8656C186.129 76.8656 186.312 77.0499 186.495 77.0499C186.678 77.0499 186.678 77.2342 186.678 77.2342V77.4186C186.678 77.7872 186.495 77.7872 185.946 77.7872C185.581 77.7872 185.215 77.6029 184.666 77.4186V78.1559C185.032 78.3402 185.398 78.3402 185.763 78.3402C186.312 78.3402 186.678 78.1559 186.86 77.9716C187.043 77.7872 187.226 77.4186 187.226 77.0499C187.957 77.4186 187.957 77.2342 187.775 77.0499ZM189.786 74.8379H189.054V78.5246H189.786V74.8379ZM189.054 74.2849C189.054 74.2849 189.237 74.4693 189.42 74.4693C189.603 74.4693 189.603 74.4693 189.786 74.2849C189.786 74.2849 189.969 74.1006 189.969 73.9163C189.969 73.7319 189.969 73.7319 189.786 73.5476C189.786 73.5476 189.603 73.3633 189.42 73.3633C189.237 73.3633 189.237 73.3633 189.054 73.5476C189.054 73.5476 188.872 73.7319 188.872 73.9163C188.872 74.1006 188.872 74.1006 189.054 74.2849ZM191.98 77.9716C191.797 77.9716 191.797 77.7872 191.797 77.6029V75.5753H192.894V75.0223H191.98V74.1006H191.431L191.248 74.8379L190.7 75.2066V75.5753H191.248V77.4186C191.248 78.1559 191.614 78.5246 192.346 78.5246C192.528 78.5246 192.711 78.5246 192.711 78.5246C192.894 78.5246 192.894 78.5246 193.077 78.3402V77.7872C192.894 77.7872 192.711 77.9716 192.528 77.9716C192.346 77.9716 192.163 77.9716 191.98 77.9716ZM193.991 78.5246C193.991 78.7089 194.174 78.7089 194.357 78.7089C194.54 78.7089 194.722 78.7089 194.722 78.5246C194.722 78.5246 194.905 78.3402 194.905 78.1559C194.905 77.9716 194.905 77.7872 194.722 77.7872C194.722 77.7872 194.54 77.6029 194.357 77.6029C194.174 77.6029 193.991 77.6029 193.991 77.7872C193.991 77.7872 193.808 77.9716 193.808 78.1559C193.991 78.3402 193.991 78.5246 193.991 78.5246Z" fill="#4D4D4F"/>
<path d="M137.129 62.4876V65.9899C137.129 66.5429 136.946 66.7272 136.398 66.9115L135.849 67.0959C135.849 67.0959 135.849 67.2802 135.849 67.4645H141.7C141.7 67.4645 141.7 67.2802 141.7 67.0959L140.786 66.9115C140.237 66.7272 140.054 66.5429 140.054 65.9899V62.4876V56.036C140.054 55.483 140.237 55.2987 140.786 55.1143L141.334 54.93C141.334 54.93 141.334 54.7457 141.334 54.5613H135.483C135.483 54.7457 135.483 54.7457 135.483 54.93L136.398 55.1143C136.946 55.2987 137.129 55.483 137.129 56.036V62.4876ZM149.379 67.4645C148.282 66.5429 147.734 65.9899 146.819 64.6996L143.163 59.1696L144.625 57.695C145.905 56.4046 146.637 55.2987 147.734 54.93L148.465 54.7457C148.465 54.5613 148.465 54.5613 148.465 54.5613H143.528V54.7457L144.26 54.93C144.625 55.1143 144.991 55.2987 144.991 55.8516C144.991 56.036 144.808 56.4046 144.625 56.7733L140.786 60.8286V61.1973L143.711 65.8056C144.991 67.4645 147.368 67.8332 149.562 67.8332L149.379 67.4645ZM153.584 62.4876C151.573 62.6719 149.379 63.2249 149.379 65.4369C149.379 66.5429 150.293 67.4645 151.939 67.4645C153.219 67.4645 154.316 66.7272 155.047 65.8056C155.047 67.0959 155.778 67.4645 157.058 67.4645C157.79 67.4645 158.887 66.9115 159.618 66.3586V66.1742H158.338L158.155 62.3033V60.0913C158.155 57.695 156.327 57.142 154.864 57.142C153.036 57.142 151.025 58.4323 150.476 58.9853L150.659 59.1696C151.39 58.801 152.304 58.4323 153.036 58.4323C154.133 58.4323 155.23 58.9853 155.23 60.2756V62.1189C154.499 62.3033 153.95 62.4876 153.584 62.4876ZM154.864 65.6212C154.316 65.8056 153.95 65.9899 153.584 65.9899C152.853 65.9899 152.304 65.6212 152.304 64.5152C152.304 63.7779 152.853 63.4092 153.767 63.0406C154.133 63.0406 154.499 62.8562 154.864 62.8562V65.6212ZM167.663 64.3309C167.663 61.3816 162.178 61.0129 162.178 58.9853C162.178 58.248 162.726 57.8793 163.458 57.8793C164.737 57.8793 166.383 58.801 166.749 60.4599H167.114L167.48 58.0636C166.566 57.5106 165.286 57.3263 164.189 57.3263C161.995 57.3263 159.984 58.248 159.984 60.4599C159.984 63.7779 165.103 63.7779 165.103 65.8056C165.103 66.5429 164.372 66.9115 163.64 66.9115C162.361 66.9115 160.532 65.9899 160.349 64.1466H159.984L159.618 66.7272C160.715 67.2802 161.995 67.6489 163.092 67.6489C165.652 67.6489 167.663 66.3586 167.663 64.3309ZM164.372 54.377C163.823 54.0083 163.092 53.271 162.178 52.9023L161.812 53.4553C162.726 54.1927 163.64 55.1143 164.189 56.036C164.92 55.1143 165.652 54.1927 166.749 53.271L166.383 53.0867C165.469 53.4553 164.92 54.0083 164.372 54.377ZM176.256 65.6212C175.708 65.8056 174.976 65.9899 174.428 65.9899C173.514 65.9899 172.599 65.6212 172.599 63.9622V58.4323H175.891V57.5106H172.599V55.1143H172.051L169.491 57.5106L168.029 57.695V58.4323H169.491V64.1466C169.491 66.9115 170.771 67.6489 172.417 67.6489C173.879 67.6489 175.342 67.0959 176.256 65.8056V65.6212ZM185.764 62.1189V61.7503C185.764 59.354 184.667 57.3263 181.376 57.3263C178.085 57.3263 176.073 60.0913 176.073 62.8562C176.073 65.4369 177.353 67.4645 180.644 67.4645C182.656 67.4645 184.484 66.7272 185.215 65.4369L185.032 65.2526C183.935 65.6212 182.838 65.8056 182.29 65.8056C180.644 65.8056 179.182 64.6996 178.816 62.1189H185.764ZM181.376 57.8793C182.656 57.8793 183.204 59.1696 183.204 61.5659H178.999C178.999 58.6166 180.096 57.8793 181.376 57.8793ZM190.152 62.4876V54.5613C190.152 53.824 189.786 53.4553 189.055 53.4553C187.958 53.4553 186.861 53.824 185.764 54.377V54.7457H187.227V62.4876V65.9899C187.227 66.5429 187.044 66.7272 186.495 66.9115L185.947 67.0959C185.947 67.0959 185.947 67.2802 185.947 67.4645H191.797C191.797 67.4645 191.797 67.2802 191.797 67.0959L190.883 66.9115C190.335 66.7272 190.152 66.5429 190.152 65.9899V62.4876ZM196.368 62.4876C194.357 62.6719 192.163 63.2249 192.163 65.4369C192.163 66.5429 193.077 67.4645 194.723 67.4645C196.003 67.4645 197.1 66.7272 197.831 65.8056C197.831 67.0959 198.562 67.4645 199.842 67.4645C200.574 67.4645 201.671 66.9115 202.402 66.3586V66.1742H201.122L200.939 62.3033V60.0913C200.939 57.695 199.111 57.142 197.648 57.142C195.82 57.142 193.809 58.4323 193.26 58.9853L193.443 59.1696C194.174 58.801 195.089 58.4323 195.82 58.4323C196.917 58.4323 198.014 58.9853 198.014 60.2756V62.1189C197.283 62.3033 196.734 62.4876 196.368 62.4876ZM197.648 65.6212C197.1 65.8056 196.734 65.9899 196.368 65.9899C195.637 65.9899 195.089 65.6212 195.089 64.5152C195.089 63.7779 195.637 63.4092 196.551 63.0406C196.917 63.0406 197.283 62.8562 197.648 62.8562V65.6212Z" fill="#484848"/>
<path d="M147.916 49.9534C146.819 49.4005 145.905 48.4788 144.991 47.5571C144.442 47.0041 144.076 46.2668 143.528 45.5295C144.991 45.1608 145.905 44.4235 145.905 42.9488C145.905 40.7368 144.259 40.1839 141.151 40.1839H135.849C135.849 40.1839 135.849 40.3682 135.849 40.5525L136.58 40.7369C136.946 40.7369 137.128 40.9212 137.128 41.2898V46.2668V49.0318C137.128 49.4005 136.946 49.5848 136.58 49.7691H135.849C135.849 49.7691 135.849 49.9534 135.849 50.1378H141.151C141.151 49.9534 141.151 49.7691 141.151 49.7691C140.968 49.7691 140.602 49.5848 140.42 49.5848C140.054 49.5848 139.871 49.2161 139.871 49.0318V46.2668V45.7138H140.785C141.517 47.0041 142.065 48.4788 142.979 49.2161C144.259 50.3221 146.27 50.3221 147.733 50.3221L147.916 49.9534ZM140.054 45.3452V40.5525H140.602C142.431 40.5525 142.796 41.2898 142.796 42.7645C142.796 44.6078 142.431 45.1608 140.785 45.1608L140.054 45.3452ZM149.744 46.2668V49.0318C149.744 49.4005 149.561 49.5848 149.196 49.7691H148.282C148.282 49.7691 148.282 49.9534 148.282 50.1378H153.584C153.584 49.9534 153.584 49.7691 153.584 49.7691L152.853 49.5848C152.487 49.5848 152.304 49.2161 152.304 49.0318V46.2668V41.2898C152.304 40.9212 152.487 40.7369 152.853 40.5525L153.401 40.3682C153.401 40.1839 153.401 40.1839 153.401 39.9995H148.099C148.099 39.9995 148.099 40.1839 148.099 40.3682L148.83 40.5525C149.196 40.5525 149.379 40.7368 149.379 41.1055V46.2668H149.744ZM159.069 41.6585C159.069 41.4742 158.886 41.2898 158.886 41.1055C158.886 40.9212 159.069 40.7369 159.252 40.5525L159.983 40.3682V40.1839H154.132V40.3682L154.864 40.5525C155.412 40.7369 155.595 40.9212 155.778 41.6585L159.069 50.3221L160.897 50.1378C162.177 47.3728 163.457 44.6078 164.92 41.8428C165.286 41.1055 165.651 40.7369 166.017 40.5525L166.565 40.3682C166.565 40.3682 166.565 40.1839 166.565 39.9995H162.909V40.1839L163.64 40.3682C164.006 40.5525 164.189 40.7369 164.189 40.9212C164.189 41.1055 164.006 41.4742 164.006 41.6585L161.446 47.9258L159.069 41.6585ZM168.577 46.2668V49.0318C168.577 49.4005 168.394 49.5848 168.028 49.7691H167.297C167.297 49.7691 167.297 49.9534 167.297 50.1378H172.599C172.599 49.9534 172.599 49.7691 172.599 49.7691L171.868 49.5848C171.502 49.5848 171.319 49.2161 171.319 49.0318V46.2668V41.2898C171.319 40.9212 171.502 40.7369 171.868 40.5525L172.416 40.3682C172.416 40.1839 172.416 40.1839 172.416 39.9995H167.114C167.114 39.9995 167.114 40.1839 167.114 40.3682L167.845 40.5525C168.211 40.5525 168.394 40.7368 168.394 41.1055V46.2668H168.577ZM182.838 47.5571H182.472C182.107 49.0318 181.01 49.7691 178.816 49.7691H177.536V45.5295L181.558 45.7138V44.9765L177.536 45.1608V40.5525H179.181C181.01 40.5525 181.741 40.9212 181.924 42.2115H182.289V39.9995H173.513C173.513 39.9995 173.513 40.1839 173.513 40.3682L174.245 40.5525C174.61 40.5525 174.793 40.7368 174.793 41.1055V46.0825V48.8475C174.793 49.2161 174.61 49.4005 174.245 49.5848L173.513 49.7691C173.513 49.7691 173.513 49.9534 173.513 50.1378H182.472L182.838 47.5571ZM195.819 49.9534C194.722 49.4005 193.808 48.4788 192.894 47.5571C192.346 47.0041 191.98 46.2668 191.431 45.5295C192.894 45.1608 193.808 44.4235 193.808 42.9488C193.808 40.7368 192.163 40.1839 189.054 40.1839H183.752C183.752 40.1839 183.752 40.3682 183.752 40.5525L184.484 40.7369C184.849 40.7369 185.032 40.9212 185.032 41.2898V46.2668V49.0318C185.032 49.4005 184.849 49.5848 184.484 49.7691L183.935 49.9534C183.935 49.9534 183.935 50.1378 183.935 50.3221H189.237C189.237 50.1378 189.237 49.9534 189.237 49.9534C189.054 49.9534 188.689 49.7691 188.506 49.7691C188.14 49.7691 187.957 49.4005 187.957 49.2161V46.4511V45.8981H188.872C189.603 47.1885 190.151 48.6631 191.066 49.4005C192.346 50.5064 194.357 50.5064 195.819 50.5064V49.9534ZM187.775 45.3452V40.5525H188.323C190.151 40.5525 190.517 41.2898 190.517 42.7645C190.517 44.6078 190.151 45.1608 188.506 45.1608L187.775 45.3452ZM203.682 48.4788C203.682 48.6631 203.864 48.8475 203.864 49.0318C203.864 49.2161 203.682 49.4005 203.499 49.5848L202.767 49.7691V49.9534H208.618C208.618 49.7691 208.618 49.5848 208.618 49.5848L208.07 49.4005C207.704 49.2161 207.338 48.8475 207.155 48.2945L203.864 39.6309L202.036 39.8152L198.014 48.1101C197.648 48.8475 197.282 49.2161 196.916 49.4005L196.368 49.5848C196.368 49.7691 196.368 49.7691 196.368 49.9534H200.025V49.7691L199.293 49.5848C198.928 49.4005 198.745 49.2161 198.745 49.0318C198.745 48.8475 198.928 48.4788 198.928 48.2945L199.659 46.8198H203.316L203.682 48.4788ZM201.487 42.2115C202.036 43.5018 202.402 44.7922 202.95 46.0825H199.659L201.487 42.2115Z" fill="#4D4D4F"/>
</svg>
