<svg width="255" height="164" viewBox="0 0 255 164" fill="none" xmlns="http://www.w3.org/2000/svg">
<path d="M0 0H73.7169L72.953 58.1461L0 56.6058V0Z" fill="#596B30"/>
<path d="M73.7172 0L44.6888 10.7821L43.543 80.0953L72.5714 58.1461L73.7172 0Z" fill="#8A9A39"/>
<path d="M44.6888 10.7824L43.543 80.0956L119.934 79.7105V8.08691L44.6888 10.7824Z" fill="#C9D24F"/>
<path d="M89.377 23.8749L119.933 8.08691V79.7106L89.377 106.281V23.8749Z" fill="#A3937B"/>
<path d="M89.377 23.875L168.823 28.881L165.386 119.758L89.377 106.281V23.875Z" fill="#49C0B6"/>
<path d="M140.943 49.2888L168.826 28.8799L165.388 119.757L140.943 163.27V49.2888Z" fill="#00A0DC"/>
<path d="M254.001 163.271H140.943V49.2891H254.001L227.265 106.28L254.001 163.271Z" fill="#005282"/>
</svg>
