<svg width="250" height="95" viewBox="0 0 250 95" fill="none" xmlns="http://www.w3.org/2000/svg">
<path d="M0 0.433594H42.1766L41.7395 33.1966L0 32.3287V0.433594Z" fill="#596B30"/>
<path d="M42.1761 0.433594L25.5677 6.50886L24.9121 45.5642L41.5205 33.1966L42.1761 0.433594Z" fill="#8A9A39"/>
<path d="M25.5677 6.50905L24.9121 45.5644L68.6184 45.3474V4.99023L25.5677 6.50905Z" fill="#C9D24F"/>
<path d="M51.1367 13.8862L68.6192 4.99023V45.3474L51.1367 60.3186V13.8862Z" fill="#A3937B"/>
<path d="M51.1367 13.8867L96.5913 16.7074L94.6245 67.9132L51.1367 60.3191V13.8867Z" fill="#49C0B6"/>
<path d="M80.6377 28.2066L96.5905 16.707L94.6237 67.9129L80.6377 92.4309V28.2066Z" fill="#00A0DC"/>
<path d="M145.323 92.4313H80.6377V28.207H145.323L130.026 60.3192L145.323 92.4313Z" fill="#005282"/>
<path d="M163.899 93.9496L166.303 88.7422V88.0913H162.369V88.9592H165.429L163.025 93.9496H163.899ZM170.892 88.3082C170.673 88.5252 170.455 88.7422 170.236 88.9592L170.018 88.0913H169.362V92.4307H170.455V90.044C170.455 89.6101 170.673 89.3931 170.892 89.1761C171.11 88.9592 171.329 88.7422 171.766 88.7422C171.985 88.7422 171.985 88.7422 172.203 88.7422V87.8743C171.985 87.8743 171.985 87.8743 171.766 87.8743C171.329 88.0913 171.11 88.0913 170.892 88.3082ZM175.918 92.4307C176.137 92.4307 176.355 92.2138 176.574 92.2138V91.5628C176.355 91.7798 176.137 91.7798 175.918 91.7798C175.7 91.7798 175.481 91.7798 175.262 91.7798C174.825 91.7798 174.607 91.5628 174.388 91.3459C174.17 91.1289 173.951 90.6949 173.951 90.261H176.792V89.8271C176.792 89.1761 176.574 88.7422 176.355 88.3082C175.918 87.8743 175.481 87.8743 175.044 87.8743C174.388 87.8743 173.951 88.0913 173.514 88.5252C173.077 88.9592 173.077 89.3931 173.077 90.261C173.077 90.9119 173.296 91.5628 173.733 91.9968C174.17 92.4307 174.607 92.6477 175.262 92.6477C175.262 92.6477 175.7 92.6477 175.918 92.4307ZM175.481 88.9592C175.7 89.1761 175.7 89.3931 175.7 89.8271H173.733C173.733 89.3931 173.951 89.1761 173.951 88.9592C174.17 88.7422 174.388 88.7422 174.607 88.7422C175.262 88.7422 175.481 88.9592 175.481 88.9592ZM181.381 92.4307V89.3931C181.381 88.9592 181.163 88.5252 180.944 88.3082C180.726 88.0913 180.289 87.8743 179.633 87.8743C179.415 87.8743 179.196 87.8743 178.759 87.8743C178.54 87.8743 178.103 88.0913 177.885 88.0913L178.103 88.7422C178.322 88.7422 178.54 88.5252 178.759 88.5252C178.978 88.5252 179.196 88.5252 179.415 88.5252C179.633 88.5252 179.852 88.5252 180.07 88.7422C180.289 88.9592 180.289 89.1761 180.289 89.3931V89.6101H179.633C178.978 89.6101 178.322 89.8271 178.103 90.044C177.666 90.261 177.666 90.6949 177.666 91.1289C177.666 91.5628 177.885 91.7798 178.103 92.2138C178.322 92.4307 178.759 92.6477 179.196 92.6477C179.633 92.6477 179.852 92.6477 180.07 92.4307C180.289 92.2138 180.507 92.2138 180.726 91.7798L180.944 92.4307H181.381ZM178.978 91.7798C178.759 91.7798 178.759 91.5628 178.759 91.3459C178.759 91.1289 178.759 90.9119 178.978 90.6949C179.196 90.478 179.415 90.478 179.852 90.478H180.507V90.9119C180.507 91.3459 180.507 91.5628 180.289 91.7798C180.07 91.9968 179.852 91.9968 179.415 91.9968C179.196 91.7798 178.978 91.7798 178.978 91.7798ZM185.971 90.6949C185.971 90.478 185.752 90.478 185.533 90.261C185.315 90.044 185.096 90.044 184.659 89.8271C184.222 89.6101 184.004 89.6101 183.785 89.3931C183.567 89.3931 183.567 89.1761 183.567 88.9592C183.567 88.7422 183.785 88.5252 184.222 88.5252C184.441 88.5252 184.878 88.5252 185.533 88.7422L185.752 88.0913C185.315 87.8743 184.878 87.8743 184.222 87.8743C183.785 87.8743 183.348 87.8743 182.911 88.0913C182.693 88.3082 182.474 88.5252 182.474 88.9592C182.474 89.1761 182.474 89.6101 182.693 89.8271C182.911 90.044 183.13 90.261 183.785 90.478C184.004 90.478 184.222 90.6949 184.441 90.6949C184.659 90.6949 184.659 90.9119 184.659 90.9119V91.1289C184.659 91.5628 184.441 91.5628 183.785 91.5628C183.348 91.5628 182.911 91.3459 182.256 91.1289V91.9968C182.693 92.2138 183.13 92.2138 183.567 92.2138C184.222 92.2138 184.659 91.9968 184.878 91.7798C185.096 91.5628 185.315 91.1289 185.315 90.6949C185.971 91.1289 185.971 90.9119 185.971 90.6949ZM190.56 88.7422C190.123 88.3082 189.686 88.0913 189.03 88.0913C188.374 88.0913 187.937 88.3082 187.5 88.7422C187.063 89.1761 186.845 89.6101 186.845 90.478C186.845 90.9119 186.845 91.3459 187.063 91.7798C187.282 92.2138 187.5 92.4307 187.719 92.6477C187.937 92.8647 188.374 92.8647 188.811 92.8647C189.467 92.8647 189.904 92.6477 190.341 92.2138C190.778 91.7798 190.997 91.3459 190.997 90.478C191.215 89.6101 190.997 89.1761 190.56 88.7422ZM188.156 89.1761C188.374 88.9592 188.593 88.7422 189.03 88.7422C189.686 88.7422 190.123 89.1761 190.123 90.261C190.123 91.3459 189.686 91.7798 189.03 91.7798C188.374 91.7798 187.937 91.3459 187.937 90.261C187.937 89.827 187.937 89.3931 188.156 89.1761ZM196.242 89.6101C196.242 88.5252 195.804 88.0913 194.712 88.0913C194.493 88.0913 194.056 88.0913 193.838 88.3082C193.619 88.5252 193.401 88.5252 193.182 88.7422L192.964 88.0913H192.308V92.4307H193.182V90.261C193.182 89.6101 193.182 89.3931 193.401 89.1761C193.619 88.9592 193.838 88.7422 194.275 88.7422C194.493 88.7422 194.712 88.7422 194.93 88.9592C195.149 89.1761 195.149 89.3931 195.149 89.6101V92.2138H196.023V89.6101H196.242ZM200.612 90.6949C200.612 90.478 200.394 90.478 200.175 90.261C199.957 90.044 199.738 90.044 199.301 89.8271C198.864 89.6101 198.645 89.6101 198.427 89.3931C198.208 89.3931 198.208 89.1761 198.208 88.9592C198.208 88.7422 198.427 88.5252 198.864 88.5252C199.082 88.5252 199.519 88.5252 200.175 88.7422L200.394 88.0913C199.957 87.8743 199.519 87.8743 198.864 87.8743C198.427 87.8743 197.99 87.8743 197.553 88.0913C197.334 88.3082 197.116 88.5252 197.116 88.9592C197.116 89.1761 197.116 89.6101 197.334 89.8271C197.553 90.044 197.771 90.261 198.427 90.478C198.645 90.478 198.864 90.6949 199.082 90.6949C199.301 90.6949 199.301 90.9119 199.301 90.9119V91.1289C199.301 91.5628 199.082 91.5628 198.427 91.5628C197.99 91.5628 197.553 91.3459 196.897 91.1289V91.9968C197.334 92.2138 197.771 92.2138 198.208 92.2138C198.864 92.2138 199.301 91.9968 199.52 91.7798C199.738 91.5628 199.957 91.1289 199.957 90.6949C200.831 91.1289 200.831 90.9119 200.612 90.6949ZM205.201 91.7798C204.983 91.7798 204.983 91.5628 204.983 91.3459V88.9592H206.294V88.3082H204.983V87.2234H204.327L204.109 88.0913L203.453 88.5252V88.9592H204.109V91.1289C204.109 91.9968 204.546 92.4307 205.42 92.4307C205.638 92.4307 205.857 92.4307 205.857 92.4307C206.075 92.4307 206.075 92.4307 206.294 92.2138V91.5628C206.075 91.5628 205.857 91.7798 205.638 91.7798C205.42 91.7798 205.201 91.7798 205.201 91.7798ZM210.665 88.7422C210.228 88.3082 209.79 88.0913 209.135 88.0913C208.479 88.0913 208.042 88.3082 207.605 88.7422C207.168 89.1761 206.95 89.6101 206.95 90.478C206.95 90.9119 206.95 91.3459 207.168 91.7798C207.387 92.2138 207.605 92.4307 207.824 92.6477C208.042 92.8647 208.479 92.8647 208.916 92.8647C209.572 92.8647 210.009 92.6477 210.446 92.2138C210.883 91.7798 211.102 91.3459 211.102 90.478C211.32 89.6101 211.102 89.1761 210.665 88.7422ZM208.261 89.1761C208.479 88.9592 208.698 88.7422 209.135 88.7422C209.79 88.7422 210.228 89.1761 210.228 90.261C210.228 91.3459 209.79 91.7798 209.135 91.7798C208.479 91.7798 208.042 91.3459 208.042 90.261C208.042 89.827 208.261 89.3931 208.261 89.1761ZM216.565 92.4307L218.313 88.0913H217.221L216.346 90.6949C216.128 91.1289 216.128 91.5628 216.128 91.7798C216.128 91.5628 215.909 91.1289 215.909 90.6949L215.035 88.0913H213.943L215.691 92.4307H216.565V92.4307ZM220.061 88.0913H219.187V92.4307H220.061V88.0913ZM219.187 87.4403C219.187 87.4403 219.406 87.6573 219.624 87.6573C219.843 87.6573 219.843 87.6573 220.061 87.4403C220.061 87.4403 220.28 87.2234 220.28 87.0064C220.28 86.7894 220.28 86.7894 220.061 86.5724C220.061 86.5724 219.843 86.3555 219.624 86.3555C219.406 86.3555 219.406 86.3555 219.187 86.5724C219.187 86.5724 218.969 86.7894 218.969 87.0064C219.187 87.2234 219.187 87.2234 219.187 87.4403ZM224.432 90.6949C224.432 90.478 224.214 90.478 223.995 90.261C223.776 90.044 223.558 90.044 223.121 89.8271C222.684 89.6101 222.465 89.6101 222.247 89.3931C222.028 89.3931 222.028 89.1761 222.028 88.9592C222.028 88.7422 222.247 88.5252 222.684 88.5252C222.902 88.5252 223.339 88.5252 223.995 88.7422L224.214 88.0913C223.776 87.8743 223.339 87.8743 222.684 87.8743C222.247 87.8743 221.81 87.8743 221.373 88.0913C221.154 88.3082 220.936 88.5252 220.936 88.9592C220.936 89.1761 220.936 89.6101 221.154 89.8271C221.373 90.044 221.591 90.261 222.247 90.478C222.465 90.478 222.684 90.6949 222.902 90.6949C223.121 90.6949 223.121 90.9119 223.121 90.9119V91.1289C223.121 91.5628 222.902 91.5628 222.247 91.5628C221.81 91.5628 221.373 91.3459 220.717 91.1289V91.9968C221.154 92.2138 221.591 92.2138 222.028 92.2138C222.684 92.2138 223.121 91.9968 223.339 91.7798C223.558 91.5628 223.776 91.1289 223.776 90.6949C224.651 91.1289 224.651 90.9119 224.432 90.6949ZM226.836 88.0913H225.962V92.4307H226.836V88.0913ZM225.962 87.4403C225.962 87.4403 226.18 87.6573 226.399 87.6573C226.617 87.6573 226.617 87.6573 226.836 87.4403C226.836 87.4403 227.054 87.2234 227.054 87.0064C227.054 86.7894 227.054 86.7894 226.836 86.5724C226.836 86.5724 226.617 86.3555 226.399 86.3555C226.18 86.3555 226.18 86.3555 225.962 86.5724C225.962 86.5724 225.743 86.7894 225.743 87.0064C225.743 87.2234 225.743 87.2234 225.962 87.4403ZM229.458 91.7798C229.24 91.7798 229.24 91.5628 229.24 91.3459V88.9592H230.551V88.3082H229.458V87.2234H228.803L228.584 88.0913L227.929 88.5252V88.9592H228.584V91.1289C228.584 91.9968 229.021 92.4307 229.895 92.4307C230.114 92.4307 230.332 92.4307 230.332 92.4307C230.551 92.4307 230.551 92.4307 230.77 92.2138V91.5628C230.551 91.5628 230.332 91.7798 230.114 91.7798C229.895 91.7798 229.677 91.7798 229.458 91.7798ZM231.862 92.4307C231.862 92.6477 232.081 92.6477 232.299 92.6477C232.518 92.6477 232.736 92.6477 232.736 92.4307C232.736 92.4307 232.955 92.2138 232.955 91.9968C232.955 91.7798 232.955 91.5628 232.736 91.5628C232.736 91.5628 232.518 91.3459 232.299 91.3459C232.081 91.3459 231.862 91.3459 231.862 91.5628C231.862 91.5628 231.644 91.7798 231.644 91.9968C231.862 92.2138 231.862 92.4307 231.862 92.4307Z" fill="white"/>
<path d="M163.898 73.5541V77.6766C163.898 78.3275 163.68 78.5445 163.024 78.7615L162.369 78.9785C162.369 78.9785 162.369 79.1954 162.369 79.4124H169.362C169.362 79.4124 169.362 79.1955 169.362 78.9785L168.269 78.7615C167.613 78.5445 167.395 78.3275 167.395 77.6766V73.5541V65.96C167.395 65.3091 167.613 65.0921 168.269 64.8752L168.925 64.6582C168.925 64.6582 168.925 64.4412 168.925 64.2242H161.932C161.932 64.4412 161.932 64.4412 161.932 64.6582L163.024 64.8752C163.68 65.0921 163.898 65.3091 163.898 65.96V73.5541ZM178.54 79.4124C177.229 78.3275 176.573 77.6766 175.481 76.1578L171.11 69.6486L172.858 67.9128C174.388 66.394 175.262 65.0921 176.573 64.6582L177.447 64.4412C177.447 64.2242 177.447 64.2242 177.447 64.2242H171.547V64.4412L172.421 64.6582C172.858 64.8752 173.295 65.0921 173.295 65.7431C173.295 65.96 173.077 66.394 172.858 66.8279L168.269 71.6014V72.0353L171.766 77.4597C173.295 79.4124 176.136 79.8464 178.759 79.8464L178.54 79.4124ZM183.566 73.5541C181.162 73.7711 178.54 74.422 178.54 77.0257C178.54 78.3276 179.633 79.4124 181.599 79.4124C183.129 79.4124 184.44 78.5445 185.315 77.4597C185.315 78.9785 186.189 79.4124 187.718 79.4124C188.593 79.4124 189.904 78.7615 190.778 78.1106V77.8936H189.248L189.03 73.3372V70.7335C189.03 67.9128 186.844 67.2619 185.096 67.2619C182.911 67.2619 180.507 68.7807 179.851 69.4316L180.07 69.6486C180.944 69.2146 182.037 68.7807 182.911 68.7807C184.222 68.7807 185.533 69.4316 185.533 70.9504V73.1202C184.659 73.3372 184.003 73.5541 183.566 73.5541ZM185.096 77.2427C184.44 77.4597 184.003 77.6766 183.566 77.6766C182.692 77.6766 182.037 77.2427 182.037 75.9408C182.037 75.0729 182.692 74.639 183.785 74.205C184.222 74.205 184.659 73.9881 185.096 73.9881V77.2427V77.2427ZM200.393 75.7239C200.393 72.2523 193.837 71.8183 193.837 69.4316C193.837 68.5637 194.493 68.1298 195.367 68.1298C196.897 68.1298 198.863 69.2146 199.301 71.1674H199.738L200.175 68.3468C199.082 67.6958 197.552 67.4789 196.241 67.4789C193.619 67.4789 191.215 68.5637 191.215 71.1674C191.215 75.0729 197.334 75.0729 197.334 77.4597C197.334 78.3276 196.46 78.7615 195.586 78.7615C194.056 78.7615 191.87 77.6766 191.652 75.5069H191.215L190.778 78.5445C192.089 79.1954 193.619 79.6294 194.93 79.6294C197.989 79.6294 200.393 78.1106 200.393 75.7239ZM196.46 64.0073C195.804 63.5733 194.93 62.7054 193.837 62.2715L193.4 62.9224C194.493 63.7903 195.586 64.8752 196.241 65.96C197.115 64.8752 197.989 63.7903 199.301 62.7054L198.863 62.4885C197.771 62.9224 197.115 63.5733 196.46 64.0073ZM210.664 77.2427C210.009 77.4597 209.134 77.6766 208.479 77.6766C207.386 77.6766 206.294 77.2427 206.294 75.2899V68.7807H210.227V67.6958H206.294V64.8752H205.638L202.579 67.6958L200.83 67.9128V68.7807H202.579V75.5069C202.579 78.7615 204.108 79.6294 206.075 79.6294C207.823 79.6294 209.572 78.9785 210.664 77.4597V77.2427ZM222.028 73.1202V72.6862C222.028 69.8656 220.717 67.4789 216.783 67.4789C212.849 67.4789 210.446 70.7335 210.446 73.9881C210.446 77.0257 211.975 79.4124 215.909 79.4124C218.313 79.4124 220.498 78.5445 221.372 77.0257L221.154 76.8087C219.843 77.2427 218.531 77.4597 217.876 77.4597C215.909 77.4597 214.161 76.1578 213.724 73.1202H222.028V73.1202ZM216.783 68.1298C218.313 68.1298 218.968 69.6486 218.968 72.4693H213.942C213.942 68.9977 215.253 68.1298 216.783 68.1298ZM227.273 73.5541V64.2242C227.273 63.3564 226.836 62.9224 225.961 62.9224C224.65 62.9224 223.339 63.3564 222.028 64.0073V64.4412H223.776V73.5541V77.6766C223.776 78.3275 223.558 78.5445 222.902 78.7615L222.246 78.9785C222.246 78.9785 222.246 79.1954 222.246 79.4124H229.239C229.239 79.4124 229.239 79.1955 229.239 78.9785L228.147 78.7615C227.491 78.5445 227.273 78.3275 227.273 77.6766V73.5541ZM234.703 73.5541C232.299 73.7711 229.676 74.422 229.676 77.0257C229.676 78.3276 230.769 79.4124 232.736 79.4124C234.266 79.4124 235.577 78.5445 236.451 77.4597C236.451 78.9785 237.325 79.4124 238.855 79.4124C239.729 79.4124 241.04 78.7615 241.914 78.1106V77.8936H240.384L240.166 73.3372V70.7335C240.166 67.9128 237.981 67.2619 236.232 67.2619C234.047 67.2619 231.643 68.7807 230.988 69.4316L231.206 69.6486C232.08 69.2146 233.173 68.7807 234.047 68.7807C235.358 68.7807 236.669 69.4316 236.669 70.9504V73.1202C235.795 73.3372 235.14 73.5541 234.703 73.5541ZM236.232 77.2427C235.577 77.4597 235.14 77.6766 234.703 77.6766C233.829 77.6766 233.173 77.2427 233.173 75.9408C233.173 75.0729 233.829 74.639 234.921 74.205C235.358 74.205 235.795 73.9881 236.232 73.9881V77.2427V77.2427Z" fill="white"/>
<path d="M176.792 58.8C175.481 58.149 174.388 57.0642 173.296 55.9793C172.64 55.3284 172.203 54.4605 171.547 53.5926C173.296 53.1586 174.388 52.2907 174.388 50.5549C174.388 47.9513 172.422 47.3003 168.707 47.3003H162.369C162.369 47.3003 162.369 47.5173 162.369 47.7343L163.243 47.9513C163.68 47.9513 163.899 48.1682 163.899 48.6022V54.4605V57.7151C163.899 58.149 163.68 58.366 163.243 58.583H162.369C162.369 58.583 162.369 58.8 162.369 59.0169H168.707C168.707 58.8 168.707 58.583 168.707 58.583C168.488 58.583 168.051 58.366 167.832 58.366C167.395 58.366 167.177 57.9321 167.177 57.7151V54.4605V53.8095H168.269C169.144 55.3284 169.799 57.0642 170.892 57.9321C172.422 59.2339 174.825 59.2339 176.574 59.2339L176.792 58.8ZM167.395 53.3756V47.7343H168.051C170.236 47.7343 170.673 48.6022 170.673 50.338C170.673 52.5077 170.236 53.1586 168.269 53.1586L167.395 53.3756ZM178.978 54.4605V57.7151C178.978 58.149 178.759 58.366 178.322 58.583H177.229C177.229 58.583 177.229 58.8 177.229 59.0169H183.567C183.567 58.8 183.567 58.583 183.567 58.583L182.693 58.366C182.255 58.366 182.037 57.9321 182.037 57.7151V54.4605V48.6022C182.037 48.1682 182.255 47.9513 182.693 47.7343L183.348 47.5173C183.348 47.3003 183.348 47.3003 183.348 47.0834H177.011C177.011 47.0834 177.011 47.3003 177.011 47.5173L177.885 47.7343C178.322 47.7343 178.54 47.9513 178.54 48.3852V54.4605H178.978ZM190.123 49.0361C190.123 48.8192 189.904 48.6022 189.904 48.3852C189.904 48.1682 190.123 47.9513 190.341 47.7343L191.215 47.5173V47.3003H184.222V47.5173L185.096 47.7343C185.752 47.9513 185.971 48.1682 186.189 49.0361L190.123 59.2339L192.308 59.0169C193.838 55.7623 195.367 52.5077 197.116 49.2531C197.553 48.3852 197.99 47.9513 198.427 47.7343L199.082 47.5173C199.082 47.5173 199.082 47.3003 199.082 47.0834H194.712V47.3003L195.586 47.5173C196.023 47.7343 196.242 47.9513 196.242 48.1682C196.242 48.3852 196.023 48.8192 196.023 49.0361L192.964 56.4132L190.123 49.0361ZM201.486 54.4605V57.7151C201.486 58.149 201.268 58.366 200.831 58.583H199.957C199.957 58.583 199.957 58.8 199.957 59.0169H206.294C206.294 58.8 206.294 58.583 206.294 58.583L205.42 58.366C204.983 58.366 204.764 57.9321 204.764 57.7151V54.4605V48.6022C204.764 48.1682 204.983 47.9513 205.42 47.7343L206.075 47.5173C206.075 47.3003 206.075 47.3003 206.075 47.0834H199.738C199.738 47.0834 199.738 47.3003 199.738 47.5173L200.612 47.7343C201.049 47.7343 201.268 47.9513 201.268 48.3852V54.4605H201.486ZM218.532 55.9793H218.095C217.658 57.7151 216.346 58.583 213.724 58.583H212.194V53.5926L217.002 53.8095V52.9417L212.194 53.1586V47.7343H214.161C216.346 47.7343 217.221 48.1682 217.439 49.687H217.876V47.0834H207.387C207.387 47.0834 207.387 47.3003 207.387 47.5173L208.261 47.7343C208.698 47.7343 208.916 47.9513 208.916 48.3852V54.2435V57.4981C208.916 57.9321 208.698 58.149 208.261 58.366L207.387 58.583C207.387 58.583 207.387 58.8 207.387 59.0169H218.095L218.532 55.9793ZM234.047 58.8C232.736 58.149 231.644 57.0642 230.551 55.9793C229.895 55.3284 229.458 54.4605 228.803 53.5926C230.551 53.1586 231.644 52.2907 231.644 50.5549C231.644 47.9513 229.677 47.3003 225.962 47.3003H219.624C219.624 47.3003 219.624 47.5173 219.624 47.7343L220.498 47.9513C220.936 47.9513 221.154 48.1682 221.154 48.6022V54.4605V57.7151C221.154 58.149 220.936 58.366 220.498 58.583L219.843 58.8C219.843 58.8 219.843 59.0169 219.843 59.2339H226.18C226.18 59.0169 226.18 58.8 226.18 58.8C225.962 58.8 225.525 58.583 225.306 58.583C224.869 58.583 224.651 58.149 224.651 57.9321V54.6774V54.0265H225.743C226.617 55.5453 227.273 57.2811 228.366 58.149C229.895 59.4509 232.299 59.4509 234.047 59.4509V58.8ZM224.432 53.3756V47.7343H225.088C227.273 47.7343 227.71 48.6022 227.71 50.338C227.71 52.5077 227.273 53.1586 225.306 53.1586L224.432 53.3756ZM243.444 57.0642C243.444 57.2811 243.663 57.4981 243.663 57.7151C243.663 57.9321 243.444 58.149 243.226 58.366L242.352 58.583V58.8H249.345C249.345 58.583 249.345 58.366 249.345 58.366L248.689 58.149C248.252 57.9321 247.815 57.4981 247.596 56.8472L243.663 46.6494L241.478 46.8664L236.67 56.6302C236.233 57.4981 235.796 57.9321 235.359 58.149L234.703 58.366C234.703 58.583 234.703 58.583 234.703 58.8H239.074V58.583L238.2 58.366C237.762 58.149 237.544 57.9321 237.544 57.7151C237.544 57.4981 237.762 57.0642 237.762 56.8472L238.637 55.1114H243.007L243.444 57.0642ZM240.822 49.687C241.478 51.2059 241.915 52.7247 242.57 54.2435H238.637L240.822 49.687Z" fill="white"/>
</svg>
