<svg width="72" height="70" viewBox="0 0 72 70" fill="none" xmlns="http://www.w3.org/2000/svg">
<path d="M14.8994 10.8167C20.2225 8.17191 25.4802 5.54877 30.7379 2.94731C32.0687 2.27526 33.4213 1.6249 34.7521 0.952853C35.8429 0.389204 36.9337 0.345846 38.0463 0.909496C44.6129 4.16132 51.1796 7.43483 57.7462 10.7083C57.8117 10.7517 57.8771 10.795 58.008 10.9034C57.7462 11.0552 57.5281 11.2069 57.2881 11.337C50.5469 15.0658 43.8276 18.7729 37.0864 22.4799C36.781 22.6317 36.2792 22.7184 35.9956 22.5667C29.0362 18.7512 22.0987 14.914 15.1394 11.0769C15.0958 11.0118 15.0303 10.9468 14.8994 10.8167Z" fill="black"/>
<path d="M36.4537 23.088L14.8994 10.7744L36.4537 0L57.9862 10.7744L36.4537 23.088Z" fill="#49C0B6"/>
<path d="M19.1764 37.9161C17.2129 36.1818 14.4859 35.293 11.0608 35.293C8.22467 35.293 5.8249 36.03 3.9269 37.5042C2.00708 39.0001 0.741748 41.1246 0.130897 43.7911L0.0218161 44.2247L6.08669 45.5687L6.17396 45.1568C6.76299 42.5771 8.22467 41.4714 11.0608 41.4714C12.9151 41.4714 14.2896 41.84 15.0967 42.5771C15.7949 43.1841 16.1657 44.1813 16.1657 45.482C16.1657 46.8044 15.7949 47.845 15.0967 48.4303C14.2241 49.1457 12.8279 49.536 11.039 49.536H8.57373V55.7144H11.0608C12.9151 55.7144 14.2896 56.083 15.0967 56.8201C15.7949 57.4271 16.1657 58.4243 16.1657 59.725C16.1657 61.0474 15.7949 62.088 15.0967 62.6733C14.2241 63.3888 12.8279 63.779 11.039 63.779C8.20286 63.779 6.76299 62.6733 6.15214 60.0936L6.06488 59.6817L0 60.9824L0.0872644 61.416C0.698115 64.1041 1.96345 66.2504 3.88327 67.7462C5.78127 69.2204 8.18104 69.9574 11.0171 69.9574C14.4641 69.9574 17.1911 69.0686 19.1327 67.3343C21.2271 65.4916 22.3397 62.8685 22.3397 59.7033C22.3397 56.8634 21.4016 54.4137 19.6563 52.5927C21.4234 50.7717 22.3397 48.3003 22.3397 45.4387C22.3833 42.3603 21.2707 39.7371 19.1764 37.9161Z" fill="#3F3FA0"/>
<path d="M32.0048 42.8155C32.7901 41.905 34.0118 41.4714 35.7571 41.4714H36.0407C38.8332 41.4714 40.3385 42.5987 40.9276 45.1568L41.0148 45.5687L47.0797 44.2247L46.9924 43.7911C46.3816 41.1246 45.0944 39.0001 43.1964 37.5042C41.2984 36.03 38.8987 35.293 36.0626 35.293H35.7789C32.2447 35.293 29.3432 36.4853 27.3797 38.7182C25.4381 40.8428 24.4346 43.8344 24.4346 47.5632V57.7089C24.4346 61.4377 25.4163 64.4293 27.3579 66.5539C29.3214 68.8085 32.2229 70.0008 35.7571 70.0008C37.3497 70.0008 38.8768 69.7623 40.2731 69.3071C41.6693 68.8085 42.9565 68.0063 43.9818 66.9874C45.0072 66.0119 45.7925 64.7762 46.338 63.2804C46.7961 61.9146 47.0361 60.332 47.0361 58.7495C47.0361 57.1669 46.7961 55.6494 46.338 54.262C45.8144 52.7878 45.0072 51.5304 44.0036 50.5766C43.0219 49.5576 41.7784 48.7772 40.2731 48.2352C38.8768 47.78 37.3497 47.5415 35.7571 47.5415C34.1427 47.5415 32.572 47.78 31.1758 48.2352C31.0012 48.3003 30.8267 48.3653 30.6522 48.4303V47.5632C30.6522 45.3953 31.1103 43.7911 32.0048 42.8155ZM35.7571 53.6983C37.5024 53.6983 38.7896 54.0885 39.6404 54.869C40.4258 55.6928 40.8185 56.9935 40.8185 58.7278C40.8185 60.5055 40.4258 61.8062 39.6404 62.5866C38.8114 63.4104 37.5242 63.8223 35.7571 63.8223C34.0118 63.8223 32.7901 63.3888 32.0048 62.4566C31.2194 61.5894 30.7612 60.1369 30.6522 58.2509C30.7394 56.7333 31.1539 55.606 31.8957 54.8906C32.6811 54.0885 33.99 53.6983 35.7571 53.6983Z" fill="#3F3FA0"/>
<path d="M68.7865 38.7165C66.8231 36.4619 63.9215 35.2695 60.3873 35.2695C56.8531 35.2695 53.9516 36.4619 51.9881 38.6948C50.0683 40.841 49.1084 43.811 49.1084 47.5398V57.6854C49.1084 61.3925 50.0683 64.3842 51.9881 66.5304C53.9516 68.785 56.8531 69.9773 60.3873 69.9773C63.9215 69.9773 66.8231 68.785 68.7865 66.5521C70.7282 64.3625 71.7099 61.3925 71.7099 57.7071V47.5614C71.7099 43.876 70.7282 40.906 68.7865 38.7165ZM55.326 57.7071V47.5614C55.326 45.4152 55.7623 43.811 56.635 42.8138C57.3985 41.9249 58.6639 41.4697 60.3873 41.4697C62.1326 41.4697 63.3543 41.9033 64.1397 42.8138C65.0342 43.8327 65.4923 45.4803 65.4923 47.5614V57.7071C65.4923 59.7666 65.0123 61.4576 64.1397 62.4548C63.3543 63.3653 62.1326 63.7989 60.3873 63.7989C58.6639 63.7989 57.3985 63.3436 56.635 62.4548C55.7841 61.4792 55.326 59.8317 55.326 57.7071Z" fill="#3F3FA0"/>
<path d="M19.1764 37.9161C17.2129 36.1818 14.4859 35.293 11.0608 35.293C8.22467 35.293 5.8249 36.03 3.9269 37.5042C2.00708 39.0001 0.741748 41.1246 0.130897 43.7911L0.0218161 44.2247L6.08669 45.5687L6.17396 45.1568C6.76299 42.5771 8.22467 41.4714 11.0608 41.4714C12.9151 41.4714 14.2896 41.84 15.0967 42.5771C15.7949 43.1841 16.1657 44.1813 16.1657 45.482C16.1657 46.8044 15.7949 47.845 15.0967 48.4303C14.2241 49.1457 12.8279 49.536 11.039 49.536H8.57373V55.7144H11.0608C12.9151 55.7144 14.2896 56.083 15.0967 56.8201C15.7949 57.4271 16.1657 58.4243 16.1657 59.725C16.1657 61.0474 15.7949 62.088 15.0967 62.6733C14.2241 63.3888 12.8279 63.779 11.039 63.779C8.20286 63.779 6.76299 62.6733 6.15214 60.0936L6.06488 59.6817L0 60.9824L0.0872644 61.416C0.698115 64.1041 1.96345 66.2504 3.88327 67.7462C5.78127 69.2204 8.18104 69.9574 11.0171 69.9574C14.4641 69.9574 17.1911 69.0686 19.1327 67.3343C21.2271 65.4916 22.3397 62.8685 22.3397 59.7033C22.3397 56.8634 21.4016 54.4137 19.6563 52.5927C21.4234 50.7717 22.3397 48.3003 22.3397 45.4387C22.3833 42.3603 21.2707 39.7371 19.1764 37.9161Z" fill="#49C0B6"/>
<path d="M32.0048 42.8155C32.7901 41.905 34.0118 41.4714 35.7571 41.4714H36.0407C38.8332 41.4714 40.3385 42.5987 40.9276 45.1568L41.0148 45.5687L47.0797 44.2247L46.9924 43.7911C46.3816 41.1246 45.0944 39.0001 43.1964 37.5042C41.2984 36.03 38.8987 35.293 36.0626 35.293H35.7789C32.2447 35.293 29.3432 36.4853 27.3797 38.7182C25.4381 40.8428 24.4346 43.8344 24.4346 47.5632V57.7089C24.4346 61.4377 25.4163 64.4293 27.3579 66.5539C29.3214 68.8085 32.2229 70.0008 35.7571 70.0008C37.3497 70.0008 38.8768 69.7623 40.2731 69.3071C41.6693 68.8085 42.9565 68.0063 43.9818 66.9874C45.0072 66.0119 45.7925 64.7762 46.338 63.2804C46.7961 61.9146 47.0361 60.332 47.0361 58.7495C47.0361 57.1669 46.7961 55.6494 46.338 54.262C45.8144 52.7878 45.0072 51.5304 44.0036 50.5766C43.0219 49.5576 41.7784 48.7772 40.2731 48.2352C38.8768 47.78 37.3497 47.5415 35.7571 47.5415C34.1427 47.5415 32.572 47.78 31.1758 48.2352C31.0012 48.3003 30.8267 48.3653 30.6522 48.4303V47.5632C30.6522 45.3953 31.1103 43.7911 32.0048 42.8155ZM35.7571 53.6983C37.5024 53.6983 38.7896 54.0885 39.6404 54.869C40.4258 55.6928 40.8185 56.9935 40.8185 58.7278C40.8185 60.5055 40.4258 61.8062 39.6404 62.5866C38.8114 63.4104 37.5242 63.8223 35.7571 63.8223C34.0118 63.8223 32.7901 63.3888 32.0048 62.4566C31.2194 61.5894 30.7612 60.1369 30.6522 58.2509C30.7394 56.7333 31.1539 55.606 31.8957 54.8906C32.6811 54.0885 33.99 53.6983 35.7571 53.6983Z" fill="#49C0B6"/>
<path d="M45.3341 34.7722C46.4685 35.6611 47.4284 36.7016 48.2356 37.894C48.5847 37.3954 48.9555 36.8967 49.3482 36.4415C51.988 33.4281 55.8058 31.8239 60.3872 31.8239C60.5617 31.8239 60.7144 31.8239 60.8889 31.8456V22.1768L60.8017 13.5703L38.2002 25.9489V31.9757C40.949 32.2575 43.327 33.2113 45.3341 34.7722Z" fill="#C9D24F"/>
<path d="M68.7865 38.7165C66.8231 36.4619 63.9215 35.2695 60.3873 35.2695C56.8531 35.2695 53.9516 36.4619 51.9881 38.6948C50.0683 40.841 49.1084 43.811 49.1084 47.5398V57.6854C49.1084 61.3925 50.0683 64.3842 51.9881 66.5304C53.9516 68.785 56.8531 69.9773 60.3873 69.9773C63.9215 69.9773 66.8231 68.785 68.7865 66.5521C70.7282 64.3625 71.7099 61.3925 71.7099 57.7071V47.5614C71.7099 43.876 70.7282 40.906 68.7865 38.7165ZM55.326 57.7071V47.5614C55.326 45.4152 55.7623 43.811 56.635 42.8138C57.3985 41.9249 58.6639 41.4697 60.3873 41.4697C62.1326 41.4697 63.3543 41.9033 64.1397 42.8138C65.0342 43.8327 65.4923 45.4803 65.4923 47.5614V57.7071C65.4923 59.7666 65.0123 61.4576 64.1397 62.4548C63.3543 63.3653 62.1326 63.7989 60.3873 63.7989C58.6639 63.7989 57.3985 63.3436 56.635 62.4548C55.7841 61.4792 55.326 59.8317 55.326 57.7071Z" fill="#49C0B6"/>
<path d="M21.4887 35.0976C22.3395 35.8347 23.0595 36.6585 23.6703 37.569C23.9976 37.092 24.3684 36.6368 24.7611 36.2032C27.1827 33.4283 30.6078 31.8674 34.7093 31.629V25.7106L12.1078 13.332L12.0205 21.9385V31.629C15.9038 31.7807 19.0889 32.9514 21.4887 35.0976Z" fill="#00A0DC"/>
</svg>
