<svg width="70" height="70" viewBox="0 0 70 70" fill="none" xmlns="http://www.w3.org/2000/svg">
<path d="M69.3089 9.59806C62.6339 6.55754 55.9812 3.49433 49.3285 0.431118C49.017 0.294976 48.7055 0.158833 48.305 0C48.2828 0.317666 48.2605 0.52188 48.2605 0.748784C48.2605 20.2853 48.2605 39.8217 48.2383 59.3582C48.2383 59.8801 48.394 60.107 48.839 60.3339C55.6697 63.4425 62.4782 66.5738 69.3089 69.705C69.5092 69.7958 69.7094 69.8639 69.9764 69.9546C69.9764 69.637 69.9764 69.41 69.9764 69.1832C69.9764 49.6694 69.9764 30.1556 69.9987 10.6418C70.0209 10.0519 69.8207 9.82496 69.3089 9.59806ZM65.8602 58.6094C61.7217 56.8395 56.2705 54.3436 52.1098 52.5737V49.8963C56.2705 51.6888 61.7217 54.1621 65.8602 55.9319V58.6094ZM65.8602 50.9627C61.744 49.1929 56.2927 46.7196 52.1098 44.9271V42.2496C56.2705 44.0421 61.7217 46.5154 65.8602 48.2853V50.9627ZM65.8602 43.3387C61.7217 41.5689 56.2705 39.0729 52.1098 37.3031V34.6256C56.2705 36.4182 61.7217 38.8914 65.8602 40.6613V43.3387ZM65.8602 32.2431C64.3472 31.6078 62.8564 30.9724 61.3657 30.3371C58.273 29.0211 55.2025 27.7277 52.132 26.389V9.9611C52.1765 9.98379 52.221 9.98379 52.2655 10.0065C56.6487 11.8671 61.0097 14.3404 65.3929 16.201C65.5932 16.2917 65.7712 16.3598 65.8824 16.4733V32.2431H65.8602Z" fill="#C9D24F"/>
<path d="M45.8563 0C45.5893 0.113452 45.4336 0.158833 45.2778 0.226904C38.4026 3.38088 31.5496 6.53485 24.6744 9.66613C24.0959 9.91572 24.1404 10.2788 24.1404 10.7553C24.1404 30.201 24.1404 49.624 24.1404 69.0697C24.1404 69.342 24.1404 69.6143 24.1404 70C24.4519 69.8639 24.6744 69.7958 24.8969 69.6823C31.6164 66.5964 38.3581 63.4878 45.0998 60.4246C45.7006 60.1523 45.9008 59.8574 45.9008 59.1994C45.8786 39.799 45.8786 20.376 45.8786 0.975689C45.8563 0.680713 45.8563 0.408428 45.8563 0ZM41.8736 52.778C41.7401 52.8914 41.5621 52.9595 41.3841 53.0502C37.0009 54.9109 32.6399 57.3841 28.2567 59.2447C28.2122 59.2674 28.1677 59.2901 28.1232 59.2901V42.8622C31.1936 41.5235 34.2864 40.2301 37.3569 38.9141C38.8476 38.2788 40.3383 37.6434 41.8513 37.0081V52.778H41.8736ZM41.8736 28.59C37.7351 30.3598 32.2839 32.8331 28.1232 34.6256V31.9481C32.2616 30.1783 37.7351 27.6823 41.8736 25.9125V28.59ZM41.8736 20.9433C37.7351 22.7131 32.2839 25.1864 28.1232 26.9789V24.3015C32.2839 22.5089 37.7574 20.0357 41.8736 18.2658V20.9433ZM41.8736 13.3193C37.7351 15.0891 32.2839 17.5624 28.1232 19.3549V16.6775C32.2616 14.9076 37.7351 12.4117 41.8736 10.6418V13.3193Z" fill="#00A0DC"/>
<path d="M21.1151 9.64223C14.2622 6.51095 7.43146 3.37967 0.578497 0.225698C0.400498 0.157627 0.222499 0.112246 0 0.0214844C0 20.0571 0 40.0474 0 60.0604C7.20896 63.3732 14.3957 66.6633 21.6714 69.9988C21.6936 69.6584 21.7159 69.4542 21.7159 69.2273C21.7159 49.6908 21.7159 30.1544 21.7381 10.6179C21.7159 10.096 21.5824 9.84644 21.1151 9.64223ZM17.7999 58.6082C13.6614 56.8383 8.2102 54.3424 4.04948 52.5725V49.8951C8.2102 51.6876 13.6614 54.1609 17.7999 55.9307V58.6082ZM17.7999 50.9615C13.6837 49.1917 8.23245 46.7184 4.04948 44.9259V42.2484C8.2102 44.0409 13.6614 46.5142 17.7999 48.284V50.9615ZM17.7999 43.3375C13.6614 41.5677 8.2102 39.0717 4.04948 37.3019V34.6244C8.2102 36.4169 13.6614 38.8902 17.7999 40.6601V43.3375ZM17.7999 32.2419C16.2869 31.6066 14.7962 30.9712 13.3054 30.3359C10.2127 29.0199 7.14221 27.7265 4.07173 26.3878V9.9599C4.11623 9.98259 4.16073 9.98259 4.20522 10.0053C8.58845 11.8659 12.9494 14.3392 17.3326 16.1998C17.5329 16.2905 17.7109 16.3586 17.8221 16.472V32.2419H17.7999Z" fill="#49C0B6"/>
</svg>
