<svg width="100" height="36" viewBox="0 0 100 36" fill="none" xmlns="http://www.w3.org/2000/svg">
<path d="M62.8545 19.2656H62.8345C60.1875 19.2656 58.1021 21.3029 58.082 23.9137C58.082 25.1796 58.5633 26.3663 59.4456 27.2564C60.3279 28.1465 61.511 28.6409 62.7743 28.6409H62.7944C65.4012 28.6409 67.5468 26.5641 67.5668 23.9928C67.5869 22.7468 67.0856 21.5798 66.2033 20.6699C65.3009 19.7601 64.0978 19.2656 62.8545 19.2656Z" fill="#49C0B6"/>
<path d="M24.9157 17.3457C23.7526 15.1305 23.2914 12.6383 23.512 9.55273C20.6846 11.6889 17.4762 12.7372 13.7064 12.7372C13.185 12.7372 12.6436 12.7174 12.0821 12.6778C11.8014 12.6581 11.5006 12.6581 11.2399 12.6581C6.72813 12.6581 2.67754 15.3678 0.91293 19.5808C-1.0121 24.1497 0.17099 29.3121 3.86064 32.457C5.98619 34.2569 8.67322 35.2458 11.4004 35.2458C15.3106 35.2458 18.92 33.2679 21.0456 29.945C23.0107 26.8793 25.5173 24.7827 28.6855 23.497C29.1668 23.2992 29.6481 23.141 30.1895 22.963C30.2296 22.9432 30.2697 22.9432 30.3098 22.9234C27.9035 21.5191 26.1389 19.6994 24.9157 17.3457ZM11.4004 30.7164H11.3402C7.59039 30.7164 4.54242 27.6704 4.52237 23.9519C4.50232 20.2137 7.57034 17.1479 11.3402 17.1281H11.3803C15.1702 17.1281 18.2382 20.1741 18.2382 23.9124C18.2382 27.6902 15.2304 30.6769 11.4004 30.7164Z" fill="#C9D24F"/>
<path d="M62.7143 12.6586C62.3935 12.6586 62.0526 12.6784 61.7318 12.6982C61.2305 12.7378 60.7291 12.7575 60.2479 12.7575C56.9793 12.7575 53.9715 11.8477 51.2844 10.028C49.1789 8.60393 47.6951 6.66557 46.532 4.94479C44.4065 1.83946 40.8973 0 37.1475 0C35.4831 0 33.8789 0.356024 32.3549 1.02852C27.1814 3.34267 24.5546 8.70282 25.9382 14.1025C26.5798 16.6145 28.0236 18.7506 30.1091 20.2538C32.1745 21.7571 34.7211 22.5482 37.4884 22.5482C37.8493 22.5482 38.2303 22.5284 38.6113 22.5087C39.0324 22.4691 39.4535 22.4691 39.8546 22.4691C40.777 22.4691 41.6793 22.5482 42.5215 22.7065C46.9331 23.5174 50.5225 25.9898 53.1894 30.0247C55.2548 33.1696 58.383 35.0882 61.5513 35.1871C65.8024 35.1871 69.5522 33.5256 71.8582 30.5983C73.9236 27.9875 74.6255 24.5855 73.8033 21.2626C72.4799 16.12 68.0282 12.6586 62.7143 12.6586ZM42.2207 16.0013C40.9173 17.3067 39.1728 18.0188 37.328 18.0188C33.538 18.0188 30.5502 15.0915 30.5302 11.3532C30.5302 9.53355 31.232 7.81276 32.5354 6.52712C33.8188 5.26125 35.5032 4.56898 37.3079 4.56898H37.348C41.0778 4.58876 44.1458 7.59519 44.1658 11.2741C44.1859 13.0345 43.5041 14.7157 42.2207 16.0013ZM62.7945 30.717C59.0648 30.717 55.9366 27.6117 55.9366 23.913C55.9366 22.1329 56.6585 20.4319 57.982 19.1462C59.3054 17.8408 61.0099 17.1287 62.8346 17.1287C64.6594 17.1287 66.3839 17.8408 67.6873 19.1264C68.9907 20.4121 69.7126 22.1329 69.7126 23.9328C69.6525 27.671 66.5644 30.717 62.7945 30.717Z" fill="#49C0B6"/>
<path d="M37.3677 6.60547C34.7208 6.60547 32.5752 8.68228 32.5752 11.2536C32.5752 12.4799 33.0765 13.6468 33.9989 14.5567C34.9013 15.4665 36.1044 15.961 37.3276 15.961H37.3677C40.0146 15.9412 42.0801 13.8644 42.06 11.214C42.0399 8.62294 39.9745 6.60547 37.3677 6.60547Z" fill="#49C0B6"/>
<path d="M11.3604 19.2656H11.3403C10.0971 19.2656 8.89392 19.7601 7.99156 20.6502C7.0892 21.5402 6.58789 22.7072 6.58789 23.9533C6.58789 26.5246 8.7335 28.6409 11.3604 28.6409C12.6237 28.6409 13.8268 28.1465 14.7091 27.2762C15.6115 26.3861 16.0927 25.2191 16.0927 23.9533C16.1128 21.3227 14.0273 19.2656 11.3604 19.2656Z" fill="#C9D24F"/>
<path d="M88.5821 0.0195312C88.2011 0.0195312 87.8201 0.0393104 87.4391 0.0788687C83.6693 0.454672 80.7416 2.25457 78.7163 5.43901C76.5506 8.84103 73.4425 11.1354 69.4922 12.243C74.4251 15.4275 76.6309 19.8382 76.2098 25.7324C76.2499 25.7126 76.29 25.6731 76.3301 25.6533C79.3179 23.4974 82.426 22.4293 85.855 22.4293C86.2961 22.4293 86.7373 22.4491 87.1784 22.4886C87.5394 22.5084 87.9204 22.5282 88.2813 22.5282C89.1436 22.5282 89.9858 22.4491 90.8079 22.3106C96.563 21.2623 100.734 15.5857 99.8917 9.9091C99.0695 4.27205 94.1968 0.0195312 88.5821 0.0195312ZM88.5019 17.9988H88.4818C84.6518 17.9988 81.644 15.0319 81.644 11.2541C81.644 7.47627 84.6518 4.48962 88.4818 4.48962C92.3319 4.48962 95.3398 7.45649 95.3398 11.2343C95.3598 15.0121 92.352 17.9988 88.5019 17.9988Z" fill="#00A0DC"/>
<path d="M88.5215 6.60547H88.5015C87.2181 6.60547 86.035 7.09995 85.1527 7.97023C84.2704 8.84051 83.7891 10.0273 83.8092 11.2931C83.8292 13.8446 85.9348 15.9412 88.4814 15.9412C88.4814 15.9412 88.5416 15.9412 88.5817 15.9412C91.1484 15.8819 93.2539 13.7853 93.2539 11.2536C93.2539 10.0075 92.7726 8.82073 91.8703 7.95045C90.988 7.08017 89.7848 6.60547 88.5215 6.60547Z" fill="#00A0DC"/>
</svg>
