<svg width="77" height="70" viewBox="0 0 77 70" fill="none" xmlns="http://www.w3.org/2000/svg">
<path d="M8.34392 46.6074H14.4476L28.6665 65.0863L14.3104 69.9987H0L8.34392 46.6074Z" fill="#00A0DC"/>
<path d="M67.3912 46.6074H47.5487C47.5487 46.6074 47.5487 46.6304 47.5258 46.6304C46.2685 48.3061 44.9655 49.9589 43.6624 51.5198C42.8166 52.5298 42.2223 53.2185 41.9479 53.5169C41.5593 53.9531 40.6906 54.9401 40.6906 54.9401L38.176 57.8095L35.6157 54.986C35.6157 54.986 34.6099 53.8842 34.3127 53.5399C33.9241 53.1037 32.8953 51.933 31.5009 50.2114C30.5636 49.0407 29.6264 47.847 28.7348 46.6533L28.712 46.6304H17.5791L31.1351 64.1681L68.9457 50.6934L67.3912 46.6074Z" fill="#C9D24F"/>
<path d="M38.1309 0C27.6381 0 19.1113 8.56227 19.1113 19.0757C19.1113 27.5232 26.2208 38.5187 31.4329 45.4512C32.4159 46.7596 33.3303 47.9303 34.1304 48.9174C35.6163 50.7768 36.6679 51.9245 36.8279 52.1311C37.1251 52.4525 38.108 53.5543 38.108 53.5543C38.108 53.5543 38.9767 52.5673 39.3653 52.1311C39.4796 51.9934 40.0969 51.3047 41.0113 50.2029C41.9714 49.0322 43.2973 47.4024 44.7603 45.4512C49.9724 38.5187 57.0819 27.5232 57.0819 19.0757C57.1276 8.56227 48.6008 0 38.1309 0ZM38.1309 28.6939C32.8502 28.6939 28.5754 24.3784 28.5754 19.0987C28.5754 13.819 32.8731 9.50343 38.1309 9.50343C43.3887 9.50343 47.6864 13.819 47.6864 19.0987C47.6864 24.3784 43.3887 28.6939 38.1309 28.6939Z" fill="#49C0B6"/>
<path d="M22.7695 69.9994H62.1803L53.6992 59.0039L22.7695 69.9994Z" fill="#C9D24F"/>
<path d="M69.7461 53.3086L56.2129 58.1062L65.4255 69.997H76.0097L69.7461 53.3086Z" fill="#00A0DC"/>
</svg>
