<svg width="71" height="71" viewBox="0 0 71 71" fill="none" xmlns="http://www.w3.org/2000/svg">
<path d="M60.9341 12.1875C63.9878 12.1875 66.9778 12.1875 70.0102 12.1875C70.0102 31.4446 70.0102 50.7017 70.0102 70.0012C50.7765 70.0012 31.5428 70.0012 12.2666 70.0012C12.2666 66.9863 12.2666 64.0139 12.2666 60.9141C12.5847 60.9141 12.9028 60.9141 13.2209 60.9141C28.4043 60.9141 43.6089 60.9141 58.7923 60.9141C60.4888 60.9141 60.9341 60.4682 60.9341 58.7484C60.9341 43.5891 60.9341 28.4297 60.9341 13.2703C60.9341 12.9306 60.9341 12.6121 60.9341 12.1875Z" fill="#49C0B6"/>
<path d="M0.0512076 57.7939C0.0512076 54.8214 0.157237 51.8702 0.00879583 48.9403C-0.0760277 46.987 0.454119 45.4158 1.53562 43.8022C6.519 36.4773 11.3751 29.0887 16.2949 21.7214C16.4434 21.4878 16.613 21.2543 16.8039 20.957C16.9947 21.2118 17.1432 21.3817 17.2704 21.5727C21.0662 26.9656 24.8409 32.3796 28.6579 37.7512C28.9972 38.2396 28.976 38.5368 28.6367 38.9827C24.0351 45.0761 19.4758 51.2121 14.8741 57.3055C14.6833 57.5603 14.3228 57.8151 14.0471 57.8151C9.46662 57.8363 4.86494 57.8363 0.284472 57.8363C0.242061 57.8576 0.199649 57.8363 0.0512076 57.7939Z" fill="#C9D24F"/>
<path d="M38.2437 31.252C38.4769 31.4855 38.6678 31.6341 38.8374 31.804C44.9871 37.9611 51.1368 44.1183 57.3078 50.2755C57.7531 50.7001 57.9015 51.146 57.9015 51.7405C57.8591 53.7362 57.8803 55.7532 57.8803 57.8127C44.7115 57.8127 31.6062 57.8127 18.3525 57.8127C25.0112 48.9379 31.6062 40.1268 38.2437 31.252Z" fill="#C9D24F"/>
<path d="M0.09375 0C0.09375 13.5033 0.09375 26.9429 0.09375 40.5099C0.327015 40.1914 0.475456 40.0004 0.602691 39.788C2.34157 37.1765 4.08046 34.5438 5.84055 31.9323C9.00022 27.1765 12.1599 22.4206 15.3408 17.6859C16.2102 16.3908 17.3341 16.3908 18.246 17.6647C18.352 17.8133 18.458 17.9619 18.5429 18.1106C22.5296 23.7794 26.5163 29.4482 30.4818 35.1171C30.6302 35.3506 30.7999 35.5629 30.9907 35.8177C31.1816 35.5629 31.3512 35.3719 31.4997 35.1808C33.2598 32.8453 34.9986 30.5098 36.7587 28.1743C37.5009 27.1977 38.3916 27.1552 39.2822 27.9833C39.4519 28.1319 39.6003 28.3017 39.77 28.4716C45.5592 34.2678 51.3484 40.064 57.1588 45.8603C57.3496 46.0514 57.5617 46.2425 57.8374 46.4972C57.8374 30.9132 57.8374 15.4778 57.8374 0.0212316C38.5824 0 19.3699 0 0.09375 0ZM44.6261 19.0872C41.0423 19.066 38.1371 16.1148 38.1583 12.5267C38.1795 8.93851 41.1271 6.05101 44.7321 6.07224C48.2735 6.09347 51.1575 9.02343 51.1575 12.5903C51.1575 16.1573 48.2099 19.0872 44.6261 19.0872Z" fill="#00A0DC"/>
</svg>
