<svg width="65" height="70" viewBox="0 0 65 70" fill="none" xmlns="http://www.w3.org/2000/svg">
<path d="M17.6839 20.7031C12.0248 20.7031 7.41895 25.309 7.41895 30.9681C7.41895 35.5111 11.2546 41.4217 14.0841 45.163C14.6186 45.8704 15.1216 46.4992 15.546 47.0179C16.3477 48.0083 16.9137 48.6371 17.008 48.7471C17.1652 48.92 17.6996 49.5174 17.6996 49.5174C17.6996 49.5174 18.1712 48.9829 18.3756 48.7471C18.4385 48.6685 18.7686 48.3069 19.2716 47.7096C19.7904 47.0808 20.5135 46.2005 21.2995 45.1473C24.1133 41.406 27.9489 35.4954 27.9489 30.9681C27.9489 25.309 23.3273 20.7031 17.6839 20.7031ZM17.6839 36.1399C14.8387 36.1399 12.5279 33.8134 12.5279 30.9838C12.5279 28.1543 14.8544 25.8278 17.6839 25.8278C20.5135 25.8278 22.84 28.1543 22.84 30.9838C22.84 33.8134 20.5135 36.1399 17.6839 36.1399Z" fill="#00A0DC"/>
<path d="M36.848 0C31.1889 0 26.583 4.60588 26.583 10.265C26.583 14.808 30.4186 20.7186 33.2482 24.4599C33.7826 25.1673 34.2857 25.7961 34.7101 26.3148C35.5118 27.3051 36.0777 27.9339 36.172 28.044C36.3292 28.2169 36.8637 28.8142 36.8637 28.8142C36.8637 28.8142 37.3353 28.2798 37.5396 28.044C37.6025 27.9654 37.9326 27.6038 38.4357 27.0065C38.9544 26.3777 39.6775 25.4974 40.4635 24.4442C43.2773 20.7029 47.113 14.7923 47.113 10.265C47.113 4.60588 42.5071 0 36.848 0ZM36.848 15.4368C34.0027 15.4368 31.6919 13.1102 31.6919 10.2807C31.6919 7.45115 34.0184 5.12463 36.848 5.12463C39.6775 5.12463 42.0041 7.45115 42.0041 10.2807C42.0041 13.1102 39.6932 15.4368 36.848 15.4368Z" fill="#C9D24F"/>
<path d="M47.222 41.1855C41.5629 41.1855 36.957 45.7914 36.957 51.4505C36.957 55.9935 40.7926 61.9041 43.6222 65.6454C44.1567 66.3528 44.6597 66.9816 45.0841 67.5004C45.8858 68.4907 46.4517 69.1195 46.5461 69.2295C46.7033 69.4024 47.2377 69.9998 47.2377 69.9998C47.2377 69.9998 47.7093 69.4653 47.9137 69.2295C47.9766 69.1509 48.3067 68.7894 48.8097 68.192C49.3284 67.5632 50.0516 66.6829 50.8375 65.6297C53.6514 61.8884 57.487 55.9778 57.487 51.4505C57.487 45.7914 52.8654 41.1855 47.222 41.1855ZM47.222 56.6223C44.3767 56.6223 42.0659 54.2958 42.0659 51.4662C42.0659 48.6367 44.3925 46.3102 47.222 46.3102C50.0516 46.3102 52.3781 48.6367 52.3781 51.4662C52.3781 54.2958 50.0516 56.6223 47.222 56.6223Z" fill="#C9D24F"/>
<path d="M64.5299 24.0514C64.5142 24.0043 64.4984 23.9571 64.4827 23.9099C64.467 23.8785 64.4513 23.8313 64.4513 23.8156C63.4138 16.9147 58.0376 12.2931 51.0581 12.2773C50.4136 12.2773 49.7691 12.2773 49.1246 12.2773C48.8416 13.8808 48.26 15.6414 47.3482 17.5434C48.7787 17.5434 50.1149 17.5434 51.3882 17.5592C53.9191 17.5749 56.2299 18.7381 57.739 20.7503C59.2481 22.7781 59.6882 25.3404 58.9651 27.777C57.9433 31.2196 54.8465 33.4518 51.0895 33.4518C47.5683 33.4518 44.0314 33.4518 40.5102 33.4518H29.8679C29.5378 35.0552 28.8933 36.8158 27.9658 38.7179C32.9175 38.7179 44.7073 38.7179 44.7073 38.7179C45.3833 38.7179 46.0592 38.7179 46.7194 38.7179C47.3954 38.7179 48.0713 38.7179 48.7473 38.7179C49.8477 38.7179 50.7594 38.7022 51.5926 38.6865C57.7075 38.5607 62.785 34.4421 64.2155 28.4687C64.3098 28.1071 64.3727 27.7455 64.4513 27.384C64.4827 27.2268 64.5142 27.0539 64.5456 26.8967L64.5613 26.8181V24.1614L64.5299 24.0514Z" fill="#49C0B6"/>
<path d="M37.2715 59.8594C36.2811 57.973 35.5894 56.2282 35.1807 54.609C33.3887 54.609 32.0368 54.609 31.5023 54.609C29.1915 54.609 25.3087 54.609 22.9822 54.609C19.7754 54.609 16.5843 54.609 13.3775 54.5933C8.89736 54.5776 5.3447 51.1978 5.25039 46.8749C5.20323 44.6742 6.02065 42.6149 7.51402 41.0744C7.74982 40.8386 8.00134 40.6028 8.26857 40.3984C8.07994 40.0526 7.8913 39.7067 7.70266 39.3609C6.99527 38.0247 6.44508 36.7357 6.03637 35.541C3.36402 37.2545 1.33618 39.9268 0.440152 43.1965C0.314394 43.6838 0.204356 44.1711 0.125758 44.6427C0.0785986 44.8471 0.0471592 45.0672 0 45.2715L0 45.3658V47.991L0.0157197 48.0696C0.0471592 48.2268 0.0785986 48.384 0.110038 48.5412C0.172917 48.887 0.251515 49.2329 0.330114 49.5787C1.77633 55.6937 6.96383 59.828 13.236 59.8594C16.097 59.8751 19.1466 59.8751 22.8722 59.8751C25.3402 59.8751 29.3802 59.8751 31.8481 59.8751C32.5398 59.8751 34.6305 59.8751 37.2715 59.8751C37.2715 59.8751 37.2715 59.8751 37.2715 59.8594Z" fill="#49C0B6"/>
</svg>
