<svg width="16" height="17" viewBox="0 0 16 17" fill="none" xmlns="http://www.w3.org/2000/svg">
<g clip-path="url(#clip0_240_2399)">
<path d="M12.1895 11.7718C13.2447 10.3833 13.8271 8.76812 13.8271 7.22176C13.8271 3.23846 10.7005 0 6.85491 0C5.00244 0 3.27113 0.752941 1.98534 2.11714C0.703469 3.47324 0 5.28678 0 7.22176C0 11.2051 3.12653 14.4435 6.97215 14.4435C8.41817 14.4435 9.9658 13.9011 11.1265 12.9943L14.8197 16.9412L16 15.7187L12.1895 11.7718ZM6.851 1.8864C8.25403 1.8864 9.55935 2.44503 10.5247 3.4611C11.4783 4.46502 12.002 5.80089 12.002 7.22176C12.002 8.64263 11.4783 9.97849 10.5247 10.9824C9.55935 11.9985 8.25403 12.5571 6.84709 12.5571C5.44406 12.5571 4.13874 11.9985 3.17342 10.9824C2.21983 9.97849 1.69614 8.64263 1.69614 7.22176C1.69614 5.81303 2.23547 4.47717 3.22032 3.4611C4.20518 2.44503 5.49096 1.8864 6.851 1.8864Z" fill="white"/>
</g>
<defs>
<clipPath id="clip0_240_2399">
<rect width="16" height="16.9412" fill="white"/>
</clipPath>
</defs>
</svg>
