<svg width="20" height="20" viewBox="0 0 20 20" fill="none" xmlns="http://www.w3.org/2000/svg">
<path d="M17.2222 0H2.77778C1.22222 0 0 1.22222 0 2.77778V17.2222C0 18.7778 1.22222 20 2.77778 20H17.2222C18.7778 20 20 18.7778 20 17.2222V2.77778C20 1.22222 18.7778 0 17.2222 0ZM16.1111 6.11111H14.8333C13.9444 6.11111 13.8889 6.44444 13.8889 7.05556V8.33333H16.1111L15.7778 10.5556H13.8889V17.7778H11.1111V10.5556H9.44444V8.33333H11.1111V7C11.1111 5.05556 11.9444 3.88889 14.2222 3.88889H16.1111V6.11111Z" fill="#8E8E8E"/>
</svg>
