<svg width="20" height="20" viewBox="0 0 20 20" fill="none" xmlns="http://www.w3.org/2000/svg">
<path d="M10.0002 0.00963964C5.90426 0.00963964 2.01472 -0.354435 0.529062 3.45539C-0.0846024 5.02891 0.00451441 7.07247 0.00451441 9.99859C0.00451441 12.5663 -0.077834 14.9795 0.529062 16.5407C2.01133 20.3527 5.93247 19.9875 9.99799 19.9875C13.9203 19.9875 17.9643 20.3956 19.4681 16.5407C20.0828 14.9514 19.9926 12.9382 19.9926 9.99859C19.9926 6.09634 20.2081 3.57712 18.314 1.68574C16.3963 -0.230447 13.8029 0.00963964 9.99574 0.00963964H10.0002ZM9.10457 1.80973C17.6485 1.7962 18.7359 0.847126 18.1358 14.0316C17.9226 18.6947 14.3692 18.1829 10.0014 18.1829C2.03728 18.1829 1.80828 17.9553 1.80828 9.99408C1.80828 1.94048 2.43999 1.81423 9.10457 1.80747V1.80973ZM15.336 3.46779C14.6738 3.46779 14.1368 4.00432 14.1368 4.66597C14.1368 5.32761 14.6738 5.86414 15.336 5.86414C15.9981 5.86414 16.5351 5.32761 16.5351 4.66597C16.5351 4.00432 15.9981 3.46779 15.336 3.46779ZM10.0002 4.86886C7.16543 4.86886 4.86758 7.16602 4.86758 9.99859C4.86758 12.8312 7.16543 15.1272 10.0002 15.1272C12.8351 15.1272 15.1318 12.8312 15.1318 9.99859C15.1318 7.16602 12.8351 4.86886 10.0002 4.86886ZM10.0002 6.66894C14.4053 6.66894 14.411 13.3282 10.0002 13.3282C5.5963 13.3282 5.58954 6.66894 10.0002 6.66894Z" fill="#484848"/>
</svg>
