<svg width="22" height="16" viewBox="0 0 22 16" fill="none" xmlns="http://www.w3.org/2000/svg">
<path fill-rule="evenodd" clip-rule="evenodd" d="M19.6078 0.48141C20.5502 0.740631 21.2932 1.49978 21.5469 2.4626C22.018 4.2216 21.9999 7.88772 21.9999 7.88772C21.9999 7.88772 21.9999 11.5353 21.5469 13.2943C21.2932 14.2572 20.5502 15.0163 19.6078 15.2755C17.8862 15.7384 11 15.7384 11 15.7384C11 15.7384 4.13178 15.7384 2.39208 15.257C1.44975 14.9978 0.706751 14.2386 0.453046 13.2758C0 11.5353 0 7.86921 0 7.86921C0 7.86921 0 4.2216 0.453046 2.4626C0.706751 1.49978 1.46787 0.722116 2.39208 0.462895C4.11366 0 11 0 11 0C11 0 17.8862 0 19.6078 0.48141ZM8.8072 4.49921L14.5337 7.86908L8.8072 11.239V4.49921Z" fill="#484848"/>
</svg>
