<svg width="20" height="17" viewBox="0 0 20 17" fill="none" xmlns="http://www.w3.org/2000/svg">
<path d="M20 1.9499C19.2644 2.28046 18.473 2.50404 17.6431 2.60389C18.4905 2.08944 19.1407 1.27543 19.4477 0.303896C18.6548 0.780517 17.7762 1.12628 16.842 1.31265C16.0935 0.50484 15.0271 0 13.8462 0C11.5805 0 9.74295 1.86214 9.74295 4.15811C9.74295 4.48402 9.77937 4.80125 9.84975 5.10577C6.43961 4.93242 3.41596 3.27712 1.39203 0.760671C1.03889 1.37467 0.836317 2.08944 0.836317 2.85135C0.836317 4.29362 1.56125 5.56688 2.66165 6.31236C1.98935 6.29096 1.35622 6.10397 0.803268 5.79171C0.802962 5.80938 0.802962 5.82706 0.802962 5.84442C0.802962 7.85913 2.21794 9.53955 4.09468 9.92128C3.75073 10.0168 3.3875 10.0673 3.01386 10.0673C2.74886 10.0673 2.49212 10.0416 2.24181 9.99323C2.76385 11.6448 4.27889 12.8471 6.07485 12.8809C4.67028 13.9963 2.90125 14.6608 0.978304 14.6608C0.647816 14.6608 0.320389 14.6413 0 14.6025C1.81493 15.7828 3.97228 16.4709 6.28936 16.4709C13.8367 16.4709 17.9641 10.1349 17.9641 4.63969C17.9641 4.45952 17.9602 4.27998 17.9522 4.10198C18.7546 3.51589 19.4501 2.78375 20 1.9499Z" fill="#484848"/>
</svg>
