<svg width="15" height="16" viewBox="0 0 15 16" fill="none" xmlns="http://www.w3.org/2000/svg">
<g clip-path="url(#clip0_314_3563)">
<path d="M7.20113 8.7048C9.57502 8.7048 11.5058 6.77404 11.5058 4.41598C11.5058 2.04209 9.57502 0.111328 7.20113 0.111328C4.82725 0.111328 2.89648 2.04209 2.89648 4.40015C2.89648 6.77404 4.82725 8.7048 7.20113 8.7048ZM7.20113 1.26662C8.92616 1.26662 10.3347 2.67513 10.3347 4.40015C10.3347 6.12517 8.92616 7.53368 7.20113 7.53368C5.47611 7.53368 4.0676 6.12517 4.0676 4.40015C4.0676 2.67513 5.47611 1.26662 7.20113 1.26662Z" fill="white"/>
<path d="M14.2753 12.6463V12.6146L14.2595 12.5988C13.5632 11.5701 12.6927 10.763 11.664 10.2091C10.6987 9.70263 9.60668 9.43359 8.49886 9.43359H5.90341C4.77977 9.43359 3.71944 9.68681 2.73823 10.2091C1.70954 10.7471 0.823294 11.5543 0.126953 12.6146V12.6304V15.8906H14.2912L14.2753 12.6463ZM1.28225 12.9786C2.34258 11.491 4.06761 10.6047 5.90341 10.6047H8.49886C10.3347 10.6047 12.0597 11.491 13.12 12.9944V14.7353H1.28225V12.9786Z" fill="white"/>
</g>
<defs>
<clipPath id="clip0_314_3563">
<rect width="14.4016" height="16" fill="white"/>
</clipPath>
</defs>
</svg>
