<svg width="17" height="18" viewBox="0 0 17 18" fill="none" xmlns="http://www.w3.org/2000/svg">
<g clip-path="url(#clip0_497_4057)">
<path d="M8.10152 9.79265C10.7721 9.79265 12.9443 7.62055 12.9443 4.96773C12.9443 2.29711 10.7721 0.125 8.10152 0.125C5.4309 0.125 3.25879 2.29711 3.25879 4.94993C3.25879 7.62055 5.4309 9.79265 8.10152 9.79265ZM8.10152 1.4247C10.0422 1.4247 11.6267 3.00927 11.6267 4.94993C11.6267 6.89058 10.0422 8.47515 8.10152 8.47515C6.16087 8.47515 4.5763 6.89058 4.5763 4.94993C4.5763 3.00927 6.16087 1.4247 8.10152 1.4247Z" fill="white"/>
<path d="M16.0595 14.2256V14.19L16.0417 14.1722C15.2583 13.0149 14.2791 12.1069 13.1218 11.4837C12.0358 10.914 10.8073 10.6113 9.56098 10.6113H6.6411C5.377 10.6113 4.18412 10.8962 3.08026 11.4837C1.92299 12.0891 0.925961 12.9971 0.142578 14.19V14.2078V17.8754H16.0773L16.0595 14.2256ZM1.44228 14.5995C2.63516 12.9259 4.57581 11.9288 6.6411 11.9288H9.56098C11.6263 11.9288 13.5669 12.9259 14.7598 14.6173V16.5757H1.44228V14.5995Z" fill="white"/>
</g>
<defs>
<clipPath id="clip0_497_4057">
<rect width="16.2018" height="18" fill="white"/>
</clipPath>
</defs>
</svg>
